{
  "asset": {
    "generator": "glTF-Transform v4.0.1",
    "version": "2.0"
  },
  "accessors": [
    {
      "type": "SCALAR",
      "componentType": 5126,
      "count": 2,
      "max": [
        5
      ],
      "min": [
        0
      ],
      "bufferView": 0,
      "byteOffset": 0
    },
    {
      "type": "VEC3",
      "componentType": 5126,
      "count": 2,
      "bufferView": 0,
      "byteOffset": 8
    },
    {
      "type": "VEC4",
      "componentType": 5126,
      "count": 2,
      "bufferView": 0,
      "byteOffset": 32
    },
    {
      "type": "VEC3",
      "componentType": 5126,
      "count": 2,
      "bufferView": 0,
      "byteOffset": 64
    },
    {
      "type": "VEC3",
      "componentType": 5126,
      "count": 2,
      "bufferView": 0,
      "byteOffset": 88
    },
    {
      "type": "VEC4",
      "componentType": 5126,
      "count": 2,
      "bufferView": 0,
      "byteOffset": 112
    },
    {
      "type": "SCALAR",
      "componentType": 5126,
      "count": 3,
      "max": [
        5
      ],
      "min": [
        0
      ],
      "bufferView": 0,
      "byteOffset": 144
    },
    {
      "type": "VEC4",
      "componentType": 5126,
      "count": 3,
      "bufferView": 0,
      "byteOffset": 156
    },
    {
      "type": "SCALAR",
      "componentType": 5123,
      "count": 8064,
      "bufferView": 1,
      "byteOffset": 0
    },
    {
      "type": "SCALAR",
      "componentType": 5123,
      "count": 2304,
      "bufferView": 1,
      "byteOffset": 16128
    },
    {
      "type": "SCALAR",
      "componentType": 5123,
      "count": 27504,
      "bufferView": 1,
      "byteOffset": 20736
    },
    {
      "type": "SCALAR",
      "componentType": 5123,
      "count": 3264,
      "bufferView": 1,
      "byteOffset": 75744
    },
    {
      "type": "SCALAR",
      "componentType": 5123,
      "count": 1512,
      "bufferView": 1,
      "byteOffset": 82272
    },
    {
      "type": "SCALAR",
      "componentType": 5123,
      "count": 792,
      "bufferView": 1,
      "byteOffset": 85296
    },
    {
      "type": "SCALAR",
      "componentType": 5123,
      "count": 3096,
      "bufferView": 1,
      "byteOffset": 86880
    },
    {
      "type": "VEC3",
      "componentType": 5126,
      "count": 3328,
      "max": [
        1.9904214143753052,
        5,
        1.9904214143753052
      ],
      "min": [
        -1.9904214143753052,
        -5,
        -1.9904215335845947
      ],
      "bufferView": 2,
      "byteOffset": 0
    },
    {
      "type": "VEC3",
      "componentType": 5126,
      "count": 3328,
      "bufferView": 2,
      "byteOffset": 12
    },
    {
      "type": "VEC2",
      "componentType": 5126,
      "count": 3328,
      "bufferView": 2,
      "byteOffset": 24
    },
    {
      "type": "VEC3",
      "componentType": 5126,
      "count": 816,
      "max": [
        1.9250798225402832,
        1.9250798225402832,
        0.8000000715255737
      ],
      "min": [
        -1.9250798225402832,
        -1.9250798225402832,
        -0.8000000715255737
      ],
      "bufferView": 3,
      "byteOffset": 0
    },
    {
      "type": "VEC3",
      "componentType": 5126,
      "count": 816,
      "bufferView": 3,
      "byteOffset": 12
    },
    {
      "type": "VEC2",
      "componentType": 5126,
      "count": 816,
      "bufferView": 3,
      "byteOffset": 24
    },
    {
      "type": "VEC3",
      "componentType": 5126,
      "count": 13416,
      "max": [
        1.999999761581421,
        3.545454502105713,
        3.625
      ],
      "min": [
        -1.999999761581421,
        -3.545454502105713,
        -3.125
      ],
      "bufferView": 4,
      "byteOffset": 0
    },
    {
      "type": "VEC3",
      "componentType": 5126,
      "count": 13416,
      "bufferView": 4,
      "byteOffset": 12
    },
    {
      "type": "VEC2",
      "componentType": 5126,
      "count": 13416,
      "bufferView": 4,
      "byteOffset": 24
    },
    {
      "type": "VEC3",
      "componentType": 5126,
      "count": 692,
      "max": [
        1.5111743211746216,
        1.5092148780822754,
        0.10050597041845322
      ],
      "min": [
        -1.5111743211746216,
        -1.5092148780822754,
        -0.14246749877929688
      ],
      "bufferView": 5,
      "byteOffset": 0
    },
    {
      "type": "VEC3",
      "componentType": 5126,
      "count": 692,
      "bufferView": 5,
      "byteOffset": 12
    },
    {
      "type": "VEC2",
      "componentType": 5126,
      "count": 692,
      "bufferView": 5,
      "byteOffset": 24
    },
    {
      "type": "VEC3",
      "componentType": 5126,
      "count": 772,
      "max": [
        1.4511823654174805,
        -6.100000381469727,
        1.448747158050537
      ],
      "min": [
        -1.4511823654174805,
        -7.800000190734863,
        -1.448747158050537
      ],
      "bufferView": 6,
      "byteOffset": 0
    },
    {
      "type": "VEC3",
      "componentType": 5126,
      "count": 772,
      "bufferView": 6,
      "byteOffset": 12
    },
    {
      "type": "VEC2",
      "componentType": 5126,
      "count": 772,
      "bufferView": 6,
      "byteOffset": 24
    },
    {
      "type": "VEC3",
      "componentType": 5126,
      "count": 280,
      "max": [
        3.924820899963379,
        -4.25,
        1.2250821590423584
      ],
      "min": [
        -3.924820899963379,
        -12.25,
        -1.2250795364379883
      ],
      "bufferView": 7,
      "byteOffset": 0
    },
    {
      "type": "VEC3",
      "componentType": 5126,
      "count": 280,
      "bufferView": 7,
      "byteOffset": 12
    },
    {
      "type": "VEC2",
      "componentType": 5126,
      "count": 280,
      "bufferView": 7,
      "byteOffset": 24
    },
    {
      "type": "VEC3",
      "componentType": 5126,
      "count": 1096,
      "max": [
        3.924820899963379,
        -4.25,
        1.9150753021240234
      ],
      "min": [
        -3.924820899963379,
        -12.25,
        -1.9155337810516357
      ],
      "bufferView": 8,
      "byteOffset": 0
    },
    {
      "type": "VEC3",
      "componentType": 5126,
      "count": 1096,
      "bufferView": 8,
      "byteOffset": 12
    },
    {
      "type": "VEC2",
      "componentType": 5126,
      "count": 1096,
      "bufferView": 8,
      "byteOffset": 24
    }
  ],
  "bufferViews": [
    {
      "buffer": 0,
      "byteOffset": 0,
      "byteLength": 204
    },
    {
      "buffer": 0,
      "byteOffset": 204,
      "byteLength": 93072,
      "target": 34963
    },
    {
      "buffer": 0,
      "byteOffset": 93276,
      "byteLength": 106496,
      "byteStride": 32,
      "target": 34962
    },
    {
      "buffer": 0,
      "byteOffset": 199772,
      "byteLength": 26112,
      "byteStride": 32,
      "target": 34962
    },
    {
      "buffer": 0,
      "byteOffset": 225884,
      "byteLength": 429312,
      "byteStride": 32,
      "target": 34962
    },
    {
      "buffer": 0,
      "byteOffset": 655196,
      "byteLength": 22144,
      "byteStride": 32,
      "target": 34962
    },
    {
      "buffer": 0,
      "byteOffset": 677340,
      "byteLength": 24704,
      "byteStride": 32,
      "target": 34962
    },
    {
      "buffer": 0,
      "byteOffset": 702044,
      "byteLength": 8960,
      "byteStride": 32,
      "target": 34962
    },
    {
      "buffer": 0,
      "byteOffset": 711004,
      "byteLength": 35072,
      "byteStride": 32,
      "target": 34962
    }
  ],
  "samplers": [
    {
      "magFilter": 9729,
      "minFilter": 9987,
      "wrapS": 10497,
      "wrapT": 10497
    }
  ],
  "textures": [
    {
      "sampler": 0,
      "extensions": {
        "EXT_texture_webp": {
          "source": 2
        }
      }
    },
    {
      "sampler": 0,
      "extensions": {
        "EXT_texture_webp": {
          "source": 0
        }
      }
    },
    {
      "sampler": 0,
      "extensions": {
        "EXT_texture_webp": {
          "source": 1
        }
      }
    },
    {
      "sampler": 0,
      "extensions": {
        "EXT_texture_webp": {
          "source": 3
        }
      }
    },
    {
      "sampler": 0,
      "extensions": {
        "EXT_texture_webp": {
          "source": 4
        }
      }
    },
    {
      "sampler": 0,
      "extensions": {
        "EXT_texture_webp": {
          "source": 5
        }
      }
    },
    {
      "sampler": 0,
      "extensions": {
        "EXT_texture_webp": {
          "source": 8
        }
      }
    },
    {
      "sampler": 0,
      "extensions": {
        "EXT_texture_webp": {
          "source": 6
        }
      }
    },
    {
      "sampler": 0,
      "extensions": {
        "EXT_texture_webp": {
          "source": 7
        }
      }
    },
    {
      "sampler": 0,
      "extensions": {
        "EXT_texture_webp": {
          "source": 9
        }
      }
    },
    {
      "sampler": 0,
      "extensions": {
        "EXT_texture_webp": {
          "source": 10
        }
      }
    },
    {
      "sampler": 0,
      "extensions": {
        "EXT_texture_webp": {
          "source": 11
        }
      }
    }
  ],
  "images": [
    {
      "name": "zebra_barrel_emission",
      "mimeType": "image/webp",
      "uri": "zebra_barrel_emission.webp"
    },
    {
      "name": "zebra_barrel_normal",
      "mimeType": "image/webp",
      "uri": "zebra_barrel_normal.webp"
    },
    {
      "name": "zebra_barrel_diffuse",
      "mimeType": "image/webp",
      "uri": "zebra_barrel_diffuse.webp"
    },
    {
      "name": "zebra_barrel_metallic-zebra_barrel_roughness",
      "mimeType": "image/webp",
      "uri": "zebra_barrel_metallic-zebra_barrel_roughness.webp"
    },
    {
      "name": "unnamedmetal04",
      "mimeType": "image/webp",
      "uri": "unnamedmetal04.webp"
    },
    {
      "name": "unnamedmetal04_s",
      "mimeType": "image/webp",
      "uri": "unnamedmetal04_s.webp"
    },
    {
      "name": "zebra_emission",
      "mimeType": "image/webp",
      "uri": "zebra_emission.webp"
    },
    {
      "name": "zebra_normal",
      "mimeType": "image/webp",
      "uri": "zebra_normal.webp"
    },
    {
      "name": "zebra_diffuse",
      "mimeType": "image/webp",
      "uri": "zebra_diffuse.webp"
    },
    {
      "name": "zebra_metallic-zebra_roughness",
      "mimeType": "image/webp",
      "uri": "zebra_metallic-zebra_roughness.webp"
    },
    {
      "name": "gradient_cyan",
      "mimeType": "image/webp",
      "uri": "gradient_cyan.webp"
    },
    {
      "name": "gradient_blue_orange",
      "mimeType": "image/webp",
      "uri": "gradient_blue_orange.webp"
    }
  ],
  "buffers": [
    {
      "uri": "zebra.bin",
      "byteLength": 746076
    }
  ],
  "materials": [
    {
      "name": "Material.001",
      "pbrMetallicRoughness": {
        "baseColorTexture": {
          "index": 0
        },
        "metallicRoughnessTexture": {
          "index": 3
        }
      },
      "emissiveFactor": [
        1,
        1,
        1
      ],
      "emissiveTexture": {
        "index": 1
      },
      "normalTexture": {
        "index": 2
      }
    },
    {
      "name": "metal",
      "pbrMetallicRoughness": {
        "roughnessFactor": 0.33329999446868896,
        "baseColorTexture": {
          "index": 4
        },
        "metallicRoughnessTexture": {
          "index": 5
        }
      }
    },
    {
      "name": "Material",
      "pbrMetallicRoughness": {
        "baseColorTexture": {
          "index": 6
        },
        "metallicRoughnessTexture": {
          "index": 9
        }
      },
      "emissiveFactor": [
        1,
        1,
        1
      ],
      "emissiveTexture": {
        "index": 7
      },
      "normalTexture": {
        "index": 8,
        "scale": 0.10000000149011612
      }
    },
    {
      "name": "engine glow.001",
      "alphaMode": "BLEND",
      "pbrMetallicRoughness": {
        "roughnessFactor": 0.5,
        "metallicFactor": 0,
        "baseColorTexture": {
          "index": 10
        }
      },
      "emissiveFactor": [
        0.09084168076515198,
        0.41254284977912903,
        0.8962695002555847
      ]
    },
    {
      "name": "engine_glow_melendez",
      "alphaMode": "BLEND",
      "pbrMetallicRoughness": {
        "roughnessFactor": 0.75,
        "metallicFactor": 0,
        "baseColorTexture": {
          "index": 11
        }
      },
      "emissiveFactor": [
        1,
        1,
        1
      ],
      "emissiveTexture": {
        "index": 11
      }
    }
  ],
  "meshes": [
    {
      "name": "Cylinder.001",
      "primitives": [
        {
          "attributes": {
            "POSITION": 15,
            "NORMAL": 16,
            "TEXCOORD_0": 17
          },
          "mode": 4,
          "material": 0,
          "indices": 8
        }
      ]
    },
    {
      "name": "Cylinder.017",
      "primitives": [
        {
          "attributes": {
            "POSITION": 18,
            "NORMAL": 19,
            "TEXCOORD_0": 20
          },
          "mode": 4,
          "material": 1,
          "indices": 9
        }
      ]
    },
    {
      "name": "Cylinder.013",
      "primitives": [
        {
          "attributes": {
            "POSITION": 21,
            "NORMAL": 22,
            "TEXCOORD_0": 23
          },
          "mode": 4,
          "material": 2,
          "indices": 10
        }
      ]
    },
    {
      "name": "Sphere.001",
      "primitives": [
        {
          "attributes": {
            "POSITION": 24,
            "NORMAL": 25,
            "TEXCOORD_0": 26
          },
          "mode": 4,
          "material": 3,
          "indices": 11
        }
      ]
    },
    {
      "name": "Cylinder.002",
      "primitives": [
        {
          "attributes": {
            "POSITION": 27,
            "NORMAL": 28,
            "TEXCOORD_0": 29
          },
          "mode": 4,
          "material": 4,
          "indices": 12
        }
      ]
    },
    {
      "name": "Cylinder.018",
      "primitives": [
        {
          "attributes": {
            "POSITION": 30,
            "NORMAL": 31,
            "TEXCOORD_0": 32
          },
          "mode": 4,
          "material": 1,
          "indices": 13
        }
      ]
    },
    {
      "name": "Cylinder.018",
      "primitives": [
        {
          "attributes": {
            "POSITION": 33,
            "NORMAL": 34,
            "TEXCOORD_0": 35
          },
          "mode": 4,
          "material": 1,
          "indices": 14
        }
      ]
    }
  ],
  "nodes": [
    {
      "name": "Bone",
      "translation": [
        0,
        0,
        5
      ],
      "rotation": [
        -0.6339889168739319,
        0,
        0,
        0.7733421921730042
      ]
    },
    {
      "name": "BarrelLP",
      "translation": [
        0,
        10,
        0
      ],
      "rotation": [
        2.060208537102426e-8,
        -0.3338069021701813,
        7.29558147227749e-9,
        0.9426414370536804
      ],
      "mesh": 0
    },
    {
      "name": "CylindersLP",
      "translation": [
        0,
        10,
        0
      ],
      "rotation": [
        -0.6665481925010681,
        -0.23603712022304535,
        -0.23603712022304535,
        0.6665481925010681
      ],
      "mesh": 1
    },
    {
      "name": "Bone.001",
      "translation": [
        0,
        0,
        -10
      ],
      "rotation": [
        0,
        0.7071067690849304,
        0.7071067690849304,
        0
      ],
      "children": [
        1,
        2
      ]
    },
    {
      "name": "Armature",
      "children": [
        0,
        3
      ]
    },
    {
      "name": "Cylinder.001",
      "translation": [
        0,
        0,
        8
      ],
      "rotation": [
        0,
        -0.7071068286895752,
        0.7071068286895752,
        3.090862321641907e-8
      ],
      "scale": [
        -1,
        -1,
        -1
      ],
      "mesh": 5
    },
    {
      "name": "base",
      "rotation": [
        0,
        0,
        -0.7071068286895752,
        0.7071068286895752
      ],
      "scale": [
        1.100000023841858,
        1.100000023841858,
        2
      ],
      "mesh": 2
    },
    {
      "name": "EngineGlow",
      "translation": [
        0,
        0,
        -6.309999942779541
      ],
      "scale": [
        1,
        1,
        1.5
      ],
      "mesh": 3
    },
    {
      "name": "EngineBeam",
      "translation": [
        0,
        0,
        -0.11701447516679764
      ],
      "rotation": [
        0.7071068286895752,
        0,
        0,
        0.7071068286895752
      ],
      "mesh": 4
    },
    {
      "name": "base",
      "rotation": [
        0,
        0,
        -0.7071068286895752,
        0.7071068286895752
      ],
      "scale": [
        1.100000023841858,
        1.100000023841858,
        2
      ],
      "mesh": 2
    },
    {
      "name": "Cylinder.001",
      "translation": [
        0,
        0,
        8
      ],
      "rotation": [
        0,
        -0.7071068286895752,
        0.7071068286895752,
        3.090862321641907e-8
      ],
      "scale": [
        -1,
        -1,
        -1
      ],
      "mesh": 6
    },
    {
      "name": "BarrelLP",
      "rotation": [
        0.23603712022304535,
        0.6665481925010681,
        0.6665481925010681,
        0.23603712022304535
      ],
      "mesh": 0
    }
  ],
  "animations": [
    {
      "name": "ArmatureAction",
      "samplers": [
        {
          "input": 0,
          "output": 1,
          "interpolation": "STEP"
        },
        {
          "input": 0,
          "output": 2,
          "interpolation": "STEP"
        },
        {
          "input": 0,
          "output": 3,
          "interpolation": "STEP"
        },
        {
          "input": 0,
          "output": 4,
          "interpolation": "STEP"
        },
        {
          "input": 0,
          "output": 5,
          "interpolation": "STEP"
        },
        {
          "input": 0,
          "output": 3,
          "interpolation": "STEP"
        },
        {
          "input": 6,
          "output": 7,
          "interpolation": "LINEAR"
        }
      ],
      "channels": [
        {
          "sampler": 0,
          "target": {
            "node": 0,
            "path": "translation"
          }
        },
        {
          "sampler": 1,
          "target": {
            "node": 0,
            "path": "rotation"
          }
        },
        {
          "sampler": 2,
          "target": {
            "node": 0,
            "path": "scale"
          }
        },
        {
          "sampler": 3,
          "target": {
            "node": 3,
            "path": "translation"
          }
        },
        {
          "sampler": 4,
          "target": {
            "node": 3,
            "path": "rotation"
          }
        },
        {
          "sampler": 5,
          "target": {
            "node": 3,
            "path": "scale"
          }
        },
        {
          "sampler": 6,
          "target": {
            "node": 4,
            "path": "rotation"
          }
        }
      ]
    }
  ],
  "scenes": [
    {
      "name": "base",
      "nodes": [
        4,
        5,
        6
      ]
    },
    {
      "name": "engine",
      "nodes": [
        7,
        8,
        9,
        10,
        11
      ]
    }
  ],
  "scene": 1,
  "extensionsUsed": [
    "EXT_texture_webp"
  ],
  "extensionsRequired": [
    "EXT_texture_webp"
  ]
}
