{
  "asset": {
    "generator": "glTF-Transform v4.0.1",
    "version": "2.0"
  },
  "accessors": [
    {
      "type": "SCALAR",
      "componentType": 5123,
      "count": 8064,
      "bufferView": 0,
      "byteOffset": 0
    },
    {
      "type": "SCALAR",
      "componentType": 5123,
      "count": 27504,
      "bufferView": 0,
      "byteOffset": 16128
    },
    {
      "type": "SCALAR",
      "componentType": 5123,
      "count": 3264,
      "bufferView": 0,
      "byteOffset": 71136
    },
    {
      "type": "SCALAR",
      "componentType": 5123,
      "count": 1512,
      "bufferView": 0,
      "byteOffset": 77664
    },
    {
      "type": "SCALAR",
      "componentType": 5123,
      "count": 3096,
      "bufferView": 0,
      "byteOffset": 80688
    },
    {
      "type": "VEC3",
      "componentType": 5126,
      "count": 3328,
      "max": [
        1.9904214143753052,
        5,
        1.9904214143753052
      ],
      "min": [
        -1.9904214143753052,
        -5,
        -1.9904215335845947
      ],
      "bufferView": 1,
      "byteOffset": 0
    },
    {
      "type": "VEC3",
      "componentType": 5126,
      "count": 3328,
      "bufferView": 1,
      "byteOffset": 12
    },
    {
      "type": "VEC2",
      "componentType": 5126,
      "count": 3328,
      "bufferView": 1,
      "byteOffset": 24
    },
    {
      "type": "VEC3",
      "componentType": 5126,
      "count": 13416,
      "max": [
        1.999999761581421,
        3.545454502105713,
        3.625
      ],
      "min": [
        -1.999999761581421,
        -3.545454502105713,
        -3.125
      ],
      "bufferView": 2,
      "byteOffset": 0
    },
    {
      "type": "VEC3",
      "componentType": 5126,
      "count": 13416,
      "bufferView": 2,
      "byteOffset": 12
    },
    {
      "type": "VEC2",
      "componentType": 5126,
      "count": 13416,
      "bufferView": 2,
      "byteOffset": 24
    },
    {
      "type": "VEC3",
      "componentType": 5126,
      "count": 692,
      "max": [
        1.5111743211746216,
        1.5092148780822754,
        0.10050597041845322
      ],
      "min": [
        -1.5111743211746216,
        -1.5092148780822754,
        -0.14246749877929688
      ],
      "bufferView": 3,
      "byteOffset": 0
    },
    {
      "type": "VEC3",
      "componentType": 5126,
      "count": 692,
      "bufferView": 3,
      "byteOffset": 12
    },
    {
      "type": "VEC2",
      "componentType": 5126,
      "count": 692,
      "bufferView": 3,
      "byteOffset": 24
    },
    {
      "type": "VEC3",
      "componentType": 5126,
      "count": 772,
      "max": [
        1.4511823654174805,
        -6.100000381469727,
        1.448747158050537
      ],
      "min": [
        -1.4511823654174805,
        -7.800000190734863,
        -1.448747158050537
      ],
      "bufferView": 4,
      "byteOffset": 0
    },
    {
      "type": "VEC3",
      "componentType": 5126,
      "count": 772,
      "bufferView": 4,
      "byteOffset": 12
    },
    {
      "type": "VEC2",
      "componentType": 5126,
      "count": 772,
      "bufferView": 4,
      "byteOffset": 24
    },
    {
      "type": "VEC3",
      "componentType": 5126,
      "count": 1096,
      "max": [
        3.924820899963379,
        -4.25,
        1.9250807762145996
      ],
      "min": [
        -3.924820899963379,
        -12.25,
        -1.9250785112380981
      ],
      "bufferView": 5,
      "byteOffset": 0
    },
    {
      "type": "VEC3",
      "componentType": 5126,
      "count": 1096,
      "bufferView": 5,
      "byteOffset": 12
    },
    {
      "type": "VEC2",
      "componentType": 5126,
      "count": 1096,
      "bufferView": 5,
      "byteOffset": 24
    }
  ],
  "bufferViews": [
    {
      "buffer": 0,
      "byteOffset": 0,
      "byteLength": 86880,
      "target": 34963
    },
    {
      "buffer": 0,
      "byteOffset": 86880,
      "byteLength": 106496,
      "byteStride": 32,
      "target": 34962
    },
    {
      "buffer": 0,
      "byteOffset": 193376,
      "byteLength": 429312,
      "byteStride": 32,
      "target": 34962
    },
    {
      "buffer": 0,
      "byteOffset": 622688,
      "byteLength": 22144,
      "byteStride": 32,
      "target": 34962
    },
    {
      "buffer": 0,
      "byteOffset": 644832,
      "byteLength": 24704,
      "byteStride": 32,
      "target": 34962
    },
    {
      "buffer": 0,
      "byteOffset": 669536,
      "byteLength": 35072,
      "byteStride": 32,
      "target": 34962
    }
  ],
  "samplers": [
    {
      "magFilter": 9729,
      "minFilter": 9987,
      "wrapS": 10497,
      "wrapT": 10497
    }
  ],
  "textures": [
    {
      "source": 1,
      "sampler": 0
    },
    {
      "source": 0,
      "sampler": 0
    },
    {
      "source": 2,
      "sampler": 0
    },
    {
      "source": 3,
      "sampler": 0
    },
    {
      "source": 4,
      "sampler": 0
    },
    {
      "source": 7,
      "sampler": 0
    },
    {
      "source": 5,
      "sampler": 0
    },
    {
      "source": 6,
      "sampler": 0
    },
    {
      "source": 8,
      "sampler": 0
    },
    {
      "source": 9,
      "sampler": 0
    },
    {
      "source": 10,
      "sampler": 0
    }
  ],
  "images": [
    {
      "name": "zebra_barrel_emission",
      "mimeType": "image/png",
      "uri": "zebra_barrel_emission.png"
    },
    {
      "name": "zebra_barrel_diffuse",
      "mimeType": "image/png",
      "uri": "zebra_barrel_diffuse.png"
    },
    {
      "name": "zebra_barrel_metallic-zebra_barrel_roughness",
      "mimeType": "image/png",
      "uri": "zebra_barrel_metallic-zebra_barrel_roughness.png"
    },
    {
      "name": "unnamedmetal04",
      "mimeType": "image/png",
      "uri": "unnamedmetal04.png"
    },
    {
      "name": "unnamedmetal04_s",
      "mimeType": "image/png",
      "uri": "unnamedmetal04_s.png"
    },
    {
      "name": "zebra_emission",
      "mimeType": "image/png",
      "uri": "zebra_emission.png"
    },
    {
      "name": "zebra_normal",
      "mimeType": "image/png",
      "uri": "zebra_normal.png"
    },
    {
      "name": "zebra_diffuse",
      "mimeType": "image/png",
      "uri": "zebra_diffuse.png"
    },
    {
      "name": "zebra_metallic-zebra_roughness",
      "mimeType": "image/png",
      "uri": "zebra_metallic-zebra_roughness.png"
    },
    {
      "name": "gradient_cyan",
      "mimeType": "image/png",
      "uri": "gradient_cyan.png"
    },
    {
      "name": "gradient_blue_orange",
      "mimeType": "image/png",
      "uri": "gradient_blue_orange.png"
    }
  ],
  "buffers": [
    {
      "uri": "zebra.bin",
      "byteLength": 704608
    }
  ],
  "materials": [
    {
      "name": "Material.001",
      "pbrMetallicRoughness": {
        "baseColorTexture": {
          "index": 0
        },
        "metallicRoughnessTexture": {
          "index": 2
        }
      },
      "emissiveFactor": [
        1,
        1,
        1
      ],
      "emissiveTexture": {
        "index": 1
      }
    },
    {
      "name": "metal",
      "pbrMetallicRoughness": {
        "roughnessFactor": 0.33329999446868896,
        "baseColorTexture": {
          "index": 3
        },
        "metallicRoughnessTexture": {
          "index": 4
        }
      }
    },
    {
      "name": "Material",
      "pbrMetallicRoughness": {
        "baseColorTexture": {
          "index": 5
        },
        "metallicRoughnessTexture": {
          "index": 8
        }
      },
      "emissiveFactor": [
        1,
        1,
        1
      ],
      "emissiveTexture": {
        "index": 6
      },
      "normalTexture": {
        "index": 7,
        "scale": 0.10000000149011612
      }
    },
    {
      "name": "engine glow.001",
      "alphaMode": "BLEND",
      "pbrMetallicRoughness": {
        "roughnessFactor": 0.5,
        "metallicFactor": 0,
        "baseColorTexture": {
          "index": 9
        }
      },
      "emissiveFactor": [
        0.09084168076515198,
        0.41254284977912903,
        0.8962695002555847
      ]
    },
    {
      "name": "engine_glow_melendez",
      "alphaMode": "BLEND",
      "pbrMetallicRoughness": {
        "roughnessFactor": 0.75,
        "metallicFactor": 0,
        "baseColorTexture": {
          "index": 10
        }
      },
      "emissiveFactor": [
        1,
        1,
        1
      ],
      "emissiveTexture": {
        "index": 10
      }
    }
  ],
  "meshes": [
    {
      "name": "Cylinder.001",
      "primitives": [
        {
          "attributes": {
            "POSITION": 5,
            "NORMAL": 6,
            "TEXCOORD_0": 7
          },
          "mode": 4,
          "material": 0,
          "indices": 0
        }
      ]
    },
    {
      "name": "Cylinder.013",
      "primitives": [
        {
          "attributes": {
            "POSITION": 8,
            "NORMAL": 9,
            "TEXCOORD_0": 10
          },
          "mode": 4,
          "material": 2,
          "indices": 1
        }
      ]
    },
    {
      "name": "Sphere.001",
      "primitives": [
        {
          "attributes": {
            "POSITION": 11,
            "NORMAL": 12,
            "TEXCOORD_0": 13
          },
          "mode": 4,
          "material": 3,
          "indices": 2
        }
      ]
    },
    {
      "name": "Cylinder.002",
      "primitives": [
        {
          "attributes": {
            "POSITION": 14,
            "NORMAL": 15,
            "TEXCOORD_0": 16
          },
          "mode": 4,
          "material": 4,
          "indices": 3
        }
      ]
    },
    {
      "name": "Cylinder.018",
      "primitives": [
        {
          "attributes": {
            "POSITION": 17,
            "NORMAL": 18,
            "TEXCOORD_0": 19
          },
          "mode": 4,
          "material": 1,
          "indices": 4
        }
      ]
    },
    {
      "name": "Cylinder.018",
      "primitives": [
        {
          "attributes": {
            "POSITION": 17,
            "NORMAL": 18,
            "TEXCOORD_0": 19
          },
          "mode": 4,
          "material": 1,
          "indices": 4
        }
      ]
    }
  ],
  "nodes": [
    {
      "name": "BarrelLP",
      "rotation": [
        0.7071068286895752,
        0,
        0,
        0.7071068286895752
      ],
      "mesh": 0
    },
    {
      "name": "Cylinder.001",
      "translation": [
        0,
        0,
        8
      ],
      "rotation": [
        0,
        -0.7071068286895752,
        0.7071068286895752,
        3.090862321641907e-8
      ],
      "scale": [
        -1,
        -1,
        -1
      ],
      "mesh": 4
    },
    {
      "name": "base",
      "rotation": [
        0,
        0,
        -0.7071068286895752,
        0.7071068286895752
      ],
      "scale": [
        1.100000023841858,
        1.100000023841858,
        2
      ],
      "mesh": 1
    },
    {
      "name": "EngineGlow",
      "translation": [
        0,
        0,
        -6.309999942779541
      ],
      "scale": [
        1,
        1,
        1.5
      ],
      "mesh": 2
    },
    {
      "name": "EngineBeam",
      "translation": [
        0,
        0,
        -0.11701447516679764
      ],
      "rotation": [
        0.7071068286895752,
        0,
        0,
        0.7071068286895752
      ],
      "mesh": 3
    },
    {
      "name": "base",
      "rotation": [
        0,
        0,
        -0.7071068286895752,
        0.7071068286895752
      ],
      "scale": [
        1.100000023841858,
        1.100000023841858,
        2
      ],
      "mesh": 1
    },
    {
      "name": "Cylinder.001",
      "translation": [
        0,
        0,
        8
      ],
      "rotation": [
        0,
        -0.7071068286895752,
        0.7071068286895752,
        3.090862321641907e-8
      ],
      "scale": [
        -1,
        -1,
        -1
      ],
      "mesh": 5
    },
    {
      "name": "BarrelLP",
      "rotation": [
        0.7071068286895752,
        0,
        0,
        0.7071068286895752
      ],
      "mesh": 0
    }
  ],
  "scenes": [
    {
      "name": "base",
      "nodes": [
        0,
        1,
        2
      ]
    },
    {
      "name": "engine",
      "nodes": [
        3,
        4,
        5,
        6,
        7
      ]
    }
  ],
  "scene": 0
}
