{
  "asset": {
    "generator": "glTF-Transform v3.10.0",
    "version": "2.0"
  },
  "accessors": [
    {
      "type": "SCALAR",
      "componentType": 5123,
      "count": 18384,
      "bufferView": 0,
      "byteOffset": 0
    },
    {
      "type": "SCALAR",
      "componentType": 5123,
      "count": 4320,
      "bufferView": 0,
      "byteOffset": 36768
    },
    {
      "type": "SCALAR",
      "componentType": 5123,
      "count": 10296,
      "bufferView": 0,
      "byteOffset": 45408
    },
    {
      "type": "SCALAR",
      "componentType": 5123,
      "count": 5160,
      "bufferView": 0,
      "byteOffset": 66000
    },
    {
      "type": "SCALAR",
      "componentType": 5123,
      "count": 1728,
      "bufferView": 0,
      "byteOffset": 76320
    },
    {
      "type": "VEC3",
      "componentType": 5126,
      "count": 11444,
      "max": [
        18.18770408630371,
        52.735877990722656,
        2.8027663230895996
      ],
      "min": [
        -8.89285945892334,
        -64.19994354248047,
        -5.590848922729492
      ],
      "bufferView": 1,
      "byteOffset": 0
    },
    {
      "type": "VEC3",
      "componentType": 5126,
      "count": 11444,
      "bufferView": 1,
      "byteOffset": 12
    },
    {
      "type": "VEC2",
      "componentType": 5126,
      "count": 11444,
      "bufferView": 1,
      "byteOffset": 24
    },
    {
      "type": "VEC3",
      "componentType": 5126,
      "count": 2543,
      "max": [
        16.339248657226562,
        41.37837219238281,
        5.078283309936523
      ],
      "min": [
        -9.778509140014648,
        -43.03533172607422,
        -4.711254596710205
      ],
      "bufferView": 2,
      "byteOffset": 0
    },
    {
      "type": "VEC3",
      "componentType": 5126,
      "count": 2543,
      "bufferView": 2,
      "byteOffset": 12
    },
    {
      "type": "VEC2",
      "componentType": 5126,
      "count": 2543,
      "bufferView": 2,
      "byteOffset": 24
    },
    {
      "type": "VEC3",
      "componentType": 5126,
      "count": 7056,
      "max": [
        13.6088228225708,
        35.39915084838867,
        2.668910264968872
      ],
      "min": [
        -8.371711730957031,
        -42.73957061767578,
        -3.176560163497925
      ],
      "bufferView": 3,
      "byteOffset": 0
    },
    {
      "type": "VEC3",
      "componentType": 5126,
      "count": 7056,
      "bufferView": 3,
      "byteOffset": 12
    },
    {
      "type": "VEC2",
      "componentType": 5126,
      "count": 7056,
      "bufferView": 3,
      "byteOffset": 24
    },
    {
      "type": "VEC3",
      "componentType": 5126,
      "count": 3063,
      "max": [
        13.35673713684082,
        36.475887298583984,
        2.5501983165740967
      ],
      "min": [
        -5.322986602783203,
        -43.36528015136719,
        -3.0166499614715576
      ],
      "bufferView": 4,
      "byteOffset": 0
    },
    {
      "type": "VEC3",
      "componentType": 5126,
      "count": 3063,
      "bufferView": 4,
      "byteOffset": 12
    },
    {
      "type": "VEC2",
      "componentType": 5126,
      "count": 3063,
      "bufferView": 4,
      "byteOffset": 24
    },
    {
      "type": "VEC3",
      "componentType": 5126,
      "count": 300,
      "max": [
        4.50744104385376,
        6.122696876525879,
        1.9848989248275757
      ],
      "min": [
        -4.208591461181641,
        3.627006769180298,
        -3.8195390701293945
      ],
      "bufferView": 5,
      "byteOffset": 0
    },
    {
      "type": "VEC3",
      "componentType": 5126,
      "count": 300,
      "bufferView": 5,
      "byteOffset": 12
    },
    {
      "type": "VEC2",
      "componentType": 5126,
      "count": 300,
      "bufferView": 5,
      "byteOffset": 24
    }
  ],
  "bufferViews": [
    {
      "buffer": 0,
      "byteOffset": 0,
      "byteLength": 79776,
      "target": 34963
    },
    {
      "buffer": 0,
      "byteOffset": 79776,
      "byteLength": 366208,
      "byteStride": 32,
      "target": 34962
    },
    {
      "buffer": 0,
      "byteOffset": 445984,
      "byteLength": 81376,
      "byteStride": 32,
      "target": 34962
    },
    {
      "buffer": 0,
      "byteOffset": 527360,
      "byteLength": 225792,
      "byteStride": 32,
      "target": 34962
    },
    {
      "buffer": 0,
      "byteOffset": 753152,
      "byteLength": 98016,
      "byteStride": 32,
      "target": 34962
    },
    {
      "buffer": 0,
      "byteOffset": 851168,
      "byteLength": 9600,
      "byteStride": 32,
      "target": 34962
    }
  ],
  "samplers": [
    {
      "magFilter": 9729,
      "minFilter": 9987,
      "wrapS": 10497,
      "wrapT": 10497
    }
  ],
  "textures": [
    {
      "source": 0,
      "sampler": 0
    },
    {
      "source": 1,
      "sampler": 0
    },
    {
      "source": 2,
      "sampler": 0
    },
    {
      "source": 4,
      "sampler": 0
    },
    {
      "source": 3,
      "sampler": 0
    },
    {
      "source": 5,
      "sampler": 0
    }
  ],
  "images": [
    {
      "name": "hull_VDarkGray",
      "mimeType": "image/png",
      "uri": "hull_VDarkGray.png"
    },
    {
      "name": "Cracked_Flesh_DarkRed",
      "mimeType": "image/png",
      "uri": "Cracked_Flesh_DarkRed.png"
    },
    {
      "name": "OrangeExaust",
      "mimeType": "image/png",
      "uri": "OrangeExaust.png"
    },
    {
      "name": "RedBrownVeinedFlesh_glow",
      "mimeType": "image/png",
      "uri": "RedBrownVeinedFlesh_glow.png"
    },
    {
      "name": "RedBrownVeinedFlesh",
      "mimeType": "image/png",
      "uri": "RedBrownVeinedFlesh.png"
    },
    {
      "name": "gradient_soromid",
      "mimeType": "image/png",
      "uri": "gradient_soromid.png"
    }
  ],
  "buffers": [
    {
      "uri": "nyx.bin",
      "byteLength": 860768
    }
  ],
  "materials": [
    {
      "name": "soromid_hull",
      "pbrMetallicRoughness": {
        "roughnessFactor": 0.6000000238418579,
        "metallicFactor": 0.20000000298023224,
        "baseColorTexture": {
          "index": 0
        }
      }
    },
    {
      "name": "soromid_carapace",
      "pbrMetallicRoughness": {
        "roughnessFactor": 0.75,
        "metallicFactor": 0,
        "baseColorTexture": {
          "index": 1
        }
      }
    },
    {
      "name": "soromid_glow",
      "alphaMode": "BLEND",
      "pbrMetallicRoughness": {
        "baseColorFactor": [
          0.4171862304210663,
          0.28630998730659485,
          0.013797817751765251,
          1
        ],
        "roughnessFactor": 0.5,
        "metallicFactor": 0,
        "baseColorTexture": {
          "index": 2
        }
      },
      "emissiveFactor": [
        1,
        1,
        1
      ],
      "emissiveTexture": {
        "index": 2
      },
      "extensions": {
        "KHR_materials_emissive_strength": {
          "emissiveStrength": 2
        }
      }
    },
    {
      "name": "soromid_flesh",
      "pbrMetallicRoughness": {
        "roughnessFactor": 0.8999999761581421,
        "metallicFactor": 0,
        "baseColorTexture": {
          "index": 3
        }
      },
      "emissiveFactor": [
        1,
        1,
        1
      ],
      "emissiveTexture": {
        "index": 4
      }
    },
    {
      "name": "soromid_engine_glow",
      "alphaMode": "BLEND",
      "pbrMetallicRoughness": {
        "roughnessFactor": 0.75,
        "metallicFactor": 0,
        "baseColorTexture": {
          "index": 5
        }
      },
      "emissiveFactor": [
        1,
        1,
        1
      ],
      "emissiveTexture": {
        "index": 5
      },
      "extensions": {
        "KHR_materials_emissive_strength": {
          "emissiveStrength": 2
        }
      }
    }
  ],
  "meshes": [
    {
      "name": "body",
      "primitives": [
        {
          "attributes": {
            "POSITION": 5,
            "NORMAL": 6,
            "TEXCOORD_0": 7
          },
          "mode": 4,
          "material": 0,
          "indices": 0
        },
        {
          "attributes": {
            "POSITION": 8,
            "NORMAL": 9,
            "TEXCOORD_0": 10
          },
          "mode": 4,
          "material": 1,
          "indices": 1
        },
        {
          "attributes": {
            "POSITION": 11,
            "NORMAL": 12,
            "TEXCOORD_0": 13
          },
          "mode": 4,
          "material": 2,
          "indices": 2
        },
        {
          "attributes": {
            "POSITION": 14,
            "NORMAL": 15,
            "TEXCOORD_0": 16
          },
          "mode": 4,
          "material": 3,
          "indices": 3
        }
      ]
    },
    {
      "name": "engine",
      "primitives": [
        {
          "attributes": {
            "POSITION": 17,
            "NORMAL": 18,
            "TEXCOORD_0": 19
          },
          "mode": 4,
          "material": 4,
          "indices": 4
        }
      ]
    }
  ],
  "nodes": [
    {
      "name": "body",
      "rotation": [
        0.034861575812101364,
        0.20918779075145721,
        -0.16064594686031342,
        0.9639596343040466
      ],
      "scale": [
        0.1772242784500122,
        0.027404028922319412,
        0.8492403030395508
      ],
      "mesh": 0
    },
    {
      "name": "engine",
      "rotation": [
        -0.6972904801368713,
        0.11741385608911514,
        -0.11741385608911514,
        0.6972904205322266
      ],
      "scale": [
        0.23469644784927368,
        0.6814495325088501,
        0.23469644784927368
      ],
      "mesh": 1
    },
    {
      "name": "body",
      "rotation": [
        0.034861575812101364,
        0.20918779075145721,
        -0.16064594686031342,
        0.9639596343040466
      ],
      "scale": [
        0.1772242784500122,
        0.027404028922319412,
        0.8492403030395508
      ],
      "mesh": 0
    }
  ],
  "scenes": [
    {
      "name": "base",
      "nodes": [
        0
      ]
    },
    {
      "name": "engine",
      "nodes": [
        1,
        2
      ]
    }
  ],
  "scene": 1,
  "extensionsUsed": [
    "KHR_materials_emissive_strength"
  ]
}
