{
  "asset": {
    "generator": "glTF-Transform v4.0.1",
    "version": "2.0"
  },
  "accessors": [
    {
      "type": "SCALAR",
      "componentType": 5123,
      "count": 2160,
      "bufferView": 0,
      "byteOffset": 0
    },
    {
      "type": "SCALAR",
      "componentType": 5123,
      "count": 174,
      "bufferView": 0,
      "byteOffset": 4320
    },
    {
      "type": "VEC3",
      "componentType": 5126,
      "count": 1099,
      "max": [
        1.4952852725982666,
        1.5499999523162842,
        1.0474516153335571
      ],
      "min": [
        -1.4952852725982666,
        -2.0384297370910645,
        -1.2319867610931396
      ],
      "bufferView": 1,
      "byteOffset": 0
    },
    {
      "type": "VEC3",
      "componentType": 5126,
      "count": 1099,
      "bufferView": 1,
      "byteOffset": 12
    },
    {
      "type": "VEC3",
      "componentType": 5126,
      "count": 128,
      "max": [
        1.4488887786865234,
        2.25,
        0.9999998807907104
      ],
      "min": [
        -1.4488887786865234,
        -1.25,
        -1.1999999284744263
      ],
      "bufferView": 2,
      "byteOffset": 0
    },
    {
      "type": "VEC3",
      "componentType": 5126,
      "count": 128,
      "bufferView": 2,
      "byteOffset": 12
    }
  ],
  "bufferViews": [
    {
      "buffer": 0,
      "byteOffset": 0,
      "byteLength": 4668,
      "target": 34963
    },
    {
      "buffer": 0,
      "byteOffset": 4668,
      "byteLength": 26376,
      "byteStride": 24,
      "target": 34962
    },
    {
      "buffer": 0,
      "byteOffset": 31044,
      "byteLength": 3072,
      "byteStride": 24,
      "target": 34962
    }
  ],
  "buffers": [
    {
      "uri": "apparition_fighter.bin",
      "byteLength": 34116
    }
  ],
  "materials": [
    {
      "name": "White",
      "alphaMode": "BLEND",
      "pbrMetallicRoughness": {
        "baseColorFactor": [
          0.800000011920929,
          0.800000011920929,
          0.800000011920929,
          0.5
        ],
        "metallicFactor": 0
      }
    },
    {
      "name": "Black",
      "pbrMetallicRoughness": {
        "baseColorFactor": [
          0,
          0,
          0,
          1
        ],
        "metallicFactor": 0
      }
    }
  ],
  "meshes": [
    {
      "name": "Cone.002",
      "primitives": [
        {
          "attributes": {
            "POSITION": 2,
            "NORMAL": 3
          },
          "mode": 4,
          "material": 1,
          "indices": 0
        }
      ]
    },
    {
      "name": "Cone",
      "primitives": [
        {
          "attributes": {
            "POSITION": 4,
            "NORMAL": 5
          },
          "mode": 4,
          "material": 0,
          "indices": 1
        }
      ]
    }
  ],
  "nodes": [
    {
      "name": "Cone.002",
      "translation": [
        0,
        -1.0076914236378798e-7,
        0.7500001007691424
      ],
      "rotation": [
        0.7071068286895689,
        0,
        0,
        0.7071067336835231
      ],
      "mesh": 0
    },
    {
      "name": "Cone",
      "rotation": [
        0.7071068286895752,
        0,
        0,
        0.7071068286895752
      ],
      "mesh": 1
    }
  ],
  "scenes": [
    {
      "name": "base",
      "nodes": [
        1,
        0
      ]
    }
  ],
  "scene": 0
}
