{
  "asset": {
    "generator": "glTF-Transform v4.0.0-alpha.5",
    "version": "2.0"
  },
  "accessors": [
    {
      "type": "SCALAR",
      "componentType": 5123,
      "count": 7398,
      "bufferView": 0,
      "byteOffset": 0
    },
    {
      "type": "SCALAR",
      "componentType": 5123,
      "count": 480,
      "bufferView": 0,
      "byteOffset": 14796
    },
    {
      "type": "VEC3",
      "componentType": 5126,
      "count": 3202,
      "max": [
        3.4582715034484863,
        7.1666669845581055,
        7.157464027404785
      ],
      "min": [
        -3.4582715034484863,
        -4.8333330154418945,
        -6.157464027404785
      ],
      "bufferView": 1,
      "byteOffset": 0
    },
    {
      "type": "VEC3",
      "componentType": 5126,
      "count": 3202,
      "bufferView": 1,
      "byteOffset": 12
    },
    {
      "type": "VEC2",
      "componentType": 5126,
      "count": 3202,
      "bufferView": 1,
      "byteOffset": 24
    },
    {
      "type": "VEC3",
      "componentType": 5126,
      "count": 98,
      "max": [
        1.2187319993972778,
        -1.8702738285064697,
        0.4082334339618683
      ],
      "min": [
        -1.2187317609786987,
        -4.008161544799805,
        -0.4082334339618683
      ],
      "bufferView": 2,
      "byteOffset": 0
    },
    {
      "type": "VEC3",
      "componentType": 5126,
      "count": 98,
      "bufferView": 2,
      "byteOffset": 12
    }
  ],
  "bufferViews": [
    {
      "buffer": 0,
      "byteOffset": 0,
      "byteLength": 15756,
      "target": 34963
    },
    {
      "buffer": 0,
      "byteOffset": 15756,
      "byteLength": 102464,
      "byteStride": 32,
      "target": 34962
    },
    {
      "buffer": 0,
      "byteOffset": 118220,
      "byteLength": 2352,
      "byteStride": 24,
      "target": 34962
    }
  ],
  "samplers": [
    {
      "magFilter": 9729,
      "minFilter": 9987,
      "wrapS": 10497,
      "wrapT": 10497
    }
  ],
  "textures": [
    {
      "source": 2,
      "sampler": 0
    },
    {
      "source": 0,
      "sampler": 0
    },
    {
      "source": 1,
      "sampler": 0
    },
    {
      "source": 3,
      "sampler": 0
    },
    {
      "source": 4,
      "sampler": 0
    }
  ],
  "images": [
    {
      "name": "fighter05_emission",
      "mimeType": "image/png",
      "uri": "fighter05_emission.png"
    },
    {
      "name": "fighter05_normal",
      "mimeType": "image/png",
      "uri": "fighter05_normal.png"
    },
    {
      "name": "fighter05_diffuse",
      "mimeType": "image/png",
      "uri": "fighter05_diffuse.png"
    },
    {
      "name": "GLO_bake",
      "mimeType": "image/png",
      "uri": "GLO_bake.png"
    },
    {
      "name": "AO_bake",
      "mimeType": "image/png",
      "uri": "AO_bake.png"
    }
  ],
  "buffers": [
    {
      "uri": "perspicacity.bin",
      "byteLength": 120572
    }
  ],
  "materials": [
    {
      "name": "base",
      "pbrMetallicRoughness": {
        "roughnessFactor": 0.5,
        "metallicFactor": 0.20000000298023224,
        "baseColorTexture": {
          "index": 0
        }
      },
      "emissiveFactor": [
        1,
        1,
        1
      ],
      "emissiveTexture": {
        "index": 1
      },
      "normalTexture": {
        "index": 2
      }
    },
    {
      "name": "base_glow",
      "pbrMetallicRoughness": {
        "roughnessFactor": 0.5,
        "metallicFactor": 0.20000000298023224,
        "baseColorTexture": {
          "index": 0
        }
      },
      "emissiveFactor": [
        1,
        1,
        1
      ],
      "emissiveTexture": {
        "index": 3
      },
      "normalTexture": {
        "index": 2
      },
      "occlusionTexture": {
        "index": 4
      }
    },
    {
      "name": "glow_standard",
      "extras": {
        "NAEV_noShadows": true
      },
      "alphaMode": "BLEND",
      "pbrMetallicRoughness": {
        "baseColorFactor": [
          0,
          0,
          0,
          1
        ]
      },
      "emissiveFactor": [
        0.0032543239649385214,
        0.19496029615402222,
        1
      ]
    }
  ],
  "meshes": [
    {
      "name": "base",
      "primitives": [
        {
          "attributes": {
            "POSITION": 2,
            "NORMAL": 3,
            "TEXCOORD_0": 4
          },
          "mode": 4,
          "material": 0,
          "indices": 0
        }
      ]
    },
    {
      "name": "base",
      "primitives": [
        {
          "attributes": {
            "POSITION": 2,
            "NORMAL": 3,
            "TEXCOORD_0": 4
          },
          "mode": 4,
          "material": 1,
          "indices": 0
        }
      ]
    },
    {
      "name": "glow",
      "primitives": [
        {
          "attributes": {
            "POSITION": 5,
            "NORMAL": 6
          },
          "mode": 4,
          "material": 2,
          "indices": 1
        }
      ]
    }
  ],
  "nodes": [
    {
      "name": "base",
      "rotation": [
        0.7071068286895752,
        0,
        0,
        0.7071068286895752
      ],
      "scale": [
        0.550000011920929,
        0.550000011920929,
        0.550000011920929
      ],
      "mesh": 0
    },
    {
      "name": "base_glow",
      "rotation": [
        0.7071068286895752,
        0,
        0,
        0.7071068286895752
      ],
      "scale": [
        0.550000011920929,
        0.550000011920929,
        0.550000011920929
      ],
      "mesh": 1
    },
    {
      "name": "glow",
      "rotation": [
        0.5,
        -0.5,
        -0.5,
        0.5
      ],
      "scale": [
        0.550000011920929,
        1.149999976158142,
        0.550000011920929
      ],
      "mesh": 2
    }
  ],
  "scenes": [
    {
      "name": "base",
      "nodes": [
        0
      ]
    },
    {
      "name": "engine",
      "nodes": [
        1,
        2
      ]
    }
  ],
  "scene": 0
}
