{
  "asset": {
    "generator": "glTF-Transform v4.0.1",
    "version": "2.0"
  },
  "accessors": [
    {
      "type": "SCALAR",
      "componentType": 5123,
      "count": 7464,
      "bufferView": 0,
      "byteOffset": 0
    },
    {
      "type": "SCALAR",
      "componentType": 5123,
      "count": 720,
      "bufferView": 0,
      "byteOffset": 14928
    },
    {
      "type": "VEC3",
      "componentType": 5126,
      "count": 5222,
      "max": [
        3.8884191513061523,
        0.6210267543792725,
        5.772916316986084
      ],
      "min": [
        -3.2139275074005127,
        -0.573008120059967,
        -4.141234874725342
      ],
      "bufferView": 1,
      "byteOffset": 0
    },
    {
      "type": "VEC3",
      "componentType": 5126,
      "count": 5222,
      "bufferView": 1,
      "byteOffset": 12
    },
    {
      "type": "VEC2",
      "componentType": 5126,
      "count": 5222,
      "bufferView": 1,
      "byteOffset": 24
    },
    {
      "type": "VEC3",
      "componentType": 5126,
      "count": 496,
      "max": [
        1.25,
        0.25,
        1.25
      ],
      "min": [
        -1.25,
        -2.239530324935913,
        -1.25
      ],
      "bufferView": 2,
      "byteOffset": 0
    },
    {
      "type": "VEC3",
      "componentType": 5126,
      "count": 496,
      "bufferView": 2,
      "byteOffset": 12
    },
    {
      "type": "VEC2",
      "componentType": 5126,
      "count": 496,
      "bufferView": 2,
      "byteOffset": 24
    }
  ],
  "bufferViews": [
    {
      "buffer": 0,
      "byteOffset": 0,
      "byteLength": 16368,
      "target": 34963
    },
    {
      "buffer": 0,
      "byteOffset": 16368,
      "byteLength": 167104,
      "byteStride": 32,
      "target": 34962
    },
    {
      "buffer": 0,
      "byteOffset": 183472,
      "byteLength": 15872,
      "byteStride": 32,
      "target": 34962
    }
  ],
  "samplers": [
    {
      "magFilter": 9729,
      "minFilter": 9987,
      "wrapS": 10497,
      "wrapT": 10497
    },
    {
      "magFilter": 9729,
      "minFilter": 9987,
      "wrapS": 33648,
      "wrapT": 33648
    }
  ],
  "textures": [
    {
      "sampler": 0,
      "extensions": {
        "EXT_texture_webp": {
          "source": 2
        }
      }
    },
    {
      "sampler": 0,
      "extensions": {
        "EXT_texture_webp": {
          "source": 0
        }
      }
    },
    {
      "sampler": 0,
      "extensions": {
        "EXT_texture_webp": {
          "source": 1
        }
      }
    },
    {
      "sampler": 1,
      "extensions": {
        "EXT_texture_webp": {
          "source": 3
        }
      }
    },
    {
      "sampler": 0,
      "extensions": {
        "EXT_texture_webp": {
          "source": 4
        }
      }
    }
  ],
  "images": [
    {
      "name": "zalek_heavy_droneGLO",
      "mimeType": "image/webp",
      "uri": "zalek_heavy_droneGLO.webp"
    },
    {
      "name": "AO_bake_heavy",
      "mimeType": "image/webp",
      "uri": "AO_bake_heavy.webp"
    },
    {
      "name": "zalek_heavy_drone",
      "mimeType": "image/webp",
      "uri": "zalek_heavy_drone.webp"
    },
    {
      "name": "zalek_glow",
      "mimeType": "image/webp",
      "uri": "zalek_glow.webp"
    },
    {
      "name": "GLO_bake_heavy",
      "mimeType": "image/webp",
      "uri": "GLO_bake_heavy.webp"
    }
  ],
  "buffers": [
    {
      "uri": "zalek_drone_heavy.bin",
      "byteLength": 199344
    }
  ],
  "materials": [
    {
      "name": "base",
      "pbrMetallicRoughness": {
        "roughnessFactor": 0.699999988079071,
        "metallicFactor": 0.30000001192092896,
        "baseColorTexture": {
          "index": 0
        }
      },
      "emissiveFactor": [
        1,
        1,
        1
      ],
      "emissiveTexture": {
        "index": 1
      },
      "occlusionTexture": {
        "index": 2
      }
    },
    {
      "name": "engine_glow_zalek_drone",
      "alphaMode": "BLEND",
      "pbrMetallicRoughness": {
        "metallicFactor": 0,
        "baseColorTexture": {
          "index": 3
        }
      },
      "emissiveFactor": [
        1,
        1,
        1
      ],
      "emissiveTexture": {
        "index": 3
      },
      "extensions": {
        "KHR_materials_emissive_strength": {
          "emissiveStrength": 2
        }
      }
    },
    {
      "name": "base_glow",
      "pbrMetallicRoughness": {
        "roughnessFactor": 0.699999988079071,
        "metallicFactor": 0.30000001192092896,
        "baseColorTexture": {
          "index": 0
        }
      },
      "emissiveFactor": [
        1,
        1,
        1
      ],
      "emissiveTexture": {
        "index": 4
      },
      "occlusionTexture": {
        "index": 2
      }
    }
  ],
  "meshes": [
    {
      "name": "base",
      "primitives": [
        {
          "attributes": {
            "POSITION": 2,
            "NORMAL": 3,
            "TEXCOORD_0": 4
          },
          "mode": 4,
          "material": 0,
          "indices": 0
        }
      ]
    },
    {
      "name": "glow_torus",
      "primitives": [
        {
          "attributes": {
            "POSITION": 5,
            "NORMAL": 6,
            "TEXCOORD_0": 7
          },
          "mode": 4,
          "material": 1,
          "indices": 1
        }
      ]
    },
    {
      "name": "base",
      "primitives": [
        {
          "attributes": {
            "POSITION": 2,
            "NORMAL": 3,
            "TEXCOORD_0": 4
          },
          "mode": 4,
          "material": 2,
          "indices": 0
        }
      ]
    }
  ],
  "nodes": [
    {
      "name": "base",
      "scale": [
        0.6400294303894043,
        3.8037219047546387,
        0.7812865972518921
      ],
      "mesh": 0
    },
    {
      "name": "glow_torus",
      "translation": [
        0,
        0,
        -3.0428876876831055
      ],
      "rotation": [
        0.7071068286895752,
        0,
        0,
        0.7071068286895752
      ],
      "scale": [
        0.9918009042739868,
        0.9918009042739868,
        0.9918009042739868
      ],
      "mesh": 1
    },
    {
      "name": "base_glow",
      "scale": [
        0.6400294303894043,
        3.8037219047546387,
        0.7812865972518921
      ],
      "mesh": 2
    }
  ],
  "scenes": [
    {
      "name": "base",
      "extras": {
        "BBB_props": {
          "image_settings": {},
          "guided_ui": 1,
          "dir_path": "//bake/"
        }
      },
      "nodes": [
        0
      ]
    },
    {
      "name": "engine",
      "nodes": [
        1,
        2
      ]
    }
  ],
  "scene": 0,
  "extensionsUsed": [
    "EXT_texture_webp",
    "KHR_materials_emissive_strength"
  ],
  "extensionsRequired": [
    "EXT_texture_webp"
  ]
}
