{
  "asset": {
    "generator": "glTF-Transform v4.0.1",
    "version": "2.0"
  },
  "accessors": [
    {
      "type": "SCALAR",
      "componentType": 5123,
      "count": 9156,
      "bufferView": 0,
      "byteOffset": 0
    },
    {
      "type": "SCALAR",
      "componentType": 5123,
      "count": 11976,
      "bufferView": 0,
      "byteOffset": 18312
    },
    {
      "type": "SCALAR",
      "componentType": 5123,
      "count": 13572,
      "bufferView": 0,
      "byteOffset": 42264
    },
    {
      "type": "SCALAR",
      "componentType": 5123,
      "count": 36090,
      "bufferView": 0,
      "byteOffset": 69408
    },
    {
      "type": "SCALAR",
      "componentType": 5123,
      "count": 14676,
      "bufferView": 0,
      "byteOffset": 141588
    },
    {
      "type": "SCALAR",
      "componentType": 5123,
      "count": 20166,
      "bufferView": 0,
      "byteOffset": 170940
    },
    {
      "type": "SCALAR",
      "componentType": 5123,
      "count": 1728,
      "bufferView": 0,
      "byteOffset": 211272
    },
    {
      "type": "VEC3",
      "componentType": 5126,
      "count": 5908,
      "max": [
        18.026716232299805,
        8.453449249267578,
        48.072837829589844
      ],
      "min": [
        -18.026716232299805,
        -11.205435752868652,
        -40.9844970703125
      ],
      "bufferView": 1,
      "byteOffset": 0
    },
    {
      "type": "VEC3",
      "componentType": 5126,
      "count": 5908,
      "bufferView": 1,
      "byteOffset": 12
    },
    {
      "type": "VEC2",
      "componentType": 5126,
      "count": 5908,
      "bufferView": 1,
      "byteOffset": 24
    },
    {
      "type": "VEC3",
      "componentType": 5126,
      "count": 2282,
      "max": [
        10.369545936584473,
        -2.089722156524658,
        -3.4552195072174072
      ],
      "min": [
        -10.369545936584473,
        -8.639311790466309,
        -24.63644027709961
      ],
      "bufferView": 2,
      "byteOffset": 0
    },
    {
      "type": "VEC3",
      "componentType": 5126,
      "count": 2282,
      "bufferView": 2,
      "byteOffset": 12
    },
    {
      "type": "VEC2",
      "componentType": 5126,
      "count": 2282,
      "bufferView": 2,
      "byteOffset": 24
    },
    {
      "type": "VEC2",
      "componentType": 5126,
      "count": 2282,
      "bufferView": 2,
      "byteOffset": 32
    },
    {
      "type": "VEC3",
      "componentType": 5126,
      "count": 8512,
      "max": [
        11.88327407836914,
        7.440127372741699,
        33.00546646118164
      ],
      "min": [
        -11.897790908813477,
        -11.515378952026367,
        -48.69409942626953
      ],
      "bufferView": 3,
      "byteOffset": 0
    },
    {
      "type": "VEC3",
      "componentType": 5126,
      "count": 8512,
      "bufferView": 3,
      "byteOffset": 12
    },
    {
      "type": "VEC2",
      "componentType": 5126,
      "count": 8512,
      "bufferView": 3,
      "byteOffset": 24
    },
    {
      "type": "VEC3",
      "componentType": 5126,
      "count": 6114,
      "max": [
        11.304916381835938,
        8.037311553955078,
        46.06736755371094
      ],
      "min": [
        -11.305277824401855,
        -10.506062507629395,
        -47.08154296875
      ],
      "bufferView": 4,
      "byteOffset": 0
    },
    {
      "type": "VEC3",
      "componentType": 5126,
      "count": 6114,
      "bufferView": 4,
      "byteOffset": 12
    },
    {
      "type": "VEC3",
      "componentType": 5126,
      "count": 10400,
      "max": [
        11.438753128051758,
        7.056352615356445,
        36.034027099609375
      ],
      "min": [
        -11.450580596923828,
        -11.341814994812012,
        -35.0256462097168
      ],
      "bufferView": 5,
      "byteOffset": 0
    },
    {
      "type": "VEC3",
      "componentType": 5126,
      "count": 10400,
      "bufferView": 5,
      "byteOffset": 12
    },
    {
      "type": "VEC2",
      "componentType": 5126,
      "count": 10400,
      "bufferView": 5,
      "byteOffset": 24
    },
    {
      "type": "VEC3",
      "componentType": 5126,
      "count": 14284,
      "max": [
        11.483677864074707,
        8.037311553955078,
        38.5462760925293
      ],
      "min": [
        -11.49545669555664,
        -11.377613067626953,
        -38.576324462890625
      ],
      "bufferView": 6,
      "byteOffset": 0
    },
    {
      "type": "VEC3",
      "componentType": 5126,
      "count": 14284,
      "bufferView": 6,
      "byteOffset": 12
    },
    {
      "type": "VEC2",
      "componentType": 5126,
      "count": 14284,
      "bufferView": 6,
      "byteOffset": 24
    },
    {
      "type": "VEC3",
      "componentType": 5126,
      "count": 300,
      "max": [
        11.783357620239258,
        16.572200775146484,
        0.8630282878875732
      ],
      "min": [
        -11.783357620239258,
        11.899538040161133,
        -6.564777374267578
      ],
      "bufferView": 7,
      "byteOffset": 0
    },
    {
      "type": "VEC3",
      "componentType": 5126,
      "count": 300,
      "bufferView": 7,
      "byteOffset": 12
    },
    {
      "type": "VEC2",
      "componentType": 5126,
      "count": 300,
      "bufferView": 7,
      "byteOffset": 24
    }
  ],
  "bufferViews": [
    {
      "buffer": 0,
      "byteOffset": 0,
      "byteLength": 214728,
      "target": 34963
    },
    {
      "buffer": 0,
      "byteOffset": 214728,
      "byteLength": 189056,
      "byteStride": 32,
      "target": 34962
    },
    {
      "buffer": 0,
      "byteOffset": 403784,
      "byteLength": 91280,
      "byteStride": 40,
      "target": 34962
    },
    {
      "buffer": 0,
      "byteOffset": 495064,
      "byteLength": 272384,
      "byteStride": 32,
      "target": 34962
    },
    {
      "buffer": 0,
      "byteOffset": 767448,
      "byteLength": 146736,
      "byteStride": 24,
      "target": 34962
    },
    {
      "buffer": 0,
      "byteOffset": 914184,
      "byteLength": 332800,
      "byteStride": 32,
      "target": 34962
    },
    {
      "buffer": 0,
      "byteOffset": 1246984,
      "byteLength": 457088,
      "byteStride": 32,
      "target": 34962
    },
    {
      "buffer": 0,
      "byteOffset": 1704072,
      "byteLength": 9600,
      "byteStride": 32,
      "target": 34962
    }
  ],
  "samplers": [
    {
      "magFilter": 9729,
      "minFilter": 9987,
      "wrapS": 10497,
      "wrapT": 10497
    }
  ],
  "textures": [
    {
      "source": 0,
      "sampler": 0
    },
    {
      "source": 2,
      "sampler": 0
    },
    {
      "source": 1,
      "sampler": 0
    },
    {
      "source": 3,
      "sampler": 0
    },
    {
      "source": 4,
      "sampler": 0
    },
    {
      "source": 5,
      "sampler": 0
    }
  ],
  "images": [
    {
      "name": "Cracked_Flesh_DarkRed",
      "mimeType": "image/png",
      "uri": "Cracked_Flesh_DarkRed.png"
    },
    {
      "name": "RedBrownVeinedFlesh_glow",
      "mimeType": "image/png",
      "uri": "RedBrownVeinedFlesh_glow.png"
    },
    {
      "name": "RedBrownVeinedFlesh",
      "mimeType": "image/png",
      "uri": "RedBrownVeinedFlesh.png"
    },
    {
      "name": "OrangeExaust",
      "mimeType": "image/png",
      "uri": "OrangeExaust.png"
    },
    {
      "name": "hull_VDarkGray",
      "mimeType": "image/png",
      "uri": "hull_VDarkGray.png"
    },
    {
      "name": "gradient_soromid",
      "mimeType": "image/png",
      "uri": "gradient_soromid.png"
    }
  ],
  "buffers": [
    {
      "uri": "arx_feral.bin",
      "byteLength": 1713672
    }
  ],
  "materials": [
    {
      "name": "soromid_carapace",
      "pbrMetallicRoughness": {
        "roughnessFactor": 0.75,
        "metallicFactor": 0,
        "baseColorTexture": {
          "index": 0
        }
      }
    },
    {
      "name": "soromid_flesh",
      "pbrMetallicRoughness": {
        "roughnessFactor": 0.8999999761581421,
        "metallicFactor": 0,
        "baseColorTexture": {
          "index": 1
        }
      },
      "emissiveFactor": [
        1,
        1,
        1
      ],
      "emissiveTexture": {
        "index": 2
      }
    },
    {
      "name": "soromid_bone",
      "pbrMetallicRoughness": {
        "baseColorFactor": [
          0.8039814233779907,
          0.8039814233779907,
          0.8039814233779907,
          1
        ],
        "roughnessFactor": 0.800000011920929,
        "metallicFactor": 0
      }
    },
    {
      "name": "soromid_glow",
      "alphaMode": "BLEND",
      "pbrMetallicRoughness": {
        "baseColorFactor": [
          0.4171862304210663,
          0.28630998730659485,
          0.013797817751765251,
          1
        ],
        "roughnessFactor": 0.5,
        "metallicFactor": 0,
        "baseColorTexture": {
          "index": 3
        }
      },
      "emissiveFactor": [
        1,
        1,
        1
      ],
      "emissiveTexture": {
        "index": 3
      },
      "extensions": {
        "KHR_materials_emissive_strength": {
          "emissiveStrength": 2
        }
      }
    },
    {
      "name": "soromid_hull",
      "pbrMetallicRoughness": {
        "roughnessFactor": 0.6000000238418579,
        "metallicFactor": 0.20000000298023224,
        "baseColorTexture": {
          "index": 4
        }
      }
    },
    {
      "name": "soromid_engine_glow",
      "alphaMode": "BLEND",
      "pbrMetallicRoughness": {
        "roughnessFactor": 0.75,
        "metallicFactor": 0,
        "baseColorTexture": {
          "index": 5
        }
      },
      "emissiveFactor": [
        1,
        1,
        1
      ],
      "emissiveTexture": {
        "index": 5
      },
      "extensions": {
        "KHR_materials_emissive_strength": {
          "emissiveStrength": 2
        }
      }
    }
  ],
  "meshes": [
    {
      "name": "body",
      "primitives": [
        {
          "attributes": {
            "POSITION": 7,
            "NORMAL": 8,
            "TEXCOORD_0": 9
          },
          "mode": 4,
          "material": 0,
          "indices": 0
        },
        {
          "attributes": {
            "POSITION": 10,
            "NORMAL": 11,
            "TEXCOORD_0": 12,
            "TEXCOORD_1": 13
          },
          "mode": 4,
          "indices": 1
        },
        {
          "attributes": {
            "POSITION": 14,
            "NORMAL": 15,
            "TEXCOORD_0": 16
          },
          "mode": 4,
          "material": 1,
          "indices": 2
        },
        {
          "attributes": {
            "POSITION": 17,
            "NORMAL": 18
          },
          "mode": 4,
          "material": 2,
          "indices": 3
        },
        {
          "attributes": {
            "POSITION": 19,
            "NORMAL": 20,
            "TEXCOORD_0": 21
          },
          "mode": 4,
          "material": 3,
          "indices": 4
        },
        {
          "attributes": {
            "POSITION": 22,
            "NORMAL": 23,
            "TEXCOORD_0": 24
          },
          "mode": 4,
          "material": 4,
          "indices": 5
        }
      ]
    },
    {
      "name": "Cone.001",
      "primitives": [
        {
          "attributes": {
            "POSITION": 25,
            "NORMAL": 26,
            "TEXCOORD_0": 27
          },
          "mode": 4,
          "material": 5,
          "indices": 6
        }
      ]
    }
  ],
  "nodes": [
    {
      "name": "body",
      "scale": [
        0.10886488854885101,
        0.16384431719779968,
        0.10225070267915726
      ],
      "mesh": 0
    },
    {
      "name": "glow",
      "rotation": [
        -0.7071068286895752,
        0,
        0,
        0.7071068286895752
      ],
      "scale": [
        0.09818457812070847,
        0.2850823998451233,
        0.09818457812070847
      ],
      "mesh": 1
    },
    {
      "name": "body",
      "scale": [
        0.10886488854885101,
        0.16384431719779968,
        0.10225070267915726
      ],
      "mesh": 0
    }
  ],
  "scenes": [
    {
      "name": "base",
      "nodes": [
        0
      ]
    },
    {
      "name": "engine",
      "nodes": [
        1,
        2
      ]
    }
  ],
  "scene": 0,
  "extensionsUsed": [
    "KHR_materials_emissive_strength"
  ]
}
