{
  "asset": {
    "generator": "glTF-Transform v4.0.0-alpha.5",
    "version": "2.0"
  },
  "accessors": [
    {
      "type": "SCALAR",
      "componentType": 5123,
      "count": 4746,
      "bufferView": 0,
      "byteOffset": 0
    },
    {
      "type": "SCALAR",
      "componentType": 5123,
      "count": 168,
      "bufferView": 0,
      "byteOffset": 9492
    },
    {
      "type": "VEC3",
      "componentType": 5126,
      "count": 2836,
      "max": [
        2.895927667617798,
        6.882853984832764,
        1.221195936203003
      ],
      "min": [
        -2.895927667617798,
        -6.882853984832764,
        -1.221195936203003
      ],
      "bufferView": 1,
      "byteOffset": 0
    },
    {
      "type": "VEC3",
      "componentType": 5126,
      "count": 2836,
      "bufferView": 1,
      "byteOffset": 12
    },
    {
      "type": "VEC2",
      "componentType": 5126,
      "count": 2836,
      "bufferView": 1,
      "byteOffset": 24
    },
    {
      "type": "VEC2",
      "componentType": 5126,
      "count": 2836,
      "bufferView": 1,
      "byteOffset": 32
    },
    {
      "type": "VEC3",
      "componentType": 5126,
      "count": 114,
      "max": [
        2.499687671661377,
        0.6765046119689941,
        -5.5310258865356445
      ],
      "min": [
        -2.499687671661377,
        -0.5451809167861938,
        -7.568486213684082
      ],
      "bufferView": 2,
      "byteOffset": 0
    },
    {
      "type": "VEC3",
      "componentType": 5126,
      "count": 114,
      "bufferView": 2,
      "byteOffset": 12
    }
  ],
  "bufferViews": [
    {
      "buffer": 0,
      "byteOffset": 0,
      "byteLength": 9828,
      "target": 34963
    },
    {
      "buffer": 0,
      "byteOffset": 9828,
      "byteLength": 113440,
      "byteStride": 40,
      "target": 34962
    },
    {
      "buffer": 0,
      "byteOffset": 123268,
      "byteLength": 2736,
      "byteStride": 24,
      "target": 34962
    }
  ],
  "samplers": [
    {
      "magFilter": 9729,
      "minFilter": 9987,
      "wrapS": 10497,
      "wrapT": 10497
    }
  ],
  "textures": [
    {
      "source": 3,
      "sampler": 0
    },
    {
      "source": 0,
      "sampler": 0
    },
    {
      "source": 1,
      "sampler": 0
    },
    {
      "source": 2,
      "sampler": 0
    }
  ],
  "images": [
    {
      "name": "kahanGLO",
      "mimeType": "image/png",
      "uri": "kahanGLO.png"
    },
    {
      "name": "kahanNORM",
      "mimeType": "image/png",
      "uri": "kahanNORM.png"
    },
    {
      "name": "AO_bake",
      "mimeType": "image/png",
      "uri": "AO_bake.png"
    },
    {
      "name": "kahan",
      "mimeType": "image/png",
      "uri": "kahan.png"
    }
  ],
  "buffers": [
    {
      "uri": "kahan.bin",
      "byteLength": 126004
    }
  ],
  "materials": [
    {
      "name": "base",
      "pbrMetallicRoughness": {
        "roughnessFactor": 0.5,
        "metallicFactor": 0.20000000298023224,
        "baseColorTexture": {
          "index": 0
        }
      },
      "emissiveFactor": [
        1,
        1,
        1
      ],
      "emissiveTexture": {
        "index": 1
      },
      "normalTexture": {
        "index": 2
      },
      "occlusionTexture": {
        "index": 3,
        "texCoord": 1
      }
    },
    {
      "name": "glow_standard",
      "extras": {
        "NAEV_noShadows": true
      },
      "alphaMode": "BLEND",
      "pbrMetallicRoughness": {
        "baseColorFactor": [
          0,
          0,
          0,
          1
        ]
      },
      "emissiveFactor": [
        0.8993793725967407,
        0.025336433202028275,
        1
      ]
    }
  ],
  "meshes": [
    {
      "name": "base",
      "primitives": [
        {
          "attributes": {
            "POSITION": 2,
            "NORMAL": 3,
            "TEXCOORD_0": 4,
            "TEXCOORD_1": 5
          },
          "mode": 4,
          "material": 0,
          "indices": 0
        }
      ]
    },
    {
      "name": "cube1_sep2_diffus.001",
      "primitives": [
        {
          "attributes": {
            "POSITION": 6,
            "NORMAL": 7
          },
          "mode": 4,
          "material": 1,
          "indices": 1
        }
      ]
    }
  ],
  "nodes": [
    {
      "name": "base",
      "rotation": [
        0.7071068286895752,
        0,
        0,
        0.7071068286895752
      ],
      "mesh": 0
    },
    {
      "name": "base_glow",
      "rotation": [
        0.7071068286895752,
        0,
        0,
        0.7071068286895752
      ],
      "mesh": 0
    },
    {
      "name": "glow",
      "scale": [
        1.1159398555755615,
        1.1159398555755615,
        1.1159398555755615
      ],
      "mesh": 1
    }
  ],
  "scenes": [
    {
      "name": "base",
      "nodes": [
        0
      ]
    },
    {
      "name": "engine",
      "extras": {
        "BBB_props": {}
      },
      "nodes": [
        1,
        2
      ]
    }
  ],
  "scene": 1
}
