{
  "asset": {
    "generator": "glTF-Transform v4.0.1",
    "version": "2.0"
  },
  "accessors": [
    {
      "type": "SCALAR",
      "componentType": 5123,
      "count": 4746,
      "bufferView": 0,
      "byteOffset": 0
    },
    {
      "type": "SCALAR",
      "componentType": 5123,
      "count": 168,
      "bufferView": 0,
      "byteOffset": 9492
    },
    {
      "type": "VEC3",
      "componentType": 5126,
      "count": 2282,
      "max": [
        2.895927667617798,
        6.882853984832764,
        1.221195936203003
      ],
      "min": [
        -2.895927667617798,
        -6.882853984832764,
        -1.221195936203003
      ],
      "bufferView": 1,
      "byteOffset": 0
    },
    {
      "type": "VEC3",
      "componentType": 5126,
      "count": 2282,
      "bufferView": 1,
      "byteOffset": 12
    },
    {
      "type": "VEC2",
      "componentType": 5126,
      "count": 2282,
      "bufferView": 1,
      "byteOffset": 24
    },
    {
      "type": "VEC3",
      "componentType": 5126,
      "count": 102,
      "max": [
        2.7684264183044434,
        -5.688499450683594,
        0.693882942199707
      ],
      "min": [
        -2.7684264183044434,
        -8.338459968566895,
        -0.7742128372192383
      ],
      "bufferView": 2,
      "byteOffset": 0
    },
    {
      "type": "VEC3",
      "componentType": 5126,
      "count": 102,
      "bufferView": 2,
      "byteOffset": 12
    },
    {
      "type": "VEC2",
      "componentType": 5126,
      "count": 102,
      "bufferView": 2,
      "byteOffset": 24
    }
  ],
  "bufferViews": [
    {
      "buffer": 0,
      "byteOffset": 0,
      "byteLength": 9828,
      "target": 34963
    },
    {
      "buffer": 0,
      "byteOffset": 9828,
      "byteLength": 73024,
      "byteStride": 32,
      "target": 34962
    },
    {
      "buffer": 0,
      "byteOffset": 82852,
      "byteLength": 3264,
      "byteStride": 32,
      "target": 34962
    }
  ],
  "samplers": [
    {
      "magFilter": 9729,
      "minFilter": 9987,
      "wrapS": 10497,
      "wrapT": 10497
    }
  ],
  "textures": [
    {
      "source": 3,
      "sampler": 0
    },
    {
      "source": 0,
      "sampler": 0
    },
    {
      "source": 1,
      "sampler": 0
    },
    {
      "source": 2,
      "sampler": 0
    },
    {
      "source": 4,
      "sampler": 0
    },
    {
      "source": 5,
      "sampler": 0
    }
  ],
  "images": [
    {
      "name": "kahanGLO",
      "mimeType": "image/png",
      "uri": "kahanGLO.png"
    },
    {
      "name": "kahanNORM",
      "mimeType": "image/png",
      "uri": "kahanNORM.png"
    },
    {
      "name": "AO_bake",
      "mimeType": "image/png",
      "uri": "AO_bake.png"
    },
    {
      "name": "kahan",
      "mimeType": "image/png",
      "uri": "kahan.png"
    },
    {
      "name": "GLO_bake",
      "mimeType": "image/png",
      "uri": "GLO_bake.png"
    },
    {
      "name": "gradient_purple",
      "mimeType": "image/png",
      "uri": "gradient_purple.png"
    }
  ],
  "buffers": [
    {
      "uri": "kahan.bin",
      "byteLength": 86116
    }
  ],
  "materials": [
    {
      "name": "base",
      "pbrMetallicRoughness": {
        "roughnessFactor": 0.5,
        "metallicFactor": 0.20000000298023224,
        "baseColorTexture": {
          "index": 0
        }
      },
      "emissiveFactor": [
        1,
        1,
        1
      ],
      "emissiveTexture": {
        "index": 1
      },
      "normalTexture": {
        "index": 2
      },
      "occlusionTexture": {
        "index": 3
      }
    },
    {
      "name": "base_glow",
      "pbrMetallicRoughness": {
        "roughnessFactor": 0.5,
        "metallicFactor": 0.20000000298023224,
        "baseColorTexture": {
          "index": 0
        }
      },
      "emissiveFactor": [
        1,
        1,
        1
      ],
      "emissiveTexture": {
        "index": 4
      },
      "normalTexture": {
        "index": 2
      },
      "occlusionTexture": {
        "index": 3
      }
    },
    {
      "name": "engine_glow_proteron",
      "alphaMode": "BLEND",
      "pbrMetallicRoughness": {
        "roughnessFactor": 0.75,
        "metallicFactor": 0,
        "baseColorTexture": {
          "index": 5
        }
      },
      "emissiveFactor": [
        1,
        1,
        1
      ],
      "emissiveTexture": {
        "index": 5
      }
    }
  ],
  "meshes": [
    {
      "name": "base",
      "primitives": [
        {
          "attributes": {
            "POSITION": 2,
            "NORMAL": 3,
            "TEXCOORD_0": 4
          },
          "mode": 4,
          "material": 0,
          "indices": 0
        }
      ]
    },
    {
      "name": "base",
      "primitives": [
        {
          "attributes": {
            "POSITION": 2,
            "NORMAL": 3,
            "TEXCOORD_0": 4
          },
          "mode": 4,
          "material": 1,
          "indices": 0
        }
      ]
    },
    {
      "name": "glow",
      "primitives": [
        {
          "attributes": {
            "POSITION": 5,
            "NORMAL": 6,
            "TEXCOORD_0": 7
          },
          "mode": 4,
          "material": 2,
          "indices": 1
        }
      ]
    }
  ],
  "nodes": [
    {
      "name": "base",
      "rotation": [
        0.7071068286895752,
        0,
        0,
        0.7071068286895752
      ],
      "mesh": 0
    },
    {
      "name": "base_glow",
      "rotation": [
        0.7071068286895752,
        0,
        0,
        0.7071068286895752
      ],
      "mesh": 1
    },
    {
      "name": "engine_glow",
      "rotation": [
        0.7071068286895752,
        0,
        0,
        0.7071068286895752
      ],
      "mesh": 2
    }
  ],
  "scenes": [
    {
      "name": "base",
      "nodes": [
        0
      ]
    },
    {
      "name": "engine",
      "extras": {
        "BBB_props": {}
      },
      "nodes": [
        1,
        2
      ]
    }
  ],
  "scene": 1
}
