{
  "asset": {
    "generator": "glTF-Transform v4.0.1",
    "version": "2.0"
  },
  "accessors": [
    {
      "type": "SCALAR",
      "componentType": 5123,
      "count": 16632,
      "bufferView": 0,
      "byteOffset": 0
    },
    {
      "type": "SCALAR",
      "componentType": 5123,
      "count": 2652,
      "bufferView": 0,
      "byteOffset": 33264
    },
    {
      "type": "VEC3",
      "componentType": 5126,
      "count": 4968,
      "max": [
        3.250007152557373,
        3.056298017501831,
        1.3436753749847412
      ],
      "min": [
        -3.249995231628418,
        -5.143754005432129,
        -1.1312800645828247
      ],
      "bufferView": 1,
      "byteOffset": 0
    },
    {
      "type": "VEC3",
      "componentType": 5126,
      "count": 4968,
      "bufferView": 1,
      "byteOffset": 12
    },
    {
      "type": "VEC2",
      "componentType": 5126,
      "count": 4968,
      "bufferView": 1,
      "byteOffset": 24
    },
    {
      "type": "VEC3",
      "componentType": 5126,
      "count": 542,
      "max": [
        2.661982774734497,
        0.9375832676887512,
        6.364997863769531
      ],
      "min": [
        -2.661982774734497,
        -0.05758314207196236,
        4.333333492279053
      ],
      "bufferView": 2,
      "byteOffset": 0
    },
    {
      "type": "VEC3",
      "componentType": 5126,
      "count": 542,
      "bufferView": 2,
      "byteOffset": 12
    },
    {
      "type": "VEC2",
      "componentType": 5126,
      "count": 542,
      "bufferView": 2,
      "byteOffset": 24
    }
  ],
  "bufferViews": [
    {
      "buffer": 0,
      "byteOffset": 0,
      "byteLength": 38568,
      "target": 34963
    },
    {
      "buffer": 0,
      "byteOffset": 38568,
      "byteLength": 158976,
      "byteStride": 32,
      "target": 34962
    },
    {
      "buffer": 0,
      "byteOffset": 197544,
      "byteLength": 17344,
      "byteStride": 32,
      "target": 34962
    }
  ],
  "samplers": [
    {
      "magFilter": 9729,
      "minFilter": 9987,
      "wrapS": 10497,
      "wrapT": 10497
    }
  ],
  "textures": [
    {
      "source": 3,
      "sampler": 0
    },
    {
      "source": 0,
      "sampler": 0
    },
    {
      "source": 1,
      "sampler": 0
    },
    {
      "source": 2,
      "sampler": 0
    },
    {
      "source": 5,
      "sampler": 0
    },
    {
      "source": 4,
      "sampler": 0
    },
    {
      "source": 6,
      "sampler": 0
    }
  ],
  "images": [
    {
      "name": "starbridge_pirate_emit",
      "mimeType": "image/png",
      "uri": "starbridge_pirate_emit.png"
    },
    {
      "name": "starbridge_pirate_normal",
      "mimeType": "image/png",
      "uri": "starbridge_pirate_normal.png"
    },
    {
      "name": "AO_bake_pirate-starbridge_pirate_roughness-starbridge_pirate_metallic",
      "mimeType": "image/png",
      "uri": "AO_bake_pirate-starbridge_pirate_roughness-starbridge_pirate_metallic.png"
    },
    {
      "name": "starbridge_pirate_diffuse",
      "mimeType": "image/png",
      "uri": "starbridge_pirate_diffuse.png"
    },
    {
      "name": "gradient_red",
      "mimeType": "image/png",
      "uri": "gradient_red.png"
    },
    {
      "name": "gradient_cyan",
      "mimeType": "image/png",
      "uri": "gradient_cyan.png"
    },
    {
      "name": "GLO_bake",
      "mimeType": "image/png",
      "uri": "GLO_bake.png"
    }
  ],
  "buffers": [
    {
      "uri": "starbridge_pirate.bin",
      "byteLength": 214888
    }
  ],
  "materials": [
    {
      "name": "base",
      "pbrMetallicRoughness": {
        "baseColorTexture": {
          "index": 0
        },
        "metallicRoughnessTexture": {
          "index": 3
        }
      },
      "emissiveFactor": [
        1,
        1,
        1
      ],
      "emissiveTexture": {
        "index": 1
      },
      "normalTexture": {
        "index": 2
      },
      "occlusionTexture": {
        "index": 3
      }
    },
    {
      "name": "engine glow.001",
      "alphaMode": "BLEND",
      "pbrMetallicRoughness": {
        "baseColorFactor": [
          1,
          0.07421362400054932,
          0.04970657825469971,
          1
        ],
        "roughnessFactor": 0.75,
        "metallicFactor": 0,
        "baseColorTexture": {
          "index": 4
        }
      },
      "emissiveFactor": [
        1,
        1,
        1
      ],
      "emissiveTexture": {
        "index": 5
      }
    },
    {
      "name": "base_glow",
      "pbrMetallicRoughness": {
        "baseColorTexture": {
          "index": 0
        },
        "metallicRoughnessTexture": {
          "index": 3
        }
      },
      "emissiveFactor": [
        1,
        1,
        1
      ],
      "emissiveTexture": {
        "index": 6
      },
      "normalTexture": {
        "index": 2
      },
      "occlusionTexture": {
        "index": 3
      }
    }
  ],
  "meshes": [
    {
      "name": "Base",
      "primitives": [
        {
          "attributes": {
            "POSITION": 2,
            "NORMAL": 3,
            "TEXCOORD_0": 4
          },
          "mode": 4,
          "material": 0,
          "indices": 0
        }
      ]
    },
    {
      "name": "Sphere.003",
      "primitives": [
        {
          "attributes": {
            "POSITION": 5,
            "NORMAL": 6,
            "TEXCOORD_0": 7
          },
          "mode": 4,
          "material": 1,
          "indices": 1
        }
      ]
    },
    {
      "name": "Base",
      "primitives": [
        {
          "attributes": {
            "POSITION": 2,
            "NORMAL": 3,
            "TEXCOORD_0": 4
          },
          "mode": 4,
          "material": 2,
          "indices": 0
        }
      ]
    }
  ],
  "nodes": [
    {
      "name": "Base",
      "rotation": [
        0,
        -0.7933533787727356,
        0.6087613701820374,
        3.467857112582351e-8
      ],
      "scale": [
        2,
        2,
        2
      ],
      "mesh": 0
    },
    {
      "name": "glow2.001",
      "translation": [
        0,
        -0.6190646290779114,
        1.8660008907318115
      ],
      "rotation": [
        0,
        1,
        0,
        7.549790836947068e-8
      ],
      "scale": [
        0.75,
        2.5,
        1.5
      ],
      "mesh": 1
    },
    {
      "name": "Base Glow",
      "rotation": [
        0,
        -0.7933533787727356,
        0.6087613701820374,
        3.467857112582351e-8
      ],
      "scale": [
        2,
        2,
        2
      ],
      "mesh": 2
    }
  ],
  "scenes": [
    {
      "name": "base",
      "nodes": [
        0
      ]
    },
    {
      "name": "engine",
      "nodes": [
        1,
        2
      ]
    }
  ],
  "scene": 1
}
