{
  "asset": {
    "generator": "glTF-Transform v4.0.1",
    "version": "2.0"
  },
  "accessors": [
    {
      "type": "SCALAR",
      "componentType": 5123,
      "count": 22104,
      "bufferView": 0,
      "byteOffset": 0
    },
    {
      "type": "SCALAR",
      "componentType": 5123,
      "count": 9696,
      "bufferView": 0,
      "byteOffset": 44208
    },
    {
      "type": "SCALAR",
      "componentType": 5123,
      "count": 5760,
      "bufferView": 0,
      "byteOffset": 63600
    },
    {
      "type": "SCALAR",
      "componentType": 5123,
      "count": 3456,
      "bufferView": 0,
      "byteOffset": 75120
    },
    {
      "type": "SCALAR",
      "componentType": 5123,
      "count": 6336,
      "bufferView": 0,
      "byteOffset": 82032
    },
    {
      "type": "SCALAR",
      "componentType": 5123,
      "count": 4992,
      "bufferView": 0,
      "byteOffset": 94704
    },
    {
      "type": "SCALAR",
      "componentType": 5123,
      "count": 36864,
      "bufferView": 0,
      "byteOffset": 104688
    },
    {
      "type": "VEC3",
      "componentType": 5126,
      "count": 14319,
      "max": [
        8.725122451782227,
        21.633405685424805,
        3.367912530899048
      ],
      "min": [
        -8.818498611450195,
        -34.48411178588867,
        -3.894167900085449
      ],
      "bufferView": 1,
      "byteOffset": 0
    },
    {
      "type": "VEC3",
      "componentType": 5126,
      "count": 14319,
      "bufferView": 1,
      "byteOffset": 12
    },
    {
      "type": "VEC2",
      "componentType": 5126,
      "count": 14319,
      "bufferView": 1,
      "byteOffset": 24
    },
    {
      "type": "VEC3",
      "componentType": 5126,
      "count": 5940,
      "max": [
        8.180824279785156,
        19.177955627441406,
        3.5088143348693848
      ],
      "min": [
        -6.492542743682861,
        -29.62136459350586,
        -3.3663523197174072
      ],
      "bufferView": 2,
      "byteOffset": 0
    },
    {
      "type": "VEC3",
      "componentType": 5126,
      "count": 5940,
      "bufferView": 2,
      "byteOffset": 12
    },
    {
      "type": "VEC2",
      "componentType": 5126,
      "count": 5940,
      "bufferView": 2,
      "byteOffset": 24
    },
    {
      "type": "VEC3",
      "componentType": 5126,
      "count": 3550,
      "max": [
        5.585564613342285,
        8.894133567810059,
        2.4329473972320557
      ],
      "min": [
        -5.086690902709961,
        -25.228300094604492,
        -3.0335545539855957
      ],
      "bufferView": 3,
      "byteOffset": 0
    },
    {
      "type": "VEC3",
      "componentType": 5126,
      "count": 3550,
      "bufferView": 3,
      "byteOffset": 12
    },
    {
      "type": "VEC3",
      "componentType": 5126,
      "count": 2091,
      "max": [
        5.590159893035889,
        8.716529846191406,
        2.4286534786224365
      ],
      "min": [
        -5.072049140930176,
        -25.125164031982422,
        -3.0264506340026855
      ],
      "bufferView": 4,
      "byteOffset": 0
    },
    {
      "type": "VEC3",
      "componentType": 5126,
      "count": 2091,
      "bufferView": 4,
      "byteOffset": 12
    },
    {
      "type": "VEC3",
      "componentType": 5126,
      "count": 3892,
      "max": [
        7.873157501220703,
        4.825447082519531,
        2.3249313831329346
      ],
      "min": [
        -3.8522932529449463,
        -33.63593292236328,
        -3.837015151977539
      ],
      "bufferView": 5,
      "byteOffset": 0
    },
    {
      "type": "VEC3",
      "componentType": 5126,
      "count": 3892,
      "bufferView": 5,
      "byteOffset": 12
    },
    {
      "type": "VEC2",
      "componentType": 5126,
      "count": 3892,
      "bufferView": 5,
      "byteOffset": 24
    },
    {
      "type": "VEC3",
      "componentType": 5126,
      "count": 3197,
      "max": [
        8.127412796020508,
        19.300825119018555,
        3.780669689178467
      ],
      "min": [
        -5.876667022705078,
        -35.928131103515625,
        -3.9843993186950684
      ],
      "bufferView": 6,
      "byteOffset": 0
    },
    {
      "type": "VEC3",
      "componentType": 5126,
      "count": 3197,
      "bufferView": 6,
      "byteOffset": 12
    },
    {
      "type": "VEC2",
      "componentType": 5126,
      "count": 3197,
      "bufferView": 6,
      "byteOffset": 24
    },
    {
      "type": "VEC3",
      "componentType": 5126,
      "count": 24576,
      "max": [
        2.9532744884490967,
        19.91400146484375,
        11.826004028320312
      ],
      "min": [
        -5.692993640899658,
        -1.9830840826034546,
        -1.25
      ],
      "bufferView": 7,
      "byteOffset": 0
    },
    {
      "type": "VEC3",
      "componentType": 5126,
      "count": 24576,
      "bufferView": 7,
      "byteOffset": 12
    },
    {
      "type": "VEC2",
      "componentType": 5126,
      "count": 24576,
      "bufferView": 7,
      "byteOffset": 24
    }
  ],
  "bufferViews": [
    {
      "buffer": 0,
      "byteOffset": 0,
      "byteLength": 178416,
      "target": 34963
    },
    {
      "buffer": 0,
      "byteOffset": 178416,
      "byteLength": 458208,
      "byteStride": 32,
      "target": 34962
    },
    {
      "buffer": 0,
      "byteOffset": 636624,
      "byteLength": 190080,
      "byteStride": 32,
      "target": 34962
    },
    {
      "buffer": 0,
      "byteOffset": 826704,
      "byteLength": 85200,
      "byteStride": 24,
      "target": 34962
    },
    {
      "buffer": 0,
      "byteOffset": 911904,
      "byteLength": 50184,
      "byteStride": 24,
      "target": 34962
    },
    {
      "buffer": 0,
      "byteOffset": 962088,
      "byteLength": 124544,
      "byteStride": 32,
      "target": 34962
    },
    {
      "buffer": 0,
      "byteOffset": 1086632,
      "byteLength": 102304,
      "byteStride": 32,
      "target": 34962
    },
    {
      "buffer": 0,
      "byteOffset": 1188936,
      "byteLength": 786432,
      "byteStride": 32,
      "target": 34962
    }
  ],
  "samplers": [
    {
      "magFilter": 9729,
      "minFilter": 9987,
      "wrapS": 10497,
      "wrapT": 10497
    },
    {
      "magFilter": 9729,
      "minFilter": 9987,
      "wrapS": 33648,
      "wrapT": 33648
    }
  ],
  "textures": [
    {
      "source": 0,
      "sampler": 0
    },
    {
      "source": 1,
      "sampler": 0
    },
    {
      "source": 2,
      "sampler": 0
    },
    {
      "source": 3,
      "sampler": 0
    },
    {
      "source": 4,
      "sampler": 1
    }
  ],
  "images": [
    {
      "name": "hull_lightGray",
      "mimeType": "image/png",
      "uri": "hull_lightGray.png"
    },
    {
      "name": "hull_RED",
      "mimeType": "image/png",
      "uri": "hull_RED.png"
    },
    {
      "name": "hexagonalLayerSteel_Ash",
      "mimeType": "image/png",
      "uri": "hexagonalLayerSteel_Ash.png"
    },
    {
      "name": "hexagonalLayerSteel_Red",
      "mimeType": "image/png",
      "uri": "hexagonalLayerSteel_Red.png"
    },
    {
      "name": "zalek_glow",
      "mimeType": "image/png",
      "uri": "zalek_glow.png"
    }
  ],
  "buffers": [
    {
      "uri": "diablo.bin",
      "byteLength": 1975368
    }
  ],
  "materials": [
    {
      "name": "hull_grey",
      "pbrMetallicRoughness": {
        "roughnessFactor": 0.699999988079071,
        "metallicFactor": 0.30000001192092896,
        "baseColorTexture": {
          "index": 0
        }
      }
    },
    {
      "name": "hull_red",
      "pbrMetallicRoughness": {
        "roughnessFactor": 0.699999988079071,
        "metallicFactor": 0.30000001192092896,
        "baseColorTexture": {
          "index": 1
        }
      }
    },
    {
      "name": "black",
      "pbrMetallicRoughness": {
        "baseColorFactor": [
          0,
          0,
          0,
          1
        ],
        "metallicFactor": 0
      }
    },
    {
      "name": "bloodred",
      "pbrMetallicRoughness": {
        "baseColorFactor": [
          0.5,
          0,
          0,
          1
        ],
        "metallicFactor": 0
      }
    },
    {
      "name": "steel_hex_grey",
      "pbrMetallicRoughness": {
        "roughnessFactor": 0.699999988079071,
        "metallicFactor": 0.30000001192092896,
        "baseColorTexture": {
          "index": 2
        }
      }
    },
    {
      "name": "steel_hex_red",
      "pbrMetallicRoughness": {
        "roughnessFactor": 0.699999988079071,
        "metallicFactor": 0.30000001192092896,
        "baseColorTexture": {
          "index": 3
        }
      }
    },
    {
      "name": "engine_glow_zalek_drone",
      "alphaMode": "BLEND",
      "pbrMetallicRoughness": {
        "metallicFactor": 0,
        "baseColorTexture": {
          "index": 4
        }
      },
      "emissiveFactor": [
        1,
        1,
        1
      ],
      "emissiveTexture": {
        "index": 4
      },
      "extensions": {
        "KHR_materials_emissive_strength": {
          "emissiveStrength": 2
        }
      }
    }
  ],
  "meshes": [
    {
      "name": "base_multi_materials",
      "primitives": [
        {
          "attributes": {
            "POSITION": 7,
            "NORMAL": 8,
            "TEXCOORD_0": 9
          },
          "mode": 4,
          "material": 0,
          "indices": 0
        },
        {
          "attributes": {
            "POSITION": 10,
            "NORMAL": 11,
            "TEXCOORD_0": 12
          },
          "mode": 4,
          "material": 1,
          "indices": 1
        },
        {
          "attributes": {
            "POSITION": 13,
            "NORMAL": 14
          },
          "mode": 4,
          "material": 2,
          "indices": 2
        },
        {
          "attributes": {
            "POSITION": 15,
            "NORMAL": 16
          },
          "mode": 4,
          "material": 3,
          "indices": 3
        },
        {
          "attributes": {
            "POSITION": 17,
            "NORMAL": 18,
            "TEXCOORD_0": 19
          },
          "mode": 4,
          "material": 4,
          "indices": 4
        },
        {
          "attributes": {
            "POSITION": 20,
            "NORMAL": 21,
            "TEXCOORD_0": 22
          },
          "mode": 4,
          "material": 5,
          "indices": 5
        }
      ]
    },
    {
      "name": "glow.003",
      "primitives": [
        {
          "attributes": {
            "POSITION": 23,
            "NORMAL": 24,
            "TEXCOORD_0": 25
          },
          "mode": 4,
          "material": 6,
          "indices": 6
        }
      ]
    }
  ],
  "nodes": [
    {
      "name": "base_multi_materials",
      "scale": [
        0.2237417995929718,
        0.038158681243658066,
        1.2345702648162842
      ],
      "mesh": 0
    },
    {
      "name": "engine01",
      "translation": [
        -0.4218986928462982,
        -0.7041007280349731,
        -4.357454299926758
      ],
      "rotation": [
        0.3269619047641754,
        0.09929266571998596,
        -0.20667047798633575,
        0.9168010950088501
      ],
      "scale": [
        0.45183220505714417,
        0.2125961184501648,
        0.4899841547012329
      ],
      "mesh": 1
    },
    {
      "name": "base_multi_materials",
      "scale": [
        0.2237417995929718,
        0.038158681243658066,
        1.2345702648162842
      ],
      "mesh": 0
    }
  ],
  "scenes": [
    {
      "name": "base",
      "nodes": [
        0
      ]
    },
    {
      "name": "engine",
      "nodes": [
        1,
        2
      ]
    }
  ],
  "scene": 0,
  "extensionsUsed": [
    "KHR_materials_emissive_strength"
  ]
}
