{
  "asset": {
    "generator": "glTF-Transform v4.0.1",
    "version": "2.0"
  },
  "accessors": [
    {
      "type": "SCALAR",
      "componentType": 5123,
      "count": 16986,
      "bufferView": 0,
      "byteOffset": 0
    },
    {
      "type": "SCALAR",
      "componentType": 5123,
      "count": 297,
      "bufferView": 0,
      "byteOffset": 33972
    },
    {
      "type": "SCALAR",
      "componentType": 5123,
      "count": 540,
      "bufferView": 0,
      "byteOffset": 34568
    },
    {
      "type": "VEC3",
      "componentType": 5126,
      "count": 7261,
      "max": [
        2.1991801261901855,
        2.504481554031372,
        5.747933387756348
      ],
      "min": [
        -2.198364734649658,
        -1.3436915874481201,
        -3.452065944671631
      ],
      "bufferView": 1,
      "byteOffset": 0
    },
    {
      "type": "VEC3",
      "componentType": 5126,
      "count": 7261,
      "bufferView": 1,
      "byteOffset": 12
    },
    {
      "type": "VEC2",
      "componentType": 5126,
      "count": 7261,
      "bufferView": 1,
      "byteOffset": 24
    },
    {
      "type": "VEC3",
      "componentType": 5126,
      "count": 207,
      "max": [
        1.8099929094314575,
        -3.724998950958252,
        1.045000672340393
      ],
      "min": [
        -1.8099929094314575,
        -5.724999904632568,
        -2.0899996757507324
      ],
      "bufferView": 2,
      "byteOffset": 0
    },
    {
      "type": "VEC3",
      "componentType": 5126,
      "count": 207,
      "bufferView": 2,
      "byteOffset": 12
    },
    {
      "type": "VEC2",
      "componentType": 5126,
      "count": 207,
      "bufferView": 2,
      "byteOffset": 24
    },
    {
      "type": "VEC3",
      "componentType": 5126,
      "count": 360,
      "max": [
        1.9831980466842651,
        -3.724998950958252,
        1.1450005769729614
      ],
      "min": [
        -1.9831980466842651,
        -5.224999904632568,
        -2.2899997234344482
      ],
      "bufferView": 3,
      "byteOffset": 0
    },
    {
      "type": "VEC3",
      "componentType": 5126,
      "count": 360,
      "bufferView": 3,
      "byteOffset": 12
    },
    {
      "type": "VEC2",
      "componentType": 5126,
      "count": 360,
      "bufferView": 3,
      "byteOffset": 24
    }
  ],
  "bufferViews": [
    {
      "buffer": 0,
      "byteOffset": 0,
      "byteLength": 35648,
      "target": 34963
    },
    {
      "buffer": 0,
      "byteOffset": 35648,
      "byteLength": 232352,
      "byteStride": 32,
      "target": 34962
    },
    {
      "buffer": 0,
      "byteOffset": 268000,
      "byteLength": 6624,
      "byteStride": 32,
      "target": 34962
    },
    {
      "buffer": 0,
      "byteOffset": 274624,
      "byteLength": 11520,
      "byteStride": 32,
      "target": 34962
    }
  ],
  "samplers": [
    {
      "magFilter": 9729,
      "minFilter": 9987,
      "wrapS": 10497,
      "wrapT": 10497
    }
  ],
  "textures": [
    {
      "source": 3,
      "sampler": 0
    },
    {
      "source": 0,
      "sampler": 0
    },
    {
      "source": 1,
      "sampler": 0
    },
    {
      "source": 2,
      "sampler": 0
    },
    {
      "source": 4,
      "sampler": 0
    },
    {
      "source": 5,
      "sampler": 0
    },
    {
      "source": 6,
      "sampler": 0
    }
  ],
  "images": [
    {
      "name": "providence_emission",
      "mimeType": "image/png",
      "uri": "providence_emission.png"
    },
    {
      "name": "providence_normal",
      "mimeType": "image/png",
      "uri": "providence_normal.png"
    },
    {
      "name": "AO_bake-providence_roughness-providence_metallic",
      "mimeType": "image/png",
      "uri": "AO_bake-providence_roughness-providence_metallic.png"
    },
    {
      "name": "providence_diffuse",
      "mimeType": "image/png",
      "uri": "providence_diffuse.png"
    },
    {
      "name": "gradient_cyan2",
      "mimeType": "image/png",
      "uri": "gradient_cyan2.png"
    },
    {
      "name": "gradient_blue",
      "mimeType": "image/png",
      "uri": "gradient_blue.png"
    },
    {
      "name": "GLO_bake",
      "mimeType": "image/png",
      "uri": "GLO_bake.png"
    }
  ],
  "buffers": [
    {
      "uri": "providence.bin",
      "byteLength": 286144
    }
  ],
  "materials": [
    {
      "name": "base",
      "pbrMetallicRoughness": {
        "baseColorTexture": {
          "index": 0
        },
        "metallicRoughnessTexture": {
          "index": 3
        }
      },
      "emissiveFactor": [
        1,
        1,
        1
      ],
      "emissiveTexture": {
        "index": 1
      },
      "normalTexture": {
        "index": 2
      },
      "occlusionTexture": {
        "index": 3
      }
    },
    {
      "name": "engine_glow.001",
      "alphaMode": "BLEND",
      "pbrMetallicRoughness": {
        "roughnessFactor": 0.5,
        "metallicFactor": 0,
        "baseColorTexture": {
          "index": 4
        }
      },
      "emissiveFactor": [
        1,
        1,
        1
      ],
      "emissiveTexture": {
        "index": 4
      }
    },
    {
      "name": "engine_glow.002",
      "alphaMode": "BLEND",
      "pbrMetallicRoughness": {
        "roughnessFactor": 0.5,
        "metallicFactor": 0,
        "baseColorTexture": {
          "index": 5
        }
      },
      "emissiveFactor": [
        0.5,
        0.5,
        0.5
      ],
      "emissiveTexture": {
        "index": 5
      }
    },
    {
      "name": "base_glow",
      "pbrMetallicRoughness": {
        "baseColorTexture": {
          "index": 0
        },
        "metallicRoughnessTexture": {
          "index": 3
        }
      },
      "emissiveFactor": [
        1,
        1,
        1
      ],
      "emissiveTexture": {
        "index": 6
      },
      "normalTexture": {
        "index": 2
      },
      "occlusionTexture": {
        "index": 3
      }
    }
  ],
  "meshes": [
    {
      "name": "Base",
      "primitives": [
        {
          "attributes": {
            "POSITION": 3,
            "NORMAL": 4,
            "TEXCOORD_0": 5
          },
          "mode": 4,
          "material": 0,
          "indices": 0
        }
      ]
    },
    {
      "name": "Base",
      "primitives": [
        {
          "attributes": {
            "POSITION": 3,
            "NORMAL": 4,
            "TEXCOORD_0": 5
          },
          "mode": 4,
          "material": 3,
          "indices": 0
        }
      ]
    },
    {
      "name": "Cylinder.008",
      "primitives": [
        {
          "attributes": {
            "POSITION": 6,
            "NORMAL": 7,
            "TEXCOORD_0": 8
          },
          "mode": 4,
          "material": 1,
          "indices": 1
        }
      ]
    },
    {
      "name": "Cylinder.009",
      "primitives": [
        {
          "attributes": {
            "POSITION": 9,
            "NORMAL": 10,
            "TEXCOORD_0": 11
          },
          "mode": 4,
          "material": 2,
          "indices": 2
        }
      ]
    }
  ],
  "nodes": [
    {
      "name": "Base",
      "translation": [
        0.0009256238117814064,
        -0.009671615436673164,
        -0.5522205233573914
      ],
      "mesh": 0
    },
    {
      "name": "EngineGlow.001",
      "rotation": [
        0.7071068286895752,
        0,
        0,
        0.7071068286895752
      ],
      "mesh": 2
    },
    {
      "name": "EngineGlow.004",
      "rotation": [
        0.7071068286895752,
        0,
        0,
        0.7071068286895752
      ],
      "mesh": 3
    },
    {
      "name": "Base Glow",
      "translation": [
        0.0009256238117814064,
        -0.009671615436673164,
        -0.5522205233573914
      ],
      "mesh": 1
    }
  ],
  "scenes": [
    {
      "name": "base",
      "nodes": [
        0
      ]
    },
    {
      "name": "engine",
      "nodes": [
        1,
        2,
        3
      ]
    }
  ],
  "scene": 1
}
