{
  "asset": {
    "generator": "glTF-Transform v4.0.1",
    "version": "2.0"
  },
  "accessors": [
    {
      "type": "SCALAR",
      "componentType": 5123,
      "count": 21828,
      "bufferView": 0,
      "byteOffset": 0
    },
    {
      "type": "SCALAR",
      "componentType": 5123,
      "count": 264,
      "bufferView": 0,
      "byteOffset": 43656
    },
    {
      "type": "SCALAR",
      "componentType": 5123,
      "count": 2430,
      "bufferView": 0,
      "byteOffset": 44184
    },
    {
      "type": "VEC3",
      "componentType": 5126,
      "count": 7553,
      "max": [
        4.198877334594727,
        3.030330181121826,
        13
      ],
      "min": [
        -4.198877334594727,
        -2.6882073879241943,
        -8
      ],
      "bufferView": 1,
      "byteOffset": 0
    },
    {
      "type": "VEC3",
      "componentType": 5126,
      "count": 7553,
      "bufferView": 1,
      "byteOffset": 12
    },
    {
      "type": "VEC2",
      "componentType": 5126,
      "count": 7553,
      "bufferView": 1,
      "byteOffset": 24
    },
    {
      "type": "VEC3",
      "componentType": 5126,
      "count": 128,
      "max": [
        2,
        0.75,
        8
      ],
      "min": [
        -2,
        -0.75,
        -7
      ],
      "bufferView": 2,
      "byteOffset": 0
    },
    {
      "type": "VEC3",
      "componentType": 5126,
      "count": 128,
      "bufferView": 2,
      "byteOffset": 12
    },
    {
      "type": "VEC2",
      "componentType": 5126,
      "count": 128,
      "bufferView": 2,
      "byteOffset": 24
    },
    {
      "type": "VEC3",
      "componentType": 5126,
      "count": 466,
      "max": [
        2.7251861095428467,
        0.749476969242096,
        4.175050258636475
      ],
      "min": [
        -2.7251861095428467,
        -2.3541696071624756,
        -8.824999809265137
      ],
      "bufferView": 3,
      "byteOffset": 0
    },
    {
      "type": "VEC3",
      "componentType": 5126,
      "count": 466,
      "bufferView": 3,
      "byteOffset": 12
    },
    {
      "type": "VEC2",
      "componentType": 5126,
      "count": 466,
      "bufferView": 3,
      "byteOffset": 24
    },
    {
      "type": "SCALAR",
      "componentType": 5126,
      "count": 5,
      "max": [
        6.041666507720947
      ],
      "min": [
        0.0416666679084301
      ],
      "bufferView": 4,
      "byteOffset": 0
    },
    {
      "type": "VEC4",
      "componentType": 5126,
      "count": 5,
      "bufferView": 4,
      "byteOffset": 20
    }
  ],
  "bufferViews": [
    {
      "buffer": 0,
      "byteOffset": 0,
      "byteLength": 49044,
      "target": 34963
    },
    {
      "buffer": 0,
      "byteOffset": 49044,
      "byteLength": 241696,
      "byteStride": 32,
      "target": 34962
    },
    {
      "buffer": 0,
      "byteOffset": 290740,
      "byteLength": 4096,
      "byteStride": 32,
      "target": 34962
    },
    {
      "buffer": 0,
      "byteOffset": 294836,
      "byteLength": 14912,
      "byteStride": 32,
      "target": 34962
    },
    {
      "buffer": 0,
      "byteOffset": 309748,
      "byteLength": 100
    }
  ],
  "samplers": [
    {
      "magFilter": 9729,
      "minFilter": 9987,
      "wrapS": 10497,
      "wrapT": 10497
    }
  ],
  "textures": [
    {
      "sampler": 0,
      "extensions": {
        "EXT_texture_webp": {
          "source": 2
        }
      }
    },
    {
      "sampler": 0,
      "extensions": {
        "EXT_texture_webp": {
          "source": 0
        }
      }
    },
    {
      "sampler": 0,
      "extensions": {
        "EXT_texture_webp": {
          "source": 1
        }
      }
    },
    {
      "sampler": 0,
      "extensions": {
        "EXT_texture_webp": {
          "source": 3
        }
      }
    },
    {
      "sampler": 0,
      "extensions": {
        "EXT_texture_webp": {
          "source": 4
        }
      }
    }
  ],
  "images": [
    {
      "name": "copia_emission",
      "mimeType": "image/webp",
      "uri": "copia_emission.webp"
    },
    {
      "name": "copia_normal",
      "mimeType": "image/webp",
      "uri": "copia_normal.webp"
    },
    {
      "name": "copia_diffuse",
      "mimeType": "image/webp",
      "uri": "copia_diffuse.webp"
    },
    {
      "name": "copia_metallic-copia_roughness",
      "mimeType": "image/webp",
      "uri": "copia_metallic-copia_roughness.webp"
    },
    {
      "name": "gradient_soromid",
      "mimeType": "image/webp",
      "uri": "gradient_soromid.webp"
    }
  ],
  "buffers": [
    {
      "uri": "copia.bin",
      "byteLength": 309848
    }
  ],
  "materials": [
    {
      "name": "Material",
      "pbrMetallicRoughness": {
        "baseColorTexture": {
          "index": 0
        },
        "metallicRoughnessTexture": {
          "index": 3
        }
      },
      "emissiveFactor": [
        1,
        1,
        1
      ],
      "emissiveTexture": {
        "index": 1
      },
      "normalTexture": {
        "index": 2,
        "scale": 0.20000000298023224
      }
    },
    {
      "name": "soromid_engine_glow",
      "alphaMode": "BLEND",
      "pbrMetallicRoughness": {
        "roughnessFactor": 0.75,
        "metallicFactor": 0,
        "baseColorTexture": {
          "index": 4
        }
      },
      "emissiveFactor": [
        1,
        1,
        1
      ],
      "emissiveTexture": {
        "index": 4
      },
      "extensions": {
        "KHR_materials_emissive_strength": {
          "emissiveStrength": 2
        }
      }
    }
  ],
  "meshes": [
    {
      "name": "Cube.032",
      "primitives": [
        {
          "attributes": {
            "POSITION": 3,
            "NORMAL": 4,
            "TEXCOORD_0": 5
          },
          "mode": 4,
          "material": 0,
          "indices": 0
        }
      ]
    },
    {
      "name": "Cube.025",
      "primitives": [
        {
          "attributes": {
            "POSITION": 6,
            "NORMAL": 7,
            "TEXCOORD_0": 8
          },
          "mode": 4,
          "material": 0,
          "indices": 1
        }
      ]
    },
    {
      "name": "Cone",
      "primitives": [
        {
          "attributes": {
            "POSITION": 9,
            "NORMAL": 10,
            "TEXCOORD_0": 11
          },
          "mode": 4,
          "material": 1,
          "indices": 2
        }
      ]
    },
    {
      "name": "Cube.032",
      "primitives": [
        {
          "attributes": {
            "POSITION": 3,
            "NORMAL": 4,
            "TEXCOORD_0": 5
          },
          "mode": 4,
          "material": 0,
          "indices": 0
        }
      ]
    }
  ],
  "nodes": [
    {
      "name": "Back",
      "translation": [
        0,
        0,
        -2
      ],
      "mesh": 3
    },
    {
      "name": "Body",
      "rotation": [
        0,
        -0.02181488461792469,
        0,
        0.9997620582580566
      ],
      "mesh": 1,
      "children": [
        0
      ]
    },
    {
      "name": "Back",
      "translation": [
        0,
        0,
        -2
      ],
      "mesh": 0
    },
    {
      "name": "Body",
      "rotation": [
        0,
        -0.02181488461792469,
        0,
        0.9997620582580566
      ],
      "mesh": 1,
      "children": [
        2
      ]
    },
    {
      "name": "Glow",
      "mesh": 2
    }
  ],
  "animations": [
    {
      "name": "rotate.001",
      "samplers": [
        {
          "input": 12,
          "output": 13,
          "interpolation": "LINEAR"
        }
      ],
      "channels": [
        {
          "sampler": 0,
          "target": {
            "node": 1,
            "path": "rotation"
          }
        }
      ]
    },
    {
      "name": "rotate.001",
      "samplers": [
        {
          "input": 12,
          "output": 13,
          "interpolation": "LINEAR"
        }
      ],
      "channels": [
        {
          "sampler": 0,
          "target": {
            "node": 3,
            "path": "rotation"
          }
        }
      ]
    }
  ],
  "scenes": [
    {
      "name": "base",
      "nodes": [
        1
      ]
    },
    {
      "name": "engine",
      "nodes": [
        3,
        4
      ]
    }
  ],
  "scene": 1,
  "extensionsUsed": [
    "EXT_texture_webp",
    "KHR_materials_emissive_strength"
  ],
  "extensionsRequired": [
    "EXT_texture_webp"
  ]
}
