{
  "asset": {
    "generator": "glTF-Transform v4.0.0-alpha.5",
    "version": "2.0"
  },
  "accessors": [
    {
      "type": "SCALAR",
      "componentType": 5123,
      "count": 4344,
      "bufferView": 0,
      "byteOffset": 0
    },
    {
      "type": "SCALAR",
      "componentType": 5123,
      "count": 720,
      "bufferView": 0,
      "byteOffset": 8688
    },
    {
      "type": "VEC3",
      "componentType": 5126,
      "count": 3043,
      "max": [
        2.1719157695770264,
        0.30921080708503723,
        8.709430694580078
      ],
      "min": [
        -3.066206455230713,
        -0.6886264085769653,
        -6.7868428230285645
      ],
      "bufferView": 1,
      "byteOffset": 0
    },
    {
      "type": "VEC3",
      "componentType": 5126,
      "count": 3043,
      "bufferView": 1,
      "byteOffset": 12
    },
    {
      "type": "VEC2",
      "componentType": 5126,
      "count": 3043,
      "bufferView": 1,
      "byteOffset": 24
    },
    {
      "type": "VEC3",
      "componentType": 5126,
      "count": 496,
      "max": [
        1.25,
        0.2573970854282379,
        1.25
      ],
      "min": [
        -1.25,
        -2.7562360763549805,
        -1.25
      ],
      "bufferView": 2,
      "byteOffset": 0
    },
    {
      "type": "VEC3",
      "componentType": 5126,
      "count": 496,
      "bufferView": 2,
      "byteOffset": 12
    },
    {
      "type": "VEC2",
      "componentType": 5126,
      "count": 496,
      "bufferView": 2,
      "byteOffset": 24
    }
  ],
  "bufferViews": [
    {
      "buffer": 0,
      "byteOffset": 0,
      "byteLength": 10128,
      "target": 34963
    },
    {
      "buffer": 0,
      "byteOffset": 10128,
      "byteLength": 97376,
      "byteStride": 32,
      "target": 34962
    },
    {
      "buffer": 0,
      "byteOffset": 107504,
      "byteLength": 15872,
      "byteStride": 32,
      "target": 34962
    }
  ],
  "samplers": [
    {
      "magFilter": 9729,
      "minFilter": 9987,
      "wrapS": 10497,
      "wrapT": 10497
    }
  ],
  "textures": [
    {
      "source": 2,
      "sampler": 0
    },
    {
      "source": 0,
      "sampler": 0
    },
    {
      "source": 1,
      "sampler": 0
    },
    {
      "source": 3,
      "sampler": 0
    }
  ],
  "images": [
    {
      "name": "zalek_light_droneGLO",
      "mimeType": "image/png",
      "uri": "zalek_light_droneGLO.png"
    },
    {
      "name": "AO_bake_light",
      "mimeType": "image/png",
      "uri": "AO_bake_light.png"
    },
    {
      "name": "zalek_light_drone",
      "mimeType": "image/png",
      "uri": "zalek_light_drone.png"
    },
    {
      "name": "zalek_glow",
      "mimeType": "image/png",
      "uri": "zalek_glow.png"
    }
  ],
  "buffers": [
    {
      "uri": "zalek_drone_light.bin",
      "byteLength": 123376
    }
  ],
  "materials": [
    {
      "name": "base",
      "pbrMetallicRoughness": {
        "roughnessFactor": 0.5,
        "metallicFactor": 0,
        "baseColorTexture": {
          "index": 0
        }
      },
      "emissiveFactor": [
        1,
        1,
        1
      ],
      "emissiveTexture": {
        "index": 1
      },
      "occlusionTexture": {
        "index": 2
      }
    },
    {
      "name": "engine_glow_zalek_drone",
      "alphaMode": "BLEND",
      "pbrMetallicRoughness": {
        "metallicFactor": 0,
        "baseColorTexture": {
          "index": 3
        }
      },
      "emissiveFactor": [
        1,
        1,
        1
      ],
      "emissiveTexture": {
        "index": 3
      },
      "extensions": {
        "KHR_materials_emissive_strength": {
          "emissiveStrength": 2
        }
      }
    }
  ],
  "meshes": [
    {
      "name": "base",
      "primitives": [
        {
          "attributes": {
            "POSITION": 2,
            "NORMAL": 3,
            "TEXCOORD_0": 4
          },
          "mode": 4,
          "material": 0,
          "indices": 0
        }
      ]
    },
    {
      "name": "glow_torus",
      "primitives": [
        {
          "attributes": {
            "POSITION": 5,
            "NORMAL": 6,
            "TEXCOORD_0": 7
          },
          "mode": 4,
          "material": 1,
          "indices": 1
        }
      ]
    }
  ],
  "nodes": [
    {
      "name": "base",
      "scale": [
        0.44354167580604553,
        2.6359870433807373,
        0.5414332151412964
      ],
      "mesh": 0
    },
    {
      "name": "base_glow",
      "scale": [
        0.44354167580604553,
        2.6359870433807373,
        0.5414332151412964
      ],
      "mesh": 0
    },
    {
      "name": "glow_torus",
      "translation": [
        0,
        0,
        -3.5494816303253174
      ],
      "rotation": [
        0.7071068286895752,
        0,
        0,
        0.7071068286895752
      ],
      "scale": [
        0.6245027780532837,
        0.6245027780532837,
        0.6245027780532837
      ],
      "mesh": 1
    }
  ],
  "scenes": [
    {
      "name": "base",
      "extras": {
        "BBB_props": {
          "image_settings": {},
          "guided_ui": 1,
          "dir_path": "//bake/"
        }
      },
      "nodes": [
        0
      ]
    },
    {
      "name": "engine",
      "nodes": [
        1,
        2
      ]
    }
  ],
  "scene": 1,
  "extensionsUsed": [
    "KHR_materials_emissive_strength"
  ]
}
