{
  "asset": {
    "generator": "glTF-Transform v4.0.1",
    "version": "2.0"
  },
  "accessors": [
    {
      "type": "SCALAR",
      "componentType": 5123,
      "count": 37800,
      "bufferView": 0,
      "byteOffset": 0
    },
    {
      "type": "SCALAR",
      "componentType": 5123,
      "count": 7416,
      "bufferView": 0,
      "byteOffset": 75600
    },
    {
      "type": "SCALAR",
      "componentType": 5123,
      "count": 21288,
      "bufferView": 0,
      "byteOffset": 90432
    },
    {
      "type": "SCALAR",
      "componentType": 5123,
      "count": 14964,
      "bufferView": 0,
      "byteOffset": 133008
    },
    {
      "type": "SCALAR",
      "componentType": 5123,
      "count": 1440,
      "bufferView": 0,
      "byteOffset": 162936
    },
    {
      "type": "VEC3",
      "componentType": 5126,
      "count": 26392,
      "max": [
        15.408105850219727,
        58.7267951965332,
        4.425314426422119
      ],
      "min": [
        -12.57376480102539,
        -59.10296630859375,
        -4.495152473449707
      ],
      "bufferView": 1,
      "byteOffset": 0
    },
    {
      "type": "VEC3",
      "componentType": 5126,
      "count": 26392,
      "bufferView": 1,
      "byteOffset": 12
    },
    {
      "type": "VEC2",
      "componentType": 5126,
      "count": 26392,
      "bufferView": 1,
      "byteOffset": 24
    },
    {
      "type": "VEC3",
      "componentType": 5126,
      "count": 5072,
      "max": [
        11.643364906311035,
        50.94606018066406,
        3.1341493129730225
      ],
      "min": [
        -11.426234245300293,
        -53.255924224853516,
        -3.1545162200927734
      ],
      "bufferView": 2,
      "byteOffset": 0
    },
    {
      "type": "VEC3",
      "componentType": 5126,
      "count": 5072,
      "bufferView": 2,
      "byteOffset": 12
    },
    {
      "type": "VEC2",
      "componentType": 5126,
      "count": 5072,
      "bufferView": 2,
      "byteOffset": 24
    },
    {
      "type": "VEC3",
      "componentType": 5126,
      "count": 15030,
      "max": [
        12.25217056274414,
        38.248619079589844,
        3.513636589050293
      ],
      "min": [
        -10.539361953735352,
        -48.70981979370117,
        -3.607546806335449
      ],
      "bufferView": 3,
      "byteOffset": 0
    },
    {
      "type": "VEC3",
      "componentType": 5126,
      "count": 15030,
      "bufferView": 3,
      "byteOffset": 12
    },
    {
      "type": "VEC2",
      "componentType": 5126,
      "count": 15030,
      "bufferView": 3,
      "byteOffset": 24
    },
    {
      "type": "VEC3",
      "componentType": 5126,
      "count": 10208,
      "max": [
        12.501293182373047,
        41.88719177246094,
        2.9701240062713623
      ],
      "min": [
        -10.679758071899414,
        -47.86332702636719,
        -3.027686595916748
      ],
      "bufferView": 4,
      "byteOffset": 0
    },
    {
      "type": "VEC3",
      "componentType": 5126,
      "count": 10208,
      "bufferView": 4,
      "byteOffset": 12
    },
    {
      "type": "VEC2",
      "componentType": 5126,
      "count": 10208,
      "bufferView": 4,
      "byteOffset": 24
    },
    {
      "type": "VEC3",
      "componentType": 5126,
      "count": 250,
      "max": [
        4.239921569824219,
        10.804003715515137,
        -0.6255194544792175
      ],
      "min": [
        -4.3352556228637695,
        7.253050804138184,
        -9.025223731994629
      ],
      "bufferView": 5,
      "byteOffset": 0
    },
    {
      "type": "VEC3",
      "componentType": 5126,
      "count": 250,
      "bufferView": 5,
      "byteOffset": 12
    },
    {
      "type": "VEC2",
      "componentType": 5126,
      "count": 250,
      "bufferView": 5,
      "byteOffset": 24
    }
  ],
  "bufferViews": [
    {
      "buffer": 0,
      "byteOffset": 0,
      "byteLength": 165816,
      "target": 34963
    },
    {
      "buffer": 0,
      "byteOffset": 165816,
      "byteLength": 844544,
      "byteStride": 32,
      "target": 34962
    },
    {
      "buffer": 0,
      "byteOffset": 1010360,
      "byteLength": 162304,
      "byteStride": 32,
      "target": 34962
    },
    {
      "buffer": 0,
      "byteOffset": 1172664,
      "byteLength": 480960,
      "byteStride": 32,
      "target": 34962
    },
    {
      "buffer": 0,
      "byteOffset": 1653624,
      "byteLength": 326656,
      "byteStride": 32,
      "target": 34962
    },
    {
      "buffer": 0,
      "byteOffset": 1980280,
      "byteLength": 8000,
      "byteStride": 32,
      "target": 34962
    }
  ],
  "samplers": [
    {
      "magFilter": 9729,
      "minFilter": 9987,
      "wrapS": 10497,
      "wrapT": 10497
    }
  ],
  "textures": [
    {
      "source": 0,
      "sampler": 0
    },
    {
      "source": 1,
      "sampler": 0
    },
    {
      "source": 2,
      "sampler": 0
    },
    {
      "source": 4,
      "sampler": 0
    },
    {
      "source": 3,
      "sampler": 0
    },
    {
      "source": 5,
      "sampler": 0
    }
  ],
  "images": [
    {
      "name": "hull_VDarkGray",
      "mimeType": "image/png",
      "uri": "hull_VDarkGray.png"
    },
    {
      "name": "Cracked_Flesh_DarkRed",
      "mimeType": "image/png",
      "uri": "Cracked_Flesh_DarkRed.png"
    },
    {
      "name": "OrangeExaust",
      "mimeType": "image/png",
      "uri": "OrangeExaust.png"
    },
    {
      "name": "RedBrownVeinedFlesh_glow",
      "mimeType": "image/png",
      "uri": "RedBrownVeinedFlesh_glow.png"
    },
    {
      "name": "RedBrownVeinedFlesh",
      "mimeType": "image/png",
      "uri": "RedBrownVeinedFlesh.png"
    },
    {
      "name": "gradient_soromid",
      "mimeType": "image/png",
      "uri": "gradient_soromid.png"
    }
  ],
  "buffers": [
    {
      "uri": "vox.bin",
      "byteLength": 1988280
    }
  ],
  "materials": [
    {
      "name": "soromid_hull",
      "pbrMetallicRoughness": {
        "roughnessFactor": 0.6000000238418579,
        "metallicFactor": 0.20000000298023224,
        "baseColorTexture": {
          "index": 0
        }
      }
    },
    {
      "name": "soromid_carapace",
      "pbrMetallicRoughness": {
        "roughnessFactor": 0.75,
        "metallicFactor": 0,
        "baseColorTexture": {
          "index": 1
        }
      }
    },
    {
      "name": "soromid_glow",
      "alphaMode": "BLEND",
      "pbrMetallicRoughness": {
        "baseColorFactor": [
          0.4171862304210663,
          0.28630998730659485,
          0.013797817751765251,
          1
        ],
        "roughnessFactor": 0.5,
        "metallicFactor": 0,
        "baseColorTexture": {
          "index": 2
        }
      },
      "emissiveFactor": [
        1,
        1,
        1
      ],
      "emissiveTexture": {
        "index": 2
      },
      "extensions": {
        "KHR_materials_emissive_strength": {
          "emissiveStrength": 2
        }
      }
    },
    {
      "name": "soromid_flesh",
      "pbrMetallicRoughness": {
        "roughnessFactor": 0.8999999761581421,
        "metallicFactor": 0,
        "baseColorTexture": {
          "index": 3
        }
      },
      "emissiveFactor": [
        1,
        1,
        1
      ],
      "emissiveTexture": {
        "index": 4
      }
    },
    {
      "name": "soromid_engine_glow",
      "alphaMode": "BLEND",
      "pbrMetallicRoughness": {
        "roughnessFactor": 0.75,
        "metallicFactor": 0,
        "baseColorTexture": {
          "index": 5
        }
      },
      "emissiveFactor": [
        1,
        1,
        1
      ],
      "emissiveTexture": {
        "index": 5
      },
      "extensions": {
        "KHR_materials_emissive_strength": {
          "emissiveStrength": 2
        }
      }
    }
  ],
  "meshes": [
    {
      "name": "body",
      "primitives": [
        {
          "attributes": {
            "POSITION": 5,
            "NORMAL": 6,
            "TEXCOORD_0": 7
          },
          "mode": 4,
          "material": 0,
          "indices": 0
        },
        {
          "attributes": {
            "POSITION": 8,
            "NORMAL": 9,
            "TEXCOORD_0": 10
          },
          "mode": 4,
          "material": 1,
          "indices": 1
        },
        {
          "attributes": {
            "POSITION": 11,
            "NORMAL": 12,
            "TEXCOORD_0": 13
          },
          "mode": 4,
          "material": 2,
          "indices": 2
        },
        {
          "attributes": {
            "POSITION": 14,
            "NORMAL": 15,
            "TEXCOORD_0": 16
          },
          "mode": 4,
          "material": 3,
          "indices": 3
        }
      ]
    },
    {
      "name": "engine",
      "primitives": [
        {
          "attributes": {
            "POSITION": 17,
            "NORMAL": 18,
            "TEXCOORD_0": 19
          },
          "mode": 4,
          "material": 4,
          "indices": 4
        }
      ]
    }
  ],
  "nodes": [
    {
      "name": "body",
      "rotation": [
        -0.5,
        0.5,
        -0.5,
        0.4999999701976776
      ],
      "scale": [
        0.12065837532281876,
        0.08197485655546188,
        0.23359708487987518
      ],
      "mesh": 0
    },
    {
      "name": "engine",
      "rotation": [
        -0.7071068286895752,
        0,
        0,
        0.7071067690849304
      ],
      "scale": [
        0.15039244294166565,
        0.4366697072982788,
        0.15039244294166565
      ],
      "mesh": 1
    },
    {
      "name": "body",
      "rotation": [
        -0.5,
        0.5,
        -0.5,
        0.4999999701976776
      ],
      "scale": [
        0.12065837532281876,
        0.08197485655546188,
        0.23359708487987518
      ],
      "mesh": 0
    }
  ],
  "scenes": [
    {
      "name": "base",
      "nodes": [
        0
      ]
    },
    {
      "name": "engine",
      "nodes": [
        1,
        2
      ]
    }
  ],
  "scene": 1,
  "extensionsUsed": [
    "KHR_materials_emissive_strength"
  ]
}
