{
  "asset": {
    "generator": "glTF-Transform v4.0.1",
    "version": "2.0"
  },
  "accessors": [
    {
      "type": "SCALAR",
      "componentType": 5123,
      "count": 726,
      "bufferView": 0,
      "byteOffset": 0
    },
    {
      "type": "SCALAR",
      "componentType": 5123,
      "count": 7752,
      "bufferView": 0,
      "byteOffset": 1452
    },
    {
      "type": "SCALAR",
      "componentType": 5123,
      "count": 3840,
      "bufferView": 0,
      "byteOffset": 16956
    },
    {
      "type": "VEC3",
      "componentType": 5126,
      "count": 344,
      "max": [
        2.3000001907348633,
        2.0196151733398438,
        2
      ],
      "min": [
        -2.3000001907348633,
        -2.0196151733398438,
        -5.866024971008301
      ],
      "bufferView": 1,
      "byteOffset": 0
    },
    {
      "type": "VEC3",
      "componentType": 5126,
      "count": 344,
      "bufferView": 1,
      "byteOffset": 12
    },
    {
      "type": "VEC3",
      "componentType": 5126,
      "count": 2596,
      "max": [
        1.875000238418579,
        2.053687334060669,
        2.049999952316284
      ],
      "min": [
        -1.875000238418579,
        -2.053687334060669,
        -5.8882832527160645
      ],
      "bufferView": 2,
      "byteOffset": 0
    },
    {
      "type": "VEC3",
      "componentType": 5126,
      "count": 2596,
      "bufferView": 2,
      "byteOffset": 12
    },
    {
      "type": "VEC3",
      "componentType": 5126,
      "count": 642,
      "max": [
        1.4999998807907104,
        1.5,
        1.5
      ],
      "min": [
        -1.5,
        -1.5,
        -1.5
      ],
      "bufferView": 3,
      "byteOffset": 0
    },
    {
      "type": "VEC3",
      "componentType": 5126,
      "count": 642,
      "bufferView": 3,
      "byteOffset": 12
    },
    {
      "type": "SCALAR",
      "componentType": 5126,
      "count": 5,
      "max": [
        4.208333492279053
      ],
      "min": [
        0.0416666679084301
      ],
      "bufferView": 4,
      "byteOffset": 0
    },
    {
      "type": "VEC4",
      "componentType": 5126,
      "count": 5,
      "bufferView": 4,
      "byteOffset": 20
    }
  ],
  "bufferViews": [
    {
      "buffer": 0,
      "byteOffset": 0,
      "byteLength": 24636,
      "target": 34963
    },
    {
      "buffer": 0,
      "byteOffset": 24636,
      "byteLength": 8256,
      "byteStride": 24,
      "target": 34962
    },
    {
      "buffer": 0,
      "byteOffset": 32892,
      "byteLength": 62304,
      "byteStride": 24,
      "target": 34962
    },
    {
      "buffer": 0,
      "byteOffset": 95196,
      "byteLength": 15408,
      "byteStride": 24,
      "target": 34962
    },
    {
      "buffer": 0,
      "byteOffset": 110604,
      "byteLength": 100
    }
  ],
  "buffers": [
    {
      "uri": "apparition_corvette.bin",
      "byteLength": 110704
    }
  ],
  "materials": [
    {
      "name": "White",
      "alphaMode": "BLEND",
      "pbrMetallicRoughness": {
        "baseColorFactor": [
          0.800000011920929,
          0.800000011920929,
          0.800000011920929,
          0.5
        ],
        "roughnessFactor": 0.5,
        "metallicFactor": 0
      }
    },
    {
      "name": "Black",
      "pbrMetallicRoughness": {
        "baseColorFactor": [
          0,
          0,
          0,
          1
        ],
        "roughnessFactor": 0.5,
        "metallicFactor": 0
      }
    }
  ],
  "meshes": [
    {
      "name": "Cube",
      "primitives": [
        {
          "attributes": {
            "POSITION": 3,
            "NORMAL": 4
          },
          "mode": 4,
          "material": 0,
          "indices": 0
        }
      ]
    },
    {
      "name": "Cube.006",
      "primitives": [
        {
          "attributes": {
            "POSITION": 5,
            "NORMAL": 6
          },
          "mode": 4,
          "material": 1,
          "indices": 1
        }
      ]
    },
    {
      "name": "Icosphere.001",
      "primitives": [
        {
          "attributes": {
            "POSITION": 7,
            "NORMAL": 8
          },
          "mode": 4,
          "material": 0,
          "indices": 2
        }
      ]
    }
  ],
  "nodes": [
    {
      "name": "Cube",
      "translation": [
        0,
        0,
        3
      ],
      "mesh": 0
    },
    {
      "name": "Cube.002",
      "translation": [
        0,
        0,
        3
      ],
      "mesh": 1
    },
    {
      "name": "Icosphere",
      "mesh": 2,
      "children": [
        0,
        1
      ]
    }
  ],
  "animations": [
    {
      "name": "rotate",
      "samplers": [
        {
          "input": 9,
          "output": 10,
          "interpolation": "LINEAR"
        }
      ],
      "channels": [
        {
          "sampler": 0,
          "target": {
            "node": 2,
            "path": "rotation"
          }
        }
      ]
    }
  ],
  "scenes": [
    {
      "name": "base",
      "nodes": [
        2
      ]
    }
  ],
  "scene": 0
}
