{
  "asset": {
    "generator": "glTF-Transform v3.10.0",
    "version": "2.0"
  },
  "accessors": [
    {
      "type": "SCALAR",
      "componentType": 5123,
      "count": 14736,
      "bufferView": 0,
      "byteOffset": 0
    },
    {
      "type": "SCALAR",
      "componentType": 5123,
      "count": 5664,
      "bufferView": 0,
      "byteOffset": 29472
    },
    {
      "type": "VEC3",
      "componentType": 5126,
      "count": 6168,
      "max": [
        3.9143381118774414,
        1.0653986930847168,
        5.100000381469727
      ],
      "min": [
        -3.9143381118774414,
        -1.0653986930847168,
        -4.5
      ],
      "bufferView": 1,
      "byteOffset": 0
    },
    {
      "type": "VEC3",
      "componentType": 5126,
      "count": 6168,
      "bufferView": 1,
      "byteOffset": 12
    },
    {
      "type": "VEC2",
      "componentType": 5126,
      "count": 6168,
      "bufferView": 1,
      "byteOffset": 24
    },
    {
      "type": "VEC3",
      "componentType": 5126,
      "count": 1846,
      "max": [
        1.7499998807907104,
        -2.766666889190674,
        0.49999991059303284
      ],
      "min": [
        -1.7499998807907104,
        -3.544451951980591,
        -0.49999916553497314
      ],
      "bufferView": 2,
      "byteOffset": 0
    },
    {
      "type": "VEC3",
      "componentType": 5126,
      "count": 1846,
      "bufferView": 2,
      "byteOffset": 12
    },
    {
      "type": "VEC2",
      "componentType": 5126,
      "count": 1846,
      "bufferView": 2,
      "byteOffset": 24
    }
  ],
  "bufferViews": [
    {
      "buffer": 0,
      "byteOffset": 0,
      "byteLength": 40800,
      "target": 34963
    },
    {
      "buffer": 0,
      "byteOffset": 40800,
      "byteLength": 197376,
      "byteStride": 32,
      "target": 34962
    },
    {
      "buffer": 0,
      "byteOffset": 238176,
      "byteLength": 59072,
      "byteStride": 32,
      "target": 34962
    }
  ],
  "samplers": [
    {
      "magFilter": 9729,
      "minFilter": 9987,
      "wrapS": 10497,
      "wrapT": 10497
    }
  ],
  "textures": [
    {
      "source": 3,
      "sampler": 0
    },
    {
      "source": 0,
      "sampler": 0
    },
    {
      "source": 1,
      "sampler": 0
    },
    {
      "source": 2,
      "sampler": 0
    },
    {
      "source": 4,
      "sampler": 0
    },
    {
      "source": 5,
      "sampler": 0
    }
  ],
  "images": [
    {
      "name": "drone_carrier_emit",
      "mimeType": "image/png",
      "uri": "drone_carrier_emit.png"
    },
    {
      "name": "drone_carrier_normal",
      "mimeType": "image/png",
      "uri": "drone_carrier_normal.png"
    },
    {
      "name": "AO_bake-drone_carrier_roughness-drone_carrier_metallic",
      "mimeType": "image/png",
      "uri": "AO_bake-drone_carrier_roughness-drone_carrier_metallic.png"
    },
    {
      "name": "drone_carrier_diffuse",
      "mimeType": "image/png",
      "uri": "drone_carrier_diffuse.png"
    },
    {
      "name": "gradient_purple",
      "mimeType": "image/png",
      "uri": "gradient_purple.png"
    },
    {
      "name": "GLO_bake",
      "mimeType": "image/png",
      "uri": "GLO_bake.png"
    }
  ],
  "buffers": [
    {
      "uri": "drone_carrier.bin",
      "byteLength": 297248
    }
  ],
  "materials": [
    {
      "name": "base",
      "pbrMetallicRoughness": {
        "baseColorTexture": {
          "index": 0
        },
        "metallicRoughnessTexture": {
          "index": 3
        }
      },
      "emissiveFactor": [
        1,
        1,
        1
      ],
      "emissiveTexture": {
        "index": 1
      },
      "normalTexture": {
        "index": 2
      },
      "occlusionTexture": {
        "index": 3
      }
    },
    {
      "name": "engine glow.001",
      "alphaMode": "BLEND",
      "pbrMetallicRoughness": {
        "baseColorFactor": [
          0.45641109347343445,
          0.20155631005764008,
          1,
          1
        ],
        "roughnessFactor": 0.75,
        "metallicFactor": 0,
        "baseColorTexture": {
          "index": 4
        }
      },
      "emissiveFactor": [
        1,
        1,
        1
      ],
      "emissiveTexture": {
        "index": 4
      }
    },
    {
      "name": "base_glow.001",
      "pbrMetallicRoughness": {
        "baseColorTexture": {
          "index": 0
        },
        "metallicRoughnessTexture": {
          "index": 3
        }
      },
      "emissiveFactor": [
        1,
        1,
        1
      ],
      "emissiveTexture": {
        "index": 5
      },
      "normalTexture": {
        "index": 2
      },
      "occlusionTexture": {
        "index": 3
      }
    }
  ],
  "meshes": [
    {
      "name": "base",
      "primitives": [
        {
          "attributes": {
            "POSITION": 2,
            "NORMAL": 3,
            "TEXCOORD_0": 4
          },
          "mode": 4,
          "material": 0,
          "indices": 0
        }
      ]
    },
    {
      "name": "Sphere.002",
      "primitives": [
        {
          "attributes": {
            "POSITION": 5,
            "NORMAL": 6,
            "TEXCOORD_0": 7
          },
          "mode": 4,
          "material": 1,
          "indices": 1
        }
      ]
    },
    {
      "name": "Cube.001",
      "primitives": [
        {
          "attributes": {
            "POSITION": 2,
            "NORMAL": 3,
            "TEXCOORD_0": 4
          },
          "mode": 4,
          "material": 2,
          "indices": 0
        }
      ]
    }
  ],
  "nodes": [
    {
      "name": "base",
      "mesh": 0
    },
    {
      "name": "Sphere.002",
      "translation": [
        0,
        0,
        -1.4763243198394775
      ],
      "rotation": [
        0.7071068286895752,
        0,
        0,
        0.7071068286895752
      ],
      "mesh": 1
    },
    {
      "name": "base_glow",
      "mesh": 2
    }
  ],
  "scenes": [
    {
      "name": "base",
      "nodes": [
        0
      ]
    },
    {
      "name": "engine",
      "nodes": [
        1,
        2
      ]
    }
  ],
  "scene": 1
}
