{
  "asset": {
    "generator": "glTF-Transform v4.0.1",
    "version": "2.0"
  },
  "accessors": [
    {
      "type": "SCALAR",
      "componentType": 5123,
      "count": 4512,
      "bufferView": 0,
      "byteOffset": 0
    },
    {
      "type": "SCALAR",
      "componentType": 5123,
      "count": 3636,
      "bufferView": 0,
      "byteOffset": 9024
    },
    {
      "type": "SCALAR",
      "componentType": 5123,
      "count": 1104,
      "bufferView": 0,
      "byteOffset": 16296
    },
    {
      "type": "SCALAR",
      "componentType": 5123,
      "count": 8832,
      "bufferView": 0,
      "byteOffset": 18504
    },
    {
      "type": "SCALAR",
      "componentType": 5123,
      "count": 3096,
      "bufferView": 0,
      "byteOffset": 36168
    },
    {
      "type": "SCALAR",
      "componentType": 5123,
      "count": 1152,
      "bufferView": 0,
      "byteOffset": 42360
    },
    {
      "type": "SCALAR",
      "componentType": 5123,
      "count": 180,
      "bufferView": 0,
      "byteOffset": 44664
    },
    {
      "type": "VEC3",
      "componentType": 5126,
      "count": 3112,
      "max": [
        2.4675731658935547,
        0.8526234030723572,
        4.103809833526611
      ],
      "min": [
        -2.47040057182312,
        -1.0217679738998413,
        -3.1776480674743652
      ],
      "bufferView": 1,
      "byteOffset": 0
    },
    {
      "type": "VEC3",
      "componentType": 5126,
      "count": 3112,
      "bufferView": 1,
      "byteOffset": 12
    },
    {
      "type": "VEC2",
      "componentType": 5126,
      "count": 3112,
      "bufferView": 1,
      "byteOffset": 24
    },
    {
      "type": "VEC3",
      "componentType": 5126,
      "count": 2490,
      "max": [
        2.2686455249786377,
        52.00012969970703,
        0.6616221070289612
      ],
      "min": [
        -9.51742935180664,
        -25.413171768188477,
        -2.1041457653045654
      ],
      "bufferView": 2,
      "byteOffset": 0
    },
    {
      "type": "VEC3",
      "componentType": 5126,
      "count": 2490,
      "bufferView": 2,
      "byteOffset": 12
    },
    {
      "type": "VEC2",
      "componentType": 5126,
      "count": 2490,
      "bufferView": 2,
      "byteOffset": 24
    },
    {
      "type": "VEC3",
      "componentType": 5126,
      "count": 736,
      "max": [
        1.5919922590255737,
        6.35850191116333,
        15.256707191467285
      ],
      "min": [
        -4.583742141723633,
        -18.394577026367188,
        -15.229280471801758
      ],
      "bufferView": 3,
      "byteOffset": 0
    },
    {
      "type": "VEC3",
      "componentType": 5126,
      "count": 736,
      "bufferView": 3,
      "byteOffset": 12
    },
    {
      "type": "VEC3",
      "componentType": 5126,
      "count": 5078,
      "max": [
        5.604643821716309,
        32.87822723388672,
        20.936988830566406
      ],
      "min": [
        -1.9802325963974,
        -22.628549575805664,
        -20.936988830566406
      ],
      "bufferView": 4,
      "byteOffset": 0
    },
    {
      "type": "VEC2",
      "componentType": 5126,
      "count": 5078,
      "bufferView": 4,
      "byteOffset": 12
    },
    {
      "type": "VEC3",
      "componentType": 5126,
      "count": 5078,
      "bufferView": 4,
      "byteOffset": 20
    },
    {
      "type": "VEC3",
      "componentType": 5126,
      "count": 1584,
      "max": [
        8.63997745513916,
        26.580541610717773,
        3.1192617416381836
      ],
      "min": [
        -8.709038734436035,
        -17.350008010864258,
        -1.7676763534545898
      ],
      "bufferView": 5,
      "byteOffset": 0
    },
    {
      "type": "VEC3",
      "componentType": 5126,
      "count": 1584,
      "bufferView": 5,
      "byteOffset": 12
    },
    {
      "type": "VEC2",
      "componentType": 5126,
      "count": 1584,
      "bufferView": 5,
      "byteOffset": 24
    },
    {
      "type": "VEC3",
      "componentType": 5126,
      "count": 200,
      "max": [
        7.591786861419678,
        7.998704433441162,
        1.0568119287490845
      ],
      "min": [
        -7.432233810424805,
        4.537214756011963,
        -4.099355697631836
      ],
      "bufferView": 6,
      "byteOffset": 0
    },
    {
      "type": "VEC3",
      "componentType": 5126,
      "count": 200,
      "bufferView": 6,
      "byteOffset": 12
    },
    {
      "type": "VEC2",
      "componentType": 5126,
      "count": 200,
      "bufferView": 6,
      "byteOffset": 24
    },
    {
      "type": "VEC3",
      "componentType": 5126,
      "count": 64,
      "max": [
        0.12739108502864838,
        0.25,
        0.6273910999298096
      ],
      "min": [
        -0.12739118933677673,
        0,
        -0.12739115953445435
      ],
      "bufferView": 7,
      "byteOffset": 0
    },
    {
      "type": "VEC3",
      "componentType": 5126,
      "count": 64,
      "bufferView": 7,
      "byteOffset": 12
    },
    {
      "type": "VEC2",
      "componentType": 5126,
      "count": 64,
      "bufferView": 7,
      "byteOffset": 24
    }
  ],
  "bufferViews": [
    {
      "buffer": 0,
      "byteOffset": 0,
      "byteLength": 45024,
      "target": 34963
    },
    {
      "buffer": 0,
      "byteOffset": 45024,
      "byteLength": 99584,
      "byteStride": 32,
      "target": 34962
    },
    {
      "buffer": 0,
      "byteOffset": 144608,
      "byteLength": 79680,
      "byteStride": 32,
      "target": 34962
    },
    {
      "buffer": 0,
      "byteOffset": 224288,
      "byteLength": 17664,
      "byteStride": 24,
      "target": 34962
    },
    {
      "buffer": 0,
      "byteOffset": 241952,
      "byteLength": 162496,
      "byteStride": 32,
      "target": 34962
    },
    {
      "buffer": 0,
      "byteOffset": 404448,
      "byteLength": 50688,
      "byteStride": 32,
      "target": 34962
    },
    {
      "buffer": 0,
      "byteOffset": 455136,
      "byteLength": 6400,
      "byteStride": 32,
      "target": 34962
    },
    {
      "buffer": 0,
      "byteOffset": 461536,
      "byteLength": 2048,
      "byteStride": 32,
      "target": 34962
    }
  ],
  "samplers": [
    {
      "magFilter": 9729,
      "minFilter": 9987,
      "wrapS": 10497,
      "wrapT": 10497
    }
  ],
  "textures": [
    {
      "sampler": 0,
      "extensions": {
        "EXT_texture_webp": {
          "source": 0
        }
      }
    },
    {
      "sampler": 0,
      "extensions": {
        "EXT_texture_webp": {
          "source": 1
        }
      }
    },
    {
      "sampler": 0,
      "extensions": {
        "EXT_texture_webp": {
          "source": 2
        }
      }
    },
    {
      "sampler": 0,
      "extensions": {
        "EXT_texture_webp": {
          "source": 4
        }
      }
    },
    {
      "sampler": 0,
      "extensions": {
        "EXT_texture_webp": {
          "source": 3
        }
      }
    },
    {
      "sampler": 0,
      "extensions": {
        "EXT_texture_webp": {
          "source": 5
        }
      }
    },
    {
      "sampler": 0,
      "extensions": {
        "EXT_texture_webp": {
          "source": 6
        }
      }
    }
  ],
  "images": [
    {
      "name": "Cracked_Flesh_DarkRed",
      "mimeType": "image/webp",
      "uri": "Cracked_Flesh_DarkRed.webp"
    },
    {
      "name": "wall06_red",
      "mimeType": "image/webp",
      "uri": "wall06_red.webp"
    },
    {
      "name": "hull_VDarkGray",
      "mimeType": "image/webp",
      "uri": "hull_VDarkGray.webp"
    },
    {
      "name": "RedBrownVeinedFlesh_glow",
      "mimeType": "image/webp",
      "uri": "RedBrownVeinedFlesh_glow.webp"
    },
    {
      "name": "RedBrownVeinedFlesh",
      "mimeType": "image/webp",
      "uri": "RedBrownVeinedFlesh.webp"
    },
    {
      "name": "OrangeExaust",
      "mimeType": "image/webp",
      "uri": "OrangeExaust.webp"
    },
    {
      "name": "gradient_soromid",
      "mimeType": "image/webp",
      "uri": "gradient_soromid.webp"
    }
  ],
  "buffers": [
    {
      "uri": "revenant.bin",
      "byteLength": 463584
    }
  ],
  "materials": [
    {
      "name": "soromid_carapace",
      "pbrMetallicRoughness": {
        "roughnessFactor": 0.75,
        "metallicFactor": 0,
        "baseColorTexture": {
          "index": 0
        }
      }
    },
    {
      "name": "Material",
      "pbrMetallicRoughness": {
        "roughnessFactor": 0.30000001192092896,
        "metallicFactor": 0.699999988079071,
        "baseColorTexture": {
          "index": 1
        }
      }
    },
    {
      "name": "revenant_glow",
      "alphaMode": "BLEND",
      "pbrMetallicRoughness": {
        "baseColorFactor": [
          1,
          0,
          0.005327397026121616,
          1
        ],
        "metallicFactor": 0
      },
      "emissiveFactor": [
        0.800000011920929,
        0,
        0.002379165997790783
      ]
    },
    {
      "name": "metal",
      "pbrMetallicRoughness": {
        "roughnessFactor": 0.20000000298023224,
        "metallicFactor": 0.699999988079071,
        "baseColorTexture": {
          "index": 2
        }
      }
    },
    {
      "name": "soromid_flesh",
      "pbrMetallicRoughness": {
        "roughnessFactor": 0.8999999761581421,
        "metallicFactor": 0,
        "baseColorTexture": {
          "index": 3
        }
      },
      "emissiveFactor": [
        1,
        1,
        1
      ],
      "emissiveTexture": {
        "index": 4
      }
    },
    {
      "name": "soromid_glow",
      "alphaMode": "BLEND",
      "pbrMetallicRoughness": {
        "baseColorFactor": [
          0.4171862304210663,
          0.28630998730659485,
          0.013797817751765251,
          1
        ],
        "roughnessFactor": 0.5,
        "metallicFactor": 0,
        "baseColorTexture": {
          "index": 5
        }
      },
      "emissiveFactor": [
        1,
        1,
        1
      ],
      "emissiveTexture": {
        "index": 5
      },
      "extensions": {
        "KHR_materials_emissive_strength": {
          "emissiveStrength": 2
        }
      }
    },
    {
      "name": "soromid_engine_glow",
      "alphaMode": "BLEND",
      "pbrMetallicRoughness": {
        "roughnessFactor": 0.75,
        "metallicFactor": 0,
        "baseColorTexture": {
          "index": 6
        }
      },
      "emissiveFactor": [
        1,
        1,
        1
      ],
      "emissiveTexture": {
        "index": 6
      },
      "extensions": {
        "KHR_materials_emissive_strength": {
          "emissiveStrength": 2
        }
      }
    }
  ],
  "meshes": [
    {
      "name": "Cube",
      "primitives": [
        {
          "attributes": {
            "POSITION": 7,
            "NORMAL": 8,
            "TEXCOORD_0": 9
          },
          "mode": 4,
          "material": 0,
          "indices": 0
        }
      ]
    },
    {
      "name": "Cube.001",
      "primitives": [
        {
          "attributes": {
            "POSITION": 10,
            "NORMAL": 11,
            "TEXCOORD_0": 12
          },
          "mode": 4,
          "material": 1,
          "indices": 1
        }
      ]
    },
    {
      "name": "Cube.045",
      "primitives": [
        {
          "attributes": {
            "POSITION": 13,
            "NORMAL": 14
          },
          "mode": 4,
          "material": 2,
          "indices": 2
        }
      ]
    },
    {
      "name": "Cube.043",
      "primitives": [
        {
          "attributes": {
            "POSITION": 15,
            "TEXCOORD_0": 16,
            "NORMAL": 17
          },
          "mode": 4,
          "material": 3,
          "indices": 3
        }
      ]
    },
    {
      "name": "Cube.042",
      "primitives": [
        {
          "attributes": {
            "POSITION": 18,
            "NORMAL": 19,
            "TEXCOORD_0": 20
          },
          "mode": 4,
          "material": 4,
          "indices": 4
        }
      ]
    },
    {
      "name": "Cylinder",
      "primitives": [
        {
          "attributes": {
            "POSITION": 24,
            "NORMAL": 25,
            "TEXCOORD_0": 26
          },
          "mode": 4,
          "material": 5,
          "indices": 6
        }
      ]
    },
    {
      "name": "Cone.000",
      "primitives": [
        {
          "attributes": {
            "POSITION": 21,
            "NORMAL": 22,
            "TEXCOORD_0": 23
          },
          "mode": 4,
          "material": 6,
          "indices": 5
        }
      ]
    },
    {
      "name": "Cube",
      "primitives": [
        {
          "attributes": {
            "POSITION": 7,
            "NORMAL": 8,
            "TEXCOORD_0": 9
          },
          "mode": 4,
          "material": 0,
          "indices": 0
        }
      ]
    },
    {
      "name": "Cube.001",
      "primitives": [
        {
          "attributes": {
            "POSITION": 10,
            "NORMAL": 11,
            "TEXCOORD_0": 12
          },
          "mode": 4,
          "material": 1,
          "indices": 1
        }
      ]
    },
    {
      "name": "Cube.045",
      "primitives": [
        {
          "attributes": {
            "POSITION": 13,
            "NORMAL": 14
          },
          "mode": 4,
          "material": 2,
          "indices": 2
        }
      ]
    },
    {
      "name": "Cube.043",
      "primitives": [
        {
          "attributes": {
            "POSITION": 15,
            "TEXCOORD_0": 16,
            "NORMAL": 17
          },
          "mode": 4,
          "material": 3,
          "indices": 3
        }
      ]
    },
    {
      "name": "Cylinder",
      "primitives": [
        {
          "attributes": {
            "POSITION": 24,
            "NORMAL": 25,
            "TEXCOORD_0": 26
          },
          "mode": 4,
          "material": 5,
          "indices": 6
        }
      ]
    },
    {
      "name": "Cube.042",
      "primitives": [
        {
          "attributes": {
            "POSITION": 18,
            "NORMAL": 19,
            "TEXCOORD_0": 20
          },
          "mode": 4,
          "material": 4,
          "indices": 4
        }
      ]
    }
  ],
  "nodes": [
    {
      "name": "Cube",
      "translation": [
        0,
        -0.20000000298023224,
        0
      ],
      "mesh": 7
    },
    {
      "name": "Cube.001",
      "translation": [
        0,
        0,
        1.0499999523162842
      ],
      "rotation": [
        0.3409659297614058,
        -0.0737274232488558,
        0.9367958187734046,
        0.02683459541398388
      ],
      "scale": [
        0.4012206686363764,
        0.03781157020875571,
        1.8774864181636597
      ],
      "mesh": 8
    },
    {
      "name": "Cube.002",
      "rotation": [
        -0.5030506364977113,
        -0.4969306996571419,
        0.4969306401900986,
        0.5030506027700667
      ],
      "scale": [
        0.15107798913961534,
        0.09543758101606865,
        0.12985493536516823
      ],
      "mesh": 9
    },
    {
      "name": "Cube.005",
      "rotation": [
        0.5,
        -0.5,
        0.5,
        -0.5
      ],
      "scale": [
        0.12311222404241562,
        0.08364198356866837,
        0.09984833002090454
      ],
      "mesh": 10
    },
    {
      "name": "Cube.007",
      "rotation": [
        -0.002207832620351721,
        -0.7071033045177356,
        0.7071033641226724,
        0.00220786354000649
      ],
      "scale": [
        0.13517925716576515,
        0.09184051499818735,
        0.26171437460869756
      ],
      "mesh": 12
    },
    {
      "name": "Cylinder",
      "translation": [
        0,
        0.009999999776482582,
        -2.25
      ],
      "rotation": [
        0.7071068286895689,
        0,
        0,
        0.7071067336835231
      ],
      "mesh": 11
    },
    {
      "name": "Cone.000",
      "rotation": [
        -0.7071068286895689,
        0,
        0,
        0.7071067336835231
      ],
      "scale": [
        0.158420130610466,
        0.4599785230677481,
        0.158420151895615
      ],
      "mesh": 6
    },
    {
      "name": "Cube",
      "translation": [
        0,
        -0.20000000298023224,
        0
      ],
      "mesh": 0
    },
    {
      "name": "Cube.001",
      "translation": [
        0,
        0,
        1.0499999523162842
      ],
      "rotation": [
        0.3409659297614058,
        -0.0737274232488558,
        0.9367958187734046,
        0.02683459541398388
      ],
      "scale": [
        0.4012206686363764,
        0.03781157020875571,
        1.8774864181636597
      ],
      "mesh": 1
    },
    {
      "name": "Cube.002",
      "rotation": [
        -0.5030506364977113,
        -0.4969306996571419,
        0.4969306401900986,
        0.5030506027700667
      ],
      "scale": [
        0.15107798913961534,
        0.09543758101606865,
        0.12985493536516823
      ],
      "mesh": 2
    },
    {
      "name": "Cube.005",
      "rotation": [
        0.5,
        -0.5,
        0.5,
        -0.5
      ],
      "scale": [
        0.12311222404241562,
        0.08364198356866837,
        0.09984833002090454
      ],
      "mesh": 3
    },
    {
      "name": "Cube.007",
      "rotation": [
        -0.002207832620351721,
        -0.7071033045177356,
        0.7071033641226724,
        0.00220786354000649
      ],
      "scale": [
        0.13517925716576515,
        0.09184051499818735,
        0.26171437460869756
      ],
      "mesh": 4
    },
    {
      "name": "Cylinder",
      "translation": [
        0,
        0.009999999776482582,
        -2.25
      ],
      "rotation": [
        0.7071068286895689,
        0,
        0,
        0.7071067336835231
      ],
      "mesh": 5
    }
  ],
  "scenes": [
    {
      "name": "base",
      "nodes": [
        0,
        1,
        2,
        3,
        4,
        5
      ]
    },
    {
      "name": "engine",
      "nodes": [
        6,
        7,
        8,
        9,
        10,
        11,
        12
      ]
    }
  ],
  "scene": 1,
  "extensionsUsed": [
    "EXT_texture_webp",
    "KHR_materials_emissive_strength"
  ],
  "extensionsRequired": [
    "EXT_texture_webp"
  ]
}
