{
  "asset": {
    "generator": "glTF-Transform v4.0.1",
    "version": "2.0"
  },
  "accessors": [
    {
      "type": "SCALAR",
      "componentType": 5123,
      "count": 9216,
      "bufferView": 0,
      "byteOffset": 0
    },
    {
      "type": "SCALAR",
      "componentType": 5123,
      "count": 720,
      "bufferView": 0,
      "byteOffset": 18432
    },
    {
      "type": "VEC3",
      "componentType": 5126,
      "count": 6482,
      "max": [
        9.316581726074219,
        12.67192268371582,
        10.42440128326416
      ],
      "min": [
        -9.788396835327148,
        -12.563952445983887,
        -11.099976539611816
      ],
      "bufferView": 1,
      "byteOffset": 0
    },
    {
      "type": "VEC3",
      "componentType": 5126,
      "count": 6482,
      "bufferView": 1,
      "byteOffset": 12
    },
    {
      "type": "VEC2",
      "componentType": 5126,
      "count": 6482,
      "bufferView": 1,
      "byteOffset": 24
    },
    {
      "type": "VEC3",
      "componentType": 5126,
      "count": 496,
      "max": [
        1.25,
        0.3940684497356415,
        1.25
      ],
      "min": [
        -1.25,
        -2.8929078578948975,
        -1.25
      ],
      "bufferView": 2,
      "byteOffset": 0
    },
    {
      "type": "VEC3",
      "componentType": 5126,
      "count": 496,
      "bufferView": 2,
      "byteOffset": 12
    },
    {
      "type": "VEC2",
      "componentType": 5126,
      "count": 496,
      "bufferView": 2,
      "byteOffset": 24
    }
  ],
  "bufferViews": [
    {
      "buffer": 0,
      "byteOffset": 0,
      "byteLength": 19872,
      "target": 34963
    },
    {
      "buffer": 0,
      "byteOffset": 19872,
      "byteLength": 207424,
      "byteStride": 32,
      "target": 34962
    },
    {
      "buffer": 0,
      "byteOffset": 227296,
      "byteLength": 15872,
      "byteStride": 32,
      "target": 34962
    }
  ],
  "samplers": [
    {
      "magFilter": 9729,
      "minFilter": 9987,
      "wrapS": 10497,
      "wrapT": 10497
    },
    {
      "magFilter": 9729,
      "minFilter": 9987,
      "wrapS": 33648,
      "wrapT": 33648
    }
  ],
  "textures": [
    {
      "source": 2,
      "sampler": 0
    },
    {
      "source": 0,
      "sampler": 0
    },
    {
      "source": 1,
      "sampler": 0
    },
    {
      "source": 3,
      "sampler": 0
    },
    {
      "source": 4,
      "sampler": 1
    }
  ],
  "images": [
    {
      "name": "zalek_drone_bomberGLO",
      "mimeType": "image/png",
      "uri": "zalek_drone_bomberGLO.png"
    },
    {
      "name": "AO_bake_bomber",
      "mimeType": "image/png",
      "uri": "AO_bake_bomber.png"
    },
    {
      "name": "zalek_drone_bomber",
      "mimeType": "image/png",
      "uri": "zalek_drone_bomber.png"
    },
    {
      "name": "GLO_bake_bomber",
      "mimeType": "image/png",
      "uri": "GLO_bake_bomber.png"
    },
    {
      "name": "zalek_glow",
      "mimeType": "image/png",
      "uri": "zalek_glow.png"
    }
  ],
  "buffers": [
    {
      "uri": "zalek_drone_bomber.bin",
      "byteLength": 243168
    }
  ],
  "materials": [
    {
      "name": "base",
      "pbrMetallicRoughness": {
        "roughnessFactor": 0.699999988079071,
        "metallicFactor": 0.30000001192092896,
        "baseColorTexture": {
          "index": 0
        }
      },
      "emissiveFactor": [
        1,
        1,
        1
      ],
      "emissiveTexture": {
        "index": 1
      },
      "occlusionTexture": {
        "index": 2
      }
    },
    {
      "name": "base_glow",
      "pbrMetallicRoughness": {
        "roughnessFactor": 0.699999988079071,
        "metallicFactor": 0.30000001192092896,
        "baseColorTexture": {
          "index": 0
        }
      },
      "emissiveFactor": [
        1,
        1,
        1
      ],
      "emissiveTexture": {
        "index": 3
      },
      "occlusionTexture": {
        "index": 2
      }
    },
    {
      "name": "engine_glow_zalek_drone",
      "alphaMode": "BLEND",
      "pbrMetallicRoughness": {
        "metallicFactor": 0,
        "baseColorTexture": {
          "index": 4
        }
      },
      "emissiveFactor": [
        1,
        1,
        1
      ],
      "emissiveTexture": {
        "index": 4
      },
      "extensions": {
        "KHR_materials_emissive_strength": {
          "emissiveStrength": 2
        }
      }
    }
  ],
  "meshes": [
    {
      "name": "base",
      "primitives": [
        {
          "attributes": {
            "POSITION": 2,
            "NORMAL": 3,
            "TEXCOORD_0": 4
          },
          "mode": 4,
          "material": 0,
          "indices": 0
        }
      ]
    },
    {
      "name": "base",
      "primitives": [
        {
          "attributes": {
            "POSITION": 2,
            "NORMAL": 3,
            "TEXCOORD_0": 4
          },
          "mode": 4,
          "material": 1,
          "indices": 0
        }
      ]
    },
    {
      "name": "glow_torus",
      "primitives": [
        {
          "attributes": {
            "POSITION": 5,
            "NORMAL": 6,
            "TEXCOORD_0": 7
          },
          "mode": 4,
          "material": 2,
          "indices": 1
        }
      ]
    }
  ],
  "nodes": [
    {
      "name": "bose",
      "rotation": [
        0,
        0,
        0.9118561744689941,
        0.4105098843574524
      ],
      "scale": [
        0.3005445599555969,
        0.3005445599555969,
        0.3005445599555969
      ],
      "mesh": 0
    },
    {
      "name": "base_glow",
      "rotation": [
        0,
        0,
        0.9118561744689941,
        0.4105098843574524
      ],
      "scale": [
        0.3005445599555969,
        0.3005445599555969,
        0.3005445599555969
      ],
      "mesh": 1
    },
    {
      "name": "glow_torus",
      "translation": [
        0,
        0,
        -3.276623010635376
      ],
      "rotation": [
        0.7071068286895752,
        0,
        0,
        0.7071068286895752
      ],
      "scale": [
        0.8631265759468079,
        0.8631265759468079,
        0.8631265759468079
      ],
      "mesh": 2
    }
  ],
  "scenes": [
    {
      "name": "base",
      "nodes": [
        0
      ]
    },
    {
      "name": "engine",
      "nodes": [
        1,
        2
      ]
    }
  ],
  "scene": 0,
  "extensionsUsed": [
    "KHR_materials_emissive_strength"
  ]
}
