{
  "asset": {
    "generator": "glTF-Transform v4.0.1",
    "version": "2.0"
  },
  "accessors": [
    {
      "type": "SCALAR",
      "componentType": 5123,
      "count": 672,
      "bufferView": 0,
      "byteOffset": 0
    },
    {
      "type": "SCALAR",
      "componentType": 5123,
      "count": 10968,
      "bufferView": 0,
      "byteOffset": 1344
    },
    {
      "type": "SCALAR",
      "componentType": 5123,
      "count": 5844,
      "bufferView": 0,
      "byteOffset": 23280
    },
    {
      "type": "SCALAR",
      "componentType": 5123,
      "count": 5760,
      "bufferView": 0,
      "byteOffset": 34968
    },
    {
      "type": "SCALAR",
      "componentType": 5123,
      "count": 3456,
      "bufferView": 0,
      "byteOffset": 46488
    },
    {
      "type": "SCALAR",
      "componentType": 5123,
      "count": 1152,
      "bufferView": 0,
      "byteOffset": 53400
    },
    {
      "type": "SCALAR",
      "componentType": 5123,
      "count": 396,
      "bufferView": 0,
      "byteOffset": 55704
    },
    {
      "type": "SCALAR",
      "componentType": 5123,
      "count": 20736,
      "bufferView": 0,
      "byteOffset": 56496
    },
    {
      "type": "VEC3",
      "componentType": 5126,
      "count": 414,
      "max": [
        48.061492919921875,
        2.843435764312744,
        63.03371047973633
      ],
      "min": [
        -34.989322662353516,
        -4.147645950317383,
        -30.140478134155273
      ],
      "bufferView": 1,
      "byteOffset": 0
    },
    {
      "type": "VEC3",
      "componentType": 5126,
      "count": 414,
      "bufferView": 1,
      "byteOffset": 12
    },
    {
      "type": "VEC2",
      "componentType": 5126,
      "count": 414,
      "bufferView": 1,
      "byteOffset": 24
    },
    {
      "type": "VEC3",
      "componentType": 5126,
      "count": 7270,
      "max": [
        73.03325653076172,
        7.512913703918457,
        80.82556915283203
      ],
      "min": [
        -72.45421600341797,
        -19.6700496673584,
        -60.438697814941406
      ],
      "bufferView": 2,
      "byteOffset": 0
    },
    {
      "type": "VEC3",
      "componentType": 5126,
      "count": 7270,
      "bufferView": 2,
      "byteOffset": 12
    },
    {
      "type": "VEC2",
      "componentType": 5126,
      "count": 7270,
      "bufferView": 2,
      "byteOffset": 24
    },
    {
      "type": "VEC3",
      "componentType": 5126,
      "count": 3708,
      "max": [
        67.47482299804688,
        8.849374771118164,
        84.93157958984375
      ],
      "min": [
        -37.952537536621094,
        -13.183696746826172,
        -31.826372146606445
      ],
      "bufferView": 3,
      "byteOffset": 0
    },
    {
      "type": "VEC3",
      "componentType": 5126,
      "count": 3708,
      "bufferView": 3,
      "byteOffset": 12
    },
    {
      "type": "VEC2",
      "componentType": 5126,
      "count": 3708,
      "bufferView": 3,
      "byteOffset": 24
    },
    {
      "type": "VEC3",
      "componentType": 5126,
      "count": 3372,
      "max": [
        54.867408752441406,
        5.3542160987854,
        76.91519927978516
      ],
      "min": [
        -0.304411917924881,
        -8.251721382141113,
        -18.583568572998047
      ],
      "bufferView": 4,
      "byteOffset": 0
    },
    {
      "type": "VEC3",
      "componentType": 5126,
      "count": 3372,
      "bufferView": 4,
      "byteOffset": 12
    },
    {
      "type": "VEC3",
      "componentType": 5126,
      "count": 1912,
      "max": [
        51.0913200378418,
        5.342121124267578,
        76.93104553222656
      ],
      "min": [
        -0.1948828101158142,
        -8.23089599609375,
        -18.443208694458008
      ],
      "bufferView": 5,
      "byteOffset": 0
    },
    {
      "type": "VEC3",
      "componentType": 5126,
      "count": 1912,
      "bufferView": 5,
      "byteOffset": 12
    },
    {
      "type": "VEC3",
      "componentType": 5126,
      "count": 768,
      "max": [
        13.179559707641602,
        0.22502095997333527,
        37.651676177978516
      ],
      "min": [
        -63.099369049072266,
        -14.761059761047363,
        -31.098541259765625
      ],
      "bufferView": 6,
      "byteOffset": 0
    },
    {
      "type": "VEC3",
      "componentType": 5126,
      "count": 768,
      "bufferView": 6,
      "byteOffset": 12
    },
    {
      "type": "VEC2",
      "componentType": 5126,
      "count": 768,
      "bufferView": 6,
      "byteOffset": 24
    },
    {
      "type": "VEC3",
      "componentType": 5126,
      "count": 288,
      "max": [
        51.361690521240234,
        2.853790760040283,
        64.82341766357422
      ],
      "min": [
        -12.832768440246582,
        -3.9690632820129395,
        -30.679906845092773
      ],
      "bufferView": 7,
      "byteOffset": 0
    },
    {
      "type": "VEC3",
      "componentType": 5126,
      "count": 288,
      "bufferView": 7,
      "byteOffset": 12
    },
    {
      "type": "VEC2",
      "componentType": 5126,
      "count": 288,
      "bufferView": 7,
      "byteOffset": 24
    },
    {
      "type": "VEC3",
      "componentType": 5126,
      "count": 13824,
      "max": [
        3.0166397094726562,
        7.854014873504639,
        6.163623332977295
      ],
      "min": [
        -1.3329168558120728,
        -2.0693130493164062,
        -1.250000238418579
      ],
      "bufferView": 8,
      "byteOffset": 0
    },
    {
      "type": "VEC3",
      "componentType": 5126,
      "count": 13824,
      "bufferView": 8,
      "byteOffset": 12
    },
    {
      "type": "VEC2",
      "componentType": 5126,
      "count": 13824,
      "bufferView": 8,
      "byteOffset": 24
    }
  ],
  "bufferViews": [
    {
      "buffer": 0,
      "byteOffset": 0,
      "byteLength": 97968,
      "target": 34963
    },
    {
      "buffer": 0,
      "byteOffset": 97968,
      "byteLength": 13248,
      "byteStride": 32,
      "target": 34962
    },
    {
      "buffer": 0,
      "byteOffset": 111216,
      "byteLength": 232640,
      "byteStride": 32,
      "target": 34962
    },
    {
      "buffer": 0,
      "byteOffset": 343856,
      "byteLength": 118656,
      "byteStride": 32,
      "target": 34962
    },
    {
      "buffer": 0,
      "byteOffset": 462512,
      "byteLength": 80928,
      "byteStride": 24,
      "target": 34962
    },
    {
      "buffer": 0,
      "byteOffset": 543440,
      "byteLength": 45888,
      "byteStride": 24,
      "target": 34962
    },
    {
      "buffer": 0,
      "byteOffset": 589328,
      "byteLength": 24576,
      "byteStride": 32,
      "target": 34962
    },
    {
      "buffer": 0,
      "byteOffset": 613904,
      "byteLength": 9216,
      "byteStride": 32,
      "target": 34962
    },
    {
      "buffer": 0,
      "byteOffset": 623120,
      "byteLength": 442368,
      "byteStride": 32,
      "target": 34962
    }
  ],
  "samplers": [
    {
      "magFilter": 9729,
      "minFilter": 9987,
      "wrapS": 10497,
      "wrapT": 10497
    },
    {
      "magFilter": 9729,
      "minFilter": 9987,
      "wrapS": 33648,
      "wrapT": 33648
    }
  ],
  "textures": [
    {
      "sampler": 0,
      "extensions": {
        "EXT_texture_webp": {
          "source": 0
        }
      }
    },
    {
      "sampler": 0,
      "extensions": {
        "EXT_texture_webp": {
          "source": 1
        }
      }
    },
    {
      "sampler": 0,
      "extensions": {
        "EXT_texture_webp": {
          "source": 2
        }
      }
    },
    {
      "sampler": 0,
      "extensions": {
        "EXT_texture_webp": {
          "source": 3
        }
      }
    },
    {
      "sampler": 0,
      "extensions": {
        "EXT_texture_webp": {
          "source": 4
        }
      }
    },
    {
      "sampler": 1,
      "extensions": {
        "EXT_texture_webp": {
          "source": 5
        }
      }
    }
  ],
  "images": [
    {
      "name": "hexagonalLayerSteel_Ash",
      "mimeType": "image/webp",
      "uri": "hexagonalLayerSteel_Ash.webp"
    },
    {
      "name": "hull_lightGray",
      "mimeType": "image/webp",
      "uri": "hull_lightGray.webp"
    },
    {
      "name": "hull_RED",
      "mimeType": "image/webp",
      "uri": "hull_RED.webp"
    },
    {
      "name": "hexagonalLayerSteel_Red",
      "mimeType": "image/webp",
      "uri": "hexagonalLayerSteel_Red.webp"
    },
    {
      "name": "hull_DarkGray",
      "mimeType": "image/webp",
      "uri": "hull_DarkGray.webp"
    },
    {
      "name": "zalek_glow",
      "mimeType": "image/webp",
      "uri": "zalek_glow.webp"
    }
  ],
  "buffers": [
    {
      "uri": "hornet.bin",
      "byteLength": 1065488
    }
  ],
  "materials": [
    {
      "name": "steel_hex_grey.001",
      "pbrMetallicRoughness": {
        "roughnessFactor": 0.699999988079071,
        "metallicFactor": 0.30000001192092896,
        "baseColorTexture": {
          "index": 0
        }
      }
    },
    {
      "name": "hull_white.001",
      "pbrMetallicRoughness": {
        "roughnessFactor": 0.699999988079071,
        "metallicFactor": 0.30000001192092896,
        "baseColorTexture": {
          "index": 1
        }
      }
    },
    {
      "name": "hull_red.001",
      "pbrMetallicRoughness": {
        "roughnessFactor": 0.699999988079071,
        "metallicFactor": 0.30000001192092896,
        "baseColorTexture": {
          "index": 2
        }
      }
    },
    {
      "name": "black.001",
      "pbrMetallicRoughness": {
        "baseColorFactor": [
          0,
          0,
          0,
          1
        ],
        "metallicFactor": 0
      }
    },
    {
      "name": "bloodred.001",
      "pbrMetallicRoughness": {
        "baseColorFactor": [
          0.5,
          0,
          0,
          1
        ],
        "metallicFactor": 0
      }
    },
    {
      "name": "steel_hex_red.001",
      "pbrMetallicRoughness": {
        "roughnessFactor": 0.699999988079071,
        "metallicFactor": 0.30000001192092896,
        "baseColorTexture": {
          "index": 3
        }
      }
    },
    {
      "name": "hull_grey.001",
      "pbrMetallicRoughness": {
        "roughnessFactor": 0.699999988079071,
        "metallicFactor": 0.30000001192092896,
        "baseColorTexture": {
          "index": 4
        }
      }
    },
    {
      "name": "engine_glow_zalek_drone",
      "alphaMode": "BLEND",
      "pbrMetallicRoughness": {
        "metallicFactor": 0,
        "baseColorTexture": {
          "index": 5
        }
      },
      "emissiveFactor": [
        1,
        1,
        1
      ],
      "emissiveTexture": {
        "index": 5
      },
      "extensions": {
        "KHR_materials_emissive_strength": {
          "emissiveStrength": 2
        }
      }
    }
  ],
  "meshes": [
    {
      "name": "base_multi_materials",
      "primitives": [
        {
          "attributes": {
            "POSITION": 8,
            "NORMAL": 9,
            "TEXCOORD_0": 10
          },
          "mode": 4,
          "material": 0,
          "indices": 0
        },
        {
          "attributes": {
            "POSITION": 11,
            "NORMAL": 12,
            "TEXCOORD_0": 13
          },
          "mode": 4,
          "material": 1,
          "indices": 1
        },
        {
          "attributes": {
            "POSITION": 14,
            "NORMAL": 15,
            "TEXCOORD_0": 16
          },
          "mode": 4,
          "material": 2,
          "indices": 2
        },
        {
          "attributes": {
            "POSITION": 17,
            "NORMAL": 18
          },
          "mode": 4,
          "material": 3,
          "indices": 3
        },
        {
          "attributes": {
            "POSITION": 19,
            "NORMAL": 20
          },
          "mode": 4,
          "material": 4,
          "indices": 4
        },
        {
          "attributes": {
            "POSITION": 21,
            "NORMAL": 22,
            "TEXCOORD_0": 23
          },
          "mode": 4,
          "material": 5,
          "indices": 5
        },
        {
          "attributes": {
            "POSITION": 24,
            "NORMAL": 25,
            "TEXCOORD_0": 26
          },
          "mode": 4,
          "material": 6,
          "indices": 6
        }
      ]
    },
    {
      "name": "glow.001",
      "primitives": [
        {
          "attributes": {
            "POSITION": 27,
            "NORMAL": 28,
            "TEXCOORD_0": 29
          },
          "mode": 4,
          "material": 7,
          "indices": 7
        }
      ]
    }
  ],
  "nodes": [
    {
      "name": "base_multi_materials",
      "translation": [
        0,
        0,
        -1.000000238418579
      ],
      "rotation": [
        0.0905364379286766,
        -0.17647255957126617,
        0.49498429894447327,
        0.8459618091583252
      ],
      "scale": [
        0.046078987419605255,
        0.22468076646327972,
        0.07637367397546768
      ],
      "mesh": 0
    },
    {
      "name": "glow.001",
      "translation": [
        -0.7208701372146606,
        -1.1758663654327393,
        -3.237653970718384
      ],
      "rotation": [
        0,
        0,
        -0.570548951625824,
        0.8212636113166809
      ],
      "scale": [
        0.7753831744194031,
        0.36483335494995117,
        0.8408552408218384
      ],
      "mesh": 1
    },
    {
      "name": "base_multi_materials",
      "translation": [
        0,
        0,
        -1.000000238418579
      ],
      "rotation": [
        0.0905364379286766,
        -0.17647255957126617,
        0.49498429894447327,
        0.8459618091583252
      ],
      "scale": [
        0.046078987419605255,
        0.22468076646327972,
        0.07637367397546768
      ],
      "mesh": 0
    }
  ],
  "scenes": [
    {
      "name": "base",
      "nodes": [
        0
      ]
    },
    {
      "name": "engine",
      "nodes": [
        1,
        2
      ]
    }
  ],
  "scene": 0,
  "extensionsUsed": [
    "EXT_texture_webp",
    "KHR_materials_emissive_strength"
  ],
  "extensionsRequired": [
    "EXT_texture_webp"
  ]
}
