{
  "asset": {
    "generator": "glTF-Transform v4.0.0-alpha.5",
    "version": "2.0"
  },
  "accessors": [
    {
      "type": "SCALAR",
      "componentType": 5123,
      "count": 372,
      "bufferView": 0,
      "byteOffset": 0
    },
    {
      "type": "SCALAR",
      "componentType": 5123,
      "count": 228,
      "bufferView": 0,
      "byteOffset": 744
    },
    {
      "type": "SCALAR",
      "componentType": 5123,
      "count": 2112,
      "bufferView": 0,
      "byteOffset": 1200
    },
    {
      "type": "SCALAR",
      "componentType": 5123,
      "count": 1080,
      "bufferView": 0,
      "byteOffset": 5424
    },
    {
      "type": "SCALAR",
      "componentType": 5123,
      "count": 528,
      "bufferView": 0,
      "byteOffset": 7584
    },
    {
      "type": "SCALAR",
      "componentType": 5123,
      "count": 192,
      "bufferView": 0,
      "byteOffset": 8640
    },
    {
      "type": "VEC3",
      "componentType": 5126,
      "count": 243,
      "max": [
        1.3334195613861084,
        0.22436653077602386,
        8.709430694580078
      ],
      "min": [
        -2.3599212169647217,
        -0.5292893648147583,
        -6.7868428230285645
      ],
      "bufferView": 1,
      "byteOffset": 0
    },
    {
      "type": "VEC3",
      "componentType": 5126,
      "count": 243,
      "bufferView": 1,
      "byteOffset": 12
    },
    {
      "type": "VEC2",
      "componentType": 5126,
      "count": 243,
      "bufferView": 1,
      "byteOffset": 24
    },
    {
      "type": "VEC2",
      "componentType": 5126,
      "count": 243,
      "bufferView": 1,
      "byteOffset": 32
    },
    {
      "type": "VEC3",
      "componentType": 5126,
      "count": 160,
      "max": [
        0.5537499785423279,
        0.04694819077849388,
        -3.3986127376556396
      ],
      "min": [
        -0.5537499785423279,
        -0.04694819077849388,
        -8.364641189575195
      ],
      "bufferView": 2,
      "byteOffset": 0
    },
    {
      "type": "VEC3",
      "componentType": 5126,
      "count": 160,
      "bufferView": 2,
      "byteOffset": 12
    },
    {
      "type": "VEC3",
      "componentType": 5126,
      "count": 1536,
      "max": [
        1.4999128580093384,
        0.30921080708503723,
        1.2306920289993286
      ],
      "min": [
        -3.002483367919922,
        -0.6886264085769653,
        -6.021699905395508
      ],
      "bufferView": 3,
      "byteOffset": 0
    },
    {
      "type": "VEC3",
      "componentType": 5126,
      "count": 1536,
      "bufferView": 3,
      "byteOffset": 12
    },
    {
      "type": "VEC2",
      "componentType": 5126,
      "count": 1536,
      "bufferView": 3,
      "byteOffset": 24
    },
    {
      "type": "VEC3",
      "componentType": 5126,
      "count": 720,
      "max": [
        2.1719157695770264,
        0.09165368229150772,
        1.097784399986267
      ],
      "min": [
        -3.066206455230713,
        -0.43209367990493774,
        -4.78949499130249
      ],
      "bufferView": 4,
      "byteOffset": 0
    },
    {
      "type": "VEC3",
      "componentType": 5126,
      "count": 720,
      "bufferView": 4,
      "byteOffset": 12
    },
    {
      "type": "VEC2",
      "componentType": 5126,
      "count": 720,
      "bufferView": 4,
      "byteOffset": 24
    },
    {
      "type": "VEC3",
      "componentType": 5126,
      "count": 384,
      "max": [
        -0.34257185459136963,
        -0.10455448925495148,
        0.7506056427955627
      ],
      "min": [
        -3.0008301734924316,
        -0.6113385558128357,
        -3.4079763889312744
      ],
      "bufferView": 5,
      "byteOffset": 0
    },
    {
      "type": "VEC3",
      "componentType": 5126,
      "count": 384,
      "bufferView": 5,
      "byteOffset": 12
    },
    {
      "type": "VEC2",
      "componentType": 5126,
      "count": 384,
      "bufferView": 5,
      "byteOffset": 24
    },
    {
      "type": "VEC3",
      "componentType": 5126,
      "count": 100,
      "max": [
        1.124842643737793,
        0.18927060067653656,
        5.326417922973633
      ],
      "min": [
        -2.521341562271118,
        -0.5705090761184692,
        -4.2172088623046875
      ],
      "bufferView": 6,
      "byteOffset": 0
    },
    {
      "type": "VEC3",
      "componentType": 5126,
      "count": 100,
      "bufferView": 6,
      "byteOffset": 12
    },
    {
      "type": "VEC2",
      "componentType": 5126,
      "count": 100,
      "bufferView": 6,
      "byteOffset": 24
    },
    {
      "type": "VEC3",
      "componentType": 5126,
      "count": 60,
      "max": [
        0.3582763671875,
        0.06740085780620575,
        0.9091220498085022
      ],
      "min": [
        -0.3582763671875,
        -0.06740085780620575,
        0.3508578836917877
      ],
      "bufferView": 7,
      "byteOffset": 0
    },
    {
      "type": "VEC3",
      "componentType": 5126,
      "count": 60,
      "bufferView": 7,
      "byteOffset": 12
    }
  ],
  "bufferViews": [
    {
      "buffer": 0,
      "byteOffset": 0,
      "byteLength": 9024,
      "target": 34963
    },
    {
      "buffer": 0,
      "byteOffset": 9024,
      "byteLength": 9720,
      "byteStride": 40,
      "target": 34962
    },
    {
      "buffer": 0,
      "byteOffset": 18744,
      "byteLength": 3840,
      "byteStride": 24,
      "target": 34962
    },
    {
      "buffer": 0,
      "byteOffset": 22584,
      "byteLength": 49152,
      "byteStride": 32,
      "target": 34962
    },
    {
      "buffer": 0,
      "byteOffset": 71736,
      "byteLength": 23040,
      "byteStride": 32,
      "target": 34962
    },
    {
      "buffer": 0,
      "byteOffset": 94776,
      "byteLength": 12288,
      "byteStride": 32,
      "target": 34962
    },
    {
      "buffer": 0,
      "byteOffset": 107064,
      "byteLength": 3200,
      "byteStride": 32,
      "target": 34962
    },
    {
      "buffer": 0,
      "byteOffset": 110264,
      "byteLength": 1440,
      "byteStride": 24,
      "target": 34962
    }
  ],
  "samplers": [
    {
      "magFilter": 9729,
      "minFilter": 9987,
      "wrapS": 10497,
      "wrapT": 10497
    }
  ],
  "textures": [
    {
      "source": 0,
      "sampler": 0
    },
    {
      "source": 1,
      "sampler": 0
    },
    {
      "source": 2,
      "sampler": 0
    },
    {
      "source": 3,
      "sampler": 0
    }
  ],
  "images": [
    {
      "name": "hull_lightGray",
      "mimeType": "image/png",
      "uri": "hull_lightGray.png"
    },
    {
      "name": "hull_DarkGray",
      "mimeType": "image/png",
      "uri": "hull_DarkGray.png"
    },
    {
      "name": "hull_RED",
      "mimeType": "image/png",
      "uri": "hull_RED.png"
    },
    {
      "name": "hexagonalLayerSteel_Red",
      "mimeType": "image/png",
      "uri": "hexagonalLayerSteel_Red.png"
    }
  ],
  "buffers": [
    {
      "uri": "zalek_drone_light.bin",
      "byteLength": 111704
    }
  ],
  "materials": [
    {
      "name": "white",
      "pbrMetallicRoughness": {
        "baseColorFactor": [
          0.800000011920929,
          0.800000011920929,
          0.800000011920929,
          1
        ],
        "roughnessFactor": 0.5,
        "metallicFactor": 0
      }
    },
    {
      "name": "body_white",
      "pbrMetallicRoughness": {
        "roughnessFactor": 0.5,
        "metallicFactor": 0,
        "baseColorTexture": {
          "index": 0
        }
      }
    },
    {
      "name": "body_grey",
      "pbrMetallicRoughness": {
        "roughnessFactor": 0.5,
        "metallicFactor": 0,
        "baseColorTexture": {
          "index": 1
        }
      }
    },
    {
      "name": "body_red",
      "pbrMetallicRoughness": {
        "roughnessFactor": 0.5,
        "metallicFactor": 0,
        "baseColorTexture": {
          "index": 2
        }
      }
    },
    {
      "name": "steel_hex_red",
      "pbrMetallicRoughness": {
        "roughnessFactor": 0.5,
        "metallicFactor": 0,
        "baseColorTexture": {
          "index": 3
        }
      }
    },
    {
      "name": "eye",
      "pbrMetallicRoughness": {
        "baseColorFactor": [
          0.800000011920929,
          0.800000011920929,
          0.800000011920929,
          1
        ],
        "metallicFactor": 0
      },
      "emissiveFactor": [
        1,
        0.03271343559026718,
        0
      ],
      "extensions": {
        "KHR_materials_emissive_strength": {
          "emissiveStrength": 2
        }
      }
    }
  ],
  "meshes": [
    {
      "name": "base",
      "primitives": [
        {
          "attributes": {
            "POSITION": 6,
            "NORMAL": 7,
            "TEXCOORD_0": 8,
            "TEXCOORD_1": 9
          },
          "mode": 4,
          "indices": 0
        },
        {
          "attributes": {
            "POSITION": 10,
            "NORMAL": 11
          },
          "mode": 4,
          "material": 0,
          "indices": 1
        },
        {
          "attributes": {
            "POSITION": 12,
            "NORMAL": 13,
            "TEXCOORD_0": 14
          },
          "mode": 4,
          "material": 1,
          "indices": 2
        },
        {
          "attributes": {
            "POSITION": 15,
            "NORMAL": 16,
            "TEXCOORD_0": 17
          },
          "mode": 4,
          "material": 2,
          "indices": 3
        },
        {
          "attributes": {
            "POSITION": 18,
            "NORMAL": 19,
            "TEXCOORD_0": 20
          },
          "mode": 4,
          "material": 3,
          "indices": 4
        },
        {
          "attributes": {
            "POSITION": 21,
            "NORMAL": 22,
            "TEXCOORD_0": 23
          },
          "mode": 4,
          "material": 4,
          "indices": 5
        },
        {
          "attributes": {
            "POSITION": 24,
            "NORMAL": 25
          },
          "mode": 4,
          "material": 5
        }
      ]
    }
  ],
  "nodes": [
    {
      "name": "base",
      "scale": [
        0.44354167580604553,
        2.6359870433807373,
        0.5414332151412964
      ],
      "mesh": 0
    },
    {
      "name": "base_glow",
      "scale": [
        0.44354167580604553,
        2.6359870433807373,
        0.5414332151412964
      ],
      "mesh": 0
    }
  ],
  "scenes": [
    {
      "name": "base",
      "nodes": [
        0
      ]
    },
    {
      "name": "engine",
      "nodes": [
        1
      ]
    }
  ],
  "scene": 1,
  "extensionsUsed": [
    "KHR_materials_emissive_strength"
  ]
}
