{
  "asset": {
    "generator": "glTF-Transform v3.10.0",
    "version": "2.0"
  },
  "accessors": [
    {
      "type": "SCALAR",
      "componentType": 5123,
      "count": 3156,
      "bufferView": 0,
      "byteOffset": 0
    },
    {
      "type": "SCALAR",
      "componentType": 5123,
      "count": 9228,
      "bufferView": 0,
      "byteOffset": 6312
    },
    {
      "type": "SCALAR",
      "componentType": 5123,
      "count": 4128,
      "bufferView": 0,
      "byteOffset": 24768
    },
    {
      "type": "SCALAR",
      "componentType": 5123,
      "count": 1548,
      "bufferView": 0,
      "byteOffset": 33024
    },
    {
      "type": "SCALAR",
      "componentType": 5123,
      "count": 3732,
      "bufferView": 0,
      "byteOffset": 36120
    },
    {
      "type": "VEC3",
      "componentType": 5126,
      "count": 2048,
      "max": [
        6.321274757385254,
        28.64063262939453,
        5.499706268310547
      ],
      "min": [
        -22.53853988647461,
        -42.63145065307617,
        -1.5509533882141113
      ],
      "bufferView": 1,
      "byteOffset": 0
    },
    {
      "type": "VEC3",
      "componentType": 5126,
      "count": 2048,
      "bufferView": 1,
      "byteOffset": 12
    },
    {
      "type": "VEC2",
      "componentType": 5126,
      "count": 2048,
      "bufferView": 1,
      "byteOffset": 24
    },
    {
      "type": "VEC3",
      "componentType": 5126,
      "count": 5362,
      "max": [
        13.357671737670898,
        86.29960632324219,
        7.1652631759643555
      ],
      "min": [
        -23.05968475341797,
        -107.87203979492188,
        -3.5263521671295166
      ],
      "bufferView": 2,
      "byteOffset": 0
    },
    {
      "type": "VEC3",
      "componentType": 5126,
      "count": 5362,
      "bufferView": 2,
      "byteOffset": 12
    },
    {
      "type": "VEC2",
      "componentType": 5126,
      "count": 5362,
      "bufferView": 2,
      "byteOffset": 24
    },
    {
      "type": "VEC3",
      "componentType": 5126,
      "count": 2420,
      "max": [
        19.580148696899414,
        76.57192993164062,
        6.431483268737793
      ],
      "min": [
        -21.956966400146484,
        -98.25233459472656,
        -6.9012131690979
      ],
      "bufferView": 3,
      "byteOffset": 0
    },
    {
      "type": "VEC3",
      "componentType": 5126,
      "count": 2420,
      "bufferView": 3,
      "byteOffset": 12
    },
    {
      "type": "VEC2",
      "componentType": 5126,
      "count": 2420,
      "bufferView": 3,
      "byteOffset": 24
    },
    {
      "type": "VEC3",
      "componentType": 5126,
      "count": 916,
      "max": [
        6.482867240905762,
        40.842403411865234,
        3.6785078048706055
      ],
      "min": [
        -11.221867561340332,
        -45.19500732421875,
        -1.2678016424179077
      ],
      "bufferView": 4,
      "byteOffset": 0
    },
    {
      "type": "VEC3",
      "componentType": 5126,
      "count": 916,
      "bufferView": 4,
      "byteOffset": 12
    },
    {
      "type": "VEC2",
      "componentType": 5126,
      "count": 916,
      "bufferView": 4,
      "byteOffset": 24
    },
    {
      "type": "VEC3",
      "componentType": 5126,
      "count": 2138,
      "max": [
        7.2871198654174805,
        28.64063262939453,
        5.499706268310547
      ],
      "min": [
        -22.53853988647461,
        -67.70230102539062,
        -1.5509533882141113
      ],
      "bufferView": 5,
      "byteOffset": 0
    },
    {
      "type": "VEC3",
      "componentType": 5126,
      "count": 2138,
      "bufferView": 5,
      "byteOffset": 12
    },
    {
      "type": "VEC2",
      "componentType": 5126,
      "count": 2138,
      "bufferView": 5,
      "byteOffset": 24
    }
  ],
  "bufferViews": [
    {
      "buffer": 0,
      "byteOffset": 0,
      "byteLength": 43584,
      "target": 34963
    },
    {
      "buffer": 0,
      "byteOffset": 43584,
      "byteLength": 65536,
      "byteStride": 32,
      "target": 34962
    },
    {
      "buffer": 0,
      "byteOffset": 109120,
      "byteLength": 171584,
      "byteStride": 32,
      "target": 34962
    },
    {
      "buffer": 0,
      "byteOffset": 280704,
      "byteLength": 77440,
      "byteStride": 32,
      "target": 34962
    },
    {
      "buffer": 0,
      "byteOffset": 358144,
      "byteLength": 29312,
      "byteStride": 32,
      "target": 34962
    },
    {
      "buffer": 0,
      "byteOffset": 387456,
      "byteLength": 68416,
      "byteStride": 32,
      "target": 34962
    }
  ],
  "samplers": [
    {
      "magFilter": 9729,
      "minFilter": 9987,
      "wrapS": 10497,
      "wrapT": 10497
    }
  ],
  "textures": [
    {
      "source": 0,
      "sampler": 0
    },
    {
      "source": 1,
      "sampler": 0
    },
    {
      "source": 2,
      "sampler": 0
    },
    {
      "source": 3,
      "sampler": 0
    }
  ],
  "images": [
    {
      "name": "hull_VDarkGray",
      "mimeType": "image/png",
      "uri": "hull_VDarkGray.png"
    },
    {
      "name": "RedBrownVeinedFlesh",
      "mimeType": "image/png",
      "uri": "RedBrownVeinedFlesh.png"
    },
    {
      "name": "Cracked_Flesh_DarkRed",
      "mimeType": "image/png",
      "uri": "Cracked_Flesh_DarkRed.png"
    },
    {
      "name": "OrangeExaust",
      "mimeType": "image/png",
      "uri": "OrangeExaust.png"
    }
  ],
  "buffers": [
    {
      "uri": "marauder.bin",
      "byteLength": 455872
    }
  ],
  "materials": [
    {
      "name": "hull",
      "pbrMetallicRoughness": {
        "roughnessFactor": 0.5,
        "metallicFactor": 0.20000000298023224,
        "baseColorTexture": {
          "index": 0
        }
      }
    },
    {
      "name": "flesh_veined",
      "pbrMetallicRoughness": {
        "roughnessFactor": 0.75,
        "metallicFactor": 0,
        "baseColorTexture": {
          "index": 1
        }
      }
    },
    {
      "name": "carapace",
      "pbrMetallicRoughness": {
        "roughnessFactor": 0.6499999761581421,
        "metallicFactor": 0,
        "baseColorTexture": {
          "index": 2
        }
      }
    },
    {
      "name": "exhaust",
      "pbrMetallicRoughness": {
        "baseColorFactor": [
          0.4171862304210663,
          0.28630998730659485,
          0.013797817751765251,
          1
        ],
        "roughnessFactor": 0.5,
        "metallicFactor": 0,
        "baseColorTexture": {
          "index": 3
        }
      },
      "emissiveFactor": [
        1,
        1,
        1
      ],
      "emissiveTexture": {
        "index": 3
      },
      "extensions": {
        "KHR_materials_emissive_strength": {
          "emissiveStrength": 2
        }
      }
    }
  ],
  "meshes": [
    {
      "name": "body",
      "primitives": [
        {
          "attributes": {
            "POSITION": 8,
            "NORMAL": 9,
            "TEXCOORD_0": 10
          },
          "mode": 4,
          "material": 0,
          "indices": 1
        },
        {
          "attributes": {
            "POSITION": 11,
            "NORMAL": 12,
            "TEXCOORD_0": 13
          },
          "mode": 4,
          "material": 1,
          "indices": 2
        },
        {
          "attributes": {
            "POSITION": 14,
            "NORMAL": 15,
            "TEXCOORD_0": 16
          },
          "mode": 4,
          "material": 2,
          "indices": 3
        },
        {
          "attributes": {
            "POSITION": 5,
            "NORMAL": 6,
            "TEXCOORD_0": 7
          },
          "mode": 4,
          "material": 3,
          "indices": 0
        }
      ]
    },
    {
      "name": "body",
      "primitives": [
        {
          "attributes": {
            "POSITION": 8,
            "NORMAL": 9,
            "TEXCOORD_0": 10
          },
          "mode": 4,
          "material": 0,
          "indices": 1
        },
        {
          "attributes": {
            "POSITION": 11,
            "NORMAL": 12,
            "TEXCOORD_0": 13
          },
          "mode": 4,
          "material": 1,
          "indices": 2
        },
        {
          "attributes": {
            "POSITION": 14,
            "NORMAL": 15,
            "TEXCOORD_0": 16
          },
          "mode": 4,
          "material": 2,
          "indices": 3
        },
        {
          "attributes": {
            "POSITION": 17,
            "NORMAL": 18,
            "TEXCOORD_0": 19
          },
          "mode": 4,
          "material": 3,
          "indices": 4
        }
      ]
    }
  ],
  "nodes": [
    {
      "name": "body",
      "rotation": [
        0.0836486667394638,
        0.1948786973953247,
        -0.3854627013206482,
        0.8980221152305603
      ],
      "scale": [
        0.13137328624725342,
        0.020314134657382965,
        0.6295272707939148
      ],
      "mesh": 0
    },
    {
      "name": "body_glow",
      "rotation": [
        0.0836486667394638,
        0.1948786973953247,
        -0.3854627013206482,
        0.8980221152305603
      ],
      "scale": [
        0.13137328624725342,
        0.020314134657382965,
        0.6295272707939148
      ],
      "mesh": 1
    }
  ],
  "scenes": [
    {
      "name": "base",
      "nodes": [
        0
      ]
    },
    {
      "name": "engine",
      "nodes": [
        1
      ]
    }
  ],
  "scene": 1,
  "extensionsUsed": [
    "KHR_materials_emissive_strength"
  ]
}
