{
  "asset": {
    "generator": "glTF-Transform v4.0.0-alpha.5",
    "version": "2.0"
  },
  "accessors": [
    {
      "type": "SCALAR",
      "componentType": 5123,
      "count": 1152,
      "bufferView": 0,
      "byteOffset": 0
    },
    {
      "type": "SCALAR",
      "componentType": 5123,
      "count": 1920,
      "bufferView": 0,
      "byteOffset": 2304
    },
    {
      "type": "SCALAR",
      "componentType": 5123,
      "count": 5616,
      "bufferView": 0,
      "byteOffset": 6144
    },
    {
      "type": "SCALAR",
      "componentType": 5123,
      "count": 1932,
      "bufferView": 0,
      "byteOffset": 17376
    },
    {
      "type": "SCALAR",
      "componentType": 5123,
      "count": 3840,
      "bufferView": 0,
      "byteOffset": 21240
    },
    {
      "type": "SCALAR",
      "componentType": 5123,
      "count": 2304,
      "bufferView": 0,
      "byteOffset": 28920
    },
    {
      "type": "SCALAR",
      "componentType": 5123,
      "count": 3072,
      "bufferView": 0,
      "byteOffset": 33528
    },
    {
      "type": "VEC3",
      "componentType": 5126,
      "count": 712,
      "max": [
        4.96061897277832,
        9.647137641906738,
        -1.5094215869903564
      ],
      "min": [
        -0.5922191739082336,
        -3.8043320178985596,
        -4.140904426574707
      ],
      "bufferView": 1,
      "byteOffset": 0
    },
    {
      "type": "VEC3",
      "componentType": 5126,
      "count": 712,
      "bufferView": 1,
      "byteOffset": 12
    },
    {
      "type": "VEC2",
      "componentType": 5126,
      "count": 712,
      "bufferView": 1,
      "byteOffset": 24
    },
    {
      "type": "VEC3",
      "componentType": 5126,
      "count": 1208,
      "max": [
        5.229516506195068,
        13.060592651367188,
        7.5005903244018555
      ],
      "min": [
        -4.01106071472168,
        -0.3010617196559906,
        -4.2725300788879395
      ],
      "bufferView": 2,
      "byteOffset": 0
    },
    {
      "type": "VEC3",
      "componentType": 5126,
      "count": 1208,
      "bufferView": 2,
      "byteOffset": 12
    },
    {
      "type": "VEC2",
      "componentType": 5126,
      "count": 1208,
      "bufferView": 2,
      "byteOffset": 24
    },
    {
      "type": "VEC3",
      "componentType": 5126,
      "count": 3706,
      "max": [
        6.954838275909424,
        14.247049331665039,
        7.229917526245117
      ],
      "min": [
        -4.387313365936279,
        -20.470367431640625,
        -8.303479194641113
      ],
      "bufferView": 3,
      "byteOffset": 0
    },
    {
      "type": "VEC3",
      "componentType": 5126,
      "count": 3706,
      "bufferView": 3,
      "byteOffset": 12
    },
    {
      "type": "VEC2",
      "componentType": 5126,
      "count": 3706,
      "bufferView": 3,
      "byteOffset": 24
    },
    {
      "type": "VEC3",
      "componentType": 5126,
      "count": 1200,
      "max": [
        2.9663219451904297,
        12.950084686279297,
        5.854915618896484
      ],
      "min": [
        -3.143477439880371,
        -8.510458946228027,
        -4.372523784637451
      ],
      "bufferView": 4,
      "byteOffset": 0
    },
    {
      "type": "VEC3",
      "componentType": 5126,
      "count": 1200,
      "bufferView": 4,
      "byteOffset": 12
    },
    {
      "type": "VEC2",
      "componentType": 5126,
      "count": 1200,
      "bufferView": 4,
      "byteOffset": 24
    },
    {
      "type": "VEC3",
      "componentType": 5126,
      "count": 2316,
      "max": [
        0.025229107588529587,
        11.040265083312988,
        0.5796385407447815
      ],
      "min": [
        -1.487371563911438,
        -7.163594722747803,
        -2.5531375408172607
      ],
      "bufferView": 5,
      "byteOffset": 0
    },
    {
      "type": "VEC3",
      "componentType": 5126,
      "count": 2316,
      "bufferView": 5,
      "byteOffset": 12
    },
    {
      "type": "VEC3",
      "componentType": 5126,
      "count": 1374,
      "max": [
        0.01615140214562416,
        11.012402534484863,
        0.29354190826416016
      ],
      "min": [
        -1.325900912284851,
        -7.147412300109863,
        -2.5338542461395264
      ],
      "bufferView": 6,
      "byteOffset": 0
    },
    {
      "type": "VEC3",
      "componentType": 5126,
      "count": 1374,
      "bufferView": 6,
      "byteOffset": 12
    },
    {
      "type": "VEC3",
      "componentType": 5126,
      "count": 512,
      "max": [
        4.323766708374023,
        5.935103416442871,
        -1.0416033267974854
      ],
      "min": [
        -0.2996981143951416,
        -0.6460220813751221,
        -3.5350568294525146
      ],
      "bufferView": 7,
      "byteOffset": 0
    },
    {
      "type": "VEC3",
      "componentType": 5126,
      "count": 512,
      "bufferView": 7,
      "byteOffset": 12
    },
    {
      "type": "VEC2",
      "componentType": 5126,
      "count": 712,
      "bufferView": 8,
      "byteOffset": 0
    },
    {
      "type": "VEC2",
      "componentType": 5126,
      "count": 1208,
      "bufferView": 9,
      "byteOffset": 0
    },
    {
      "type": "VEC2",
      "componentType": 5126,
      "count": 3706,
      "bufferView": 10,
      "byteOffset": 0
    },
    {
      "type": "VEC2",
      "componentType": 5126,
      "count": 1200,
      "bufferView": 11,
      "byteOffset": 0
    }
  ],
  "bufferViews": [
    {
      "buffer": 0,
      "byteOffset": 0,
      "byteLength": 39672,
      "target": 34963
    },
    {
      "buffer": 0,
      "byteOffset": 39672,
      "byteLength": 22784,
      "byteStride": 32,
      "target": 34962
    },
    {
      "buffer": 0,
      "byteOffset": 62456,
      "byteLength": 38656,
      "byteStride": 32,
      "target": 34962
    },
    {
      "buffer": 0,
      "byteOffset": 101112,
      "byteLength": 118592,
      "byteStride": 32,
      "target": 34962
    },
    {
      "buffer": 0,
      "byteOffset": 219704,
      "byteLength": 38400,
      "byteStride": 32,
      "target": 34962
    },
    {
      "buffer": 0,
      "byteOffset": 258104,
      "byteLength": 55584,
      "byteStride": 24,
      "target": 34962
    },
    {
      "buffer": 0,
      "byteOffset": 313688,
      "byteLength": 32976,
      "byteStride": 24,
      "target": 34962
    },
    {
      "buffer": 0,
      "byteOffset": 346664,
      "byteLength": 12288,
      "byteStride": 24,
      "target": 34962
    },
    {
      "buffer": 0,
      "byteOffset": 358952,
      "byteLength": 5696,
      "byteStride": 8,
      "target": 34962
    },
    {
      "buffer": 0,
      "byteOffset": 364648,
      "byteLength": 9664,
      "byteStride": 8,
      "target": 34962
    },
    {
      "buffer": 0,
      "byteOffset": 374312,
      "byteLength": 29648,
      "byteStride": 8,
      "target": 34962
    },
    {
      "buffer": 0,
      "byteOffset": 403960,
      "byteLength": 9600,
      "byteStride": 8,
      "target": 34962
    }
  ],
  "samplers": [
    {
      "magFilter": 9729,
      "minFilter": 9987,
      "wrapS": 10497,
      "wrapT": 10497
    }
  ],
  "textures": [
    {
      "source": 0,
      "sampler": 0
    },
    {
      "source": 1,
      "sampler": 0
    },
    {
      "source": 2,
      "sampler": 0
    },
    {
      "source": 3,
      "sampler": 0
    },
    {
      "source": 4,
      "sampler": 0
    },
    {
      "source": 5,
      "sampler": 0
    }
  ],
  "images": [
    {
      "name": "hexagonalLayerSteel_Ash",
      "mimeType": "image/png",
      "uri": "hexagonalLayerSteel_Ash.png"
    },
    {
      "name": "hexagonalLayerSteel_Red",
      "mimeType": "image/png",
      "uri": "hexagonalLayerSteel_Red.png"
    },
    {
      "name": "hull_lightGray",
      "mimeType": "image/png",
      "uri": "hull_lightGray.png"
    },
    {
      "name": "hull_RED",
      "mimeType": "image/png",
      "uri": "hull_RED.png"
    },
    {
      "name": "GLO_bake",
      "mimeType": "image/png",
      "uri": "GLO_bake.png"
    },
    {
      "name": "AO_bake",
      "mimeType": "image/png",
      "uri": "AO_bake.png"
    }
  ],
  "buffers": [
    {
      "uri": "sting.bin",
      "byteLength": 413560
    }
  ],
  "materials": [
    {
      "name": "steel_hex_grey",
      "pbrMetallicRoughness": {
        "roughnessFactor": 0.5,
        "metallicFactor": 0.30000001192092896,
        "baseColorTexture": {
          "index": 0
        }
      }
    },
    {
      "name": "steel_hex_red",
      "pbrMetallicRoughness": {
        "roughnessFactor": 0.5,
        "metallicFactor": 0.30000001192092896,
        "baseColorTexture": {
          "index": 1
        }
      }
    },
    {
      "name": "hull_grey",
      "pbrMetallicRoughness": {
        "roughnessFactor": 0.800000011920929,
        "metallicFactor": 0,
        "baseColorTexture": {
          "index": 2
        }
      }
    },
    {
      "name": "hull_red",
      "pbrMetallicRoughness": {
        "roughnessFactor": 0.800000011920929,
        "metallicFactor": 0,
        "baseColorTexture": {
          "index": 3
        }
      }
    },
    {
      "name": "black",
      "pbrMetallicRoughness": {
        "baseColorFactor": [
          0,
          0,
          0,
          1
        ],
        "metallicFactor": 0
      }
    },
    {
      "name": "bloodred",
      "pbrMetallicRoughness": {
        "baseColorFactor": [
          0.49904030561447144,
          0,
          0.0015332564944401383,
          1
        ],
        "metallicFactor": 0
      }
    },
    {
      "name": "engine_glow",
      "pbrMetallicRoughness": {
        "baseColorFactor": [
          0,
          0,
          0,
          1
        ]
      },
      "emissiveFactor": [
        1,
        0.003372535575181246,
        0
      ],
      "extensions": {
        "KHR_materials_emissive_strength": {
          "emissiveStrength": 2
        }
      }
    },
    {
      "name": "steel_hex_grey_glow",
      "pbrMetallicRoughness": {
        "roughnessFactor": 0.5,
        "metallicFactor": 0.30000001192092896,
        "baseColorTexture": {
          "index": 0
        }
      },
      "emissiveFactor": [
        1,
        1,
        1
      ],
      "emissiveTexture": {
        "index": 4,
        "texCoord": 1
      }
    },
    {
      "name": "steel_hex_red_glow",
      "pbrMetallicRoughness": {
        "roughnessFactor": 0.5,
        "metallicFactor": 0.30000001192092896,
        "baseColorTexture": {
          "index": 1
        }
      },
      "emissiveFactor": [
        1,
        1,
        1
      ],
      "emissiveTexture": {
        "index": 4,
        "texCoord": 1
      }
    },
    {
      "name": "hull_grey_glow",
      "pbrMetallicRoughness": {
        "roughnessFactor": 0.800000011920929,
        "metallicFactor": 0,
        "baseColorTexture": {
          "index": 2
        }
      },
      "emissiveFactor": [
        1,
        1,
        1
      ],
      "emissiveTexture": {
        "index": 4,
        "texCoord": 1
      }
    },
    {
      "name": "hull_red_glow",
      "pbrMetallicRoughness": {
        "roughnessFactor": 0.800000011920929,
        "metallicFactor": 0,
        "baseColorTexture": {
          "index": 3
        }
      },
      "emissiveFactor": [
        1,
        1,
        1
      ],
      "emissiveTexture": {
        "index": 4,
        "texCoord": 1
      }
    }
  ],
  "meshes": [
    {
      "name": "base",
      "primitives": [
        {
          "attributes": {
            "POSITION": 7,
            "NORMAL": 8,
            "TEXCOORD_0": 9
          },
          "mode": 4,
          "material": 0,
          "indices": 0
        },
        {
          "attributes": {
            "POSITION": 10,
            "NORMAL": 11,
            "TEXCOORD_0": 12
          },
          "mode": 4,
          "material": 1,
          "indices": 1
        },
        {
          "attributes": {
            "POSITION": 13,
            "NORMAL": 14,
            "TEXCOORD_0": 15
          },
          "mode": 4,
          "material": 2,
          "indices": 2
        },
        {
          "attributes": {
            "POSITION": 16,
            "NORMAL": 17,
            "TEXCOORD_0": 18
          },
          "mode": 4,
          "material": 3,
          "indices": 3
        },
        {
          "attributes": {
            "POSITION": 19,
            "NORMAL": 20
          },
          "mode": 4,
          "material": 4,
          "indices": 4
        },
        {
          "attributes": {
            "POSITION": 21,
            "NORMAL": 22
          },
          "mode": 4,
          "material": 5,
          "indices": 5
        }
      ]
    },
    {
      "name": "Torus.016",
      "primitives": [
        {
          "attributes": {
            "POSITION": 23,
            "NORMAL": 24
          },
          "mode": 4,
          "material": 6,
          "indices": 6
        }
      ]
    },
    {
      "name": "base.004",
      "primitives": [
        {
          "attributes": {
            "TEXCOORD_1": 25,
            "POSITION": 7,
            "NORMAL": 8,
            "TEXCOORD_0": 9
          },
          "mode": 4,
          "material": 7,
          "indices": 0
        },
        {
          "attributes": {
            "TEXCOORD_1": 26,
            "POSITION": 10,
            "NORMAL": 11,
            "TEXCOORD_0": 12
          },
          "mode": 4,
          "material": 8,
          "indices": 1
        },
        {
          "attributes": {
            "TEXCOORD_1": 27,
            "POSITION": 13,
            "NORMAL": 14,
            "TEXCOORD_0": 15
          },
          "mode": 4,
          "material": 9,
          "indices": 2
        },
        {
          "attributes": {
            "TEXCOORD_1": 28,
            "POSITION": 16,
            "NORMAL": 17,
            "TEXCOORD_0": 18
          },
          "mode": 4,
          "material": 10,
          "indices": 3
        },
        {
          "attributes": {
            "POSITION": 19,
            "NORMAL": 20
          },
          "mode": 4,
          "material": 4,
          "indices": 4
        },
        {
          "attributes": {
            "POSITION": 21,
            "NORMAL": 22
          },
          "mode": 4,
          "material": 5,
          "indices": 5
        }
      ]
    }
  ],
  "nodes": [
    {
      "name": "base",
      "rotation": [
        0.1764724999666214,
        0.09053639322519302,
        -0.8459618091583252,
        0.49498412013053894
      ],
      "scale": [
        0.5559892654418945,
        0.1679309904575348,
        0.5559024214744568
      ],
      "mesh": 0
    },
    {
      "name": "engine",
      "rotation": [
        0.1764725148677826,
        0.09053640067577362,
        -0.8459617495536804,
        0.4949842095375061
      ],
      "scale": [
        0.6704703569412231,
        0.280525267124176,
        0.6703441739082336
      ],
      "mesh": 1
    },
    {
      "name": "base_glow",
      "rotation": [
        0.1764724999666214,
        0.09053639322519302,
        -0.8459618091583252,
        0.49498412013053894
      ],
      "scale": [
        0.5559892654418945,
        0.1679309904575348,
        0.5559024214744568
      ],
      "mesh": 2
    }
  ],
  "scenes": [
    {
      "name": "base",
      "nodes": [
        0
      ]
    },
    {
      "name": "engine",
      "nodes": [
        1,
        2
      ]
    }
  ],
  "scene": 0,
  "extensionsUsed": [
    "KHR_materials_emissive_strength"
  ]
}
