{
  "asset": {
    "generator": "glTF-Transform v3.10.0",
    "version": "2.0"
  },
  "accessors": [
    {
      "type": "VEC3",
      "componentType": 5126,
      "count": 782,
      "max": [
        91.14240264892578,
        10.731912612915039,
        90.43753814697266
      ],
      "min": [
        -67.08763122558594,
        -3.9041056632995605,
        -87.2818374633789
      ],
      "bufferView": 0,
      "byteOffset": 0
    },
    {
      "type": "VEC3",
      "componentType": 5126,
      "count": 782,
      "bufferView": 0,
      "byteOffset": 12
    },
    {
      "type": "VEC3",
      "componentType": 5126,
      "count": 580,
      "max": [
        90.8012466430664,
        10.391825675964355,
        89.02632141113281
      ],
      "min": [
        -66.02098083496094,
        -2.7252144813537598,
        -86.23330688476562
      ],
      "bufferView": 1,
      "byteOffset": 0
    },
    {
      "type": "VEC3",
      "componentType": 5126,
      "count": 580,
      "bufferView": 1,
      "byteOffset": 12
    },
    {
      "type": "VEC3",
      "componentType": 5126,
      "count": 575,
      "max": [
        248.30569458007812,
        13.510515213012695,
        77.21930694580078
      ],
      "min": [
        -215.3459930419922,
        -14.95947265625,
        -87.16339874267578
      ],
      "bufferView": 2,
      "byteOffset": 0
    },
    {
      "type": "VEC3",
      "componentType": 5126,
      "count": 575,
      "bufferView": 2,
      "byteOffset": 12
    },
    {
      "type": "VEC2",
      "componentType": 5126,
      "count": 575,
      "bufferView": 2,
      "byteOffset": 24
    },
    {
      "type": "VEC3",
      "componentType": 5126,
      "count": 312,
      "max": [
        7.4795823097229,
        12.81361198425293,
        9.87386703491211
      ],
      "min": [
        -262.40765380859375,
        1.1502963304519653,
        -119.6386489868164
      ],
      "bufferView": 3,
      "byteOffset": 0
    },
    {
      "type": "VEC3",
      "componentType": 5126,
      "count": 312,
      "bufferView": 3,
      "byteOffset": 12
    },
    {
      "type": "VEC2",
      "componentType": 5126,
      "count": 312,
      "bufferView": 3,
      "byteOffset": 24
    },
    {
      "type": "VEC3",
      "componentType": 5126,
      "count": 508,
      "max": [
        347.20428466796875,
        11.889095306396484,
        34.56492233276367
      ],
      "min": [
        -265.8185119628906,
        -14.45625114440918,
        -134.8786163330078
      ],
      "bufferView": 4,
      "byteOffset": 0
    },
    {
      "type": "VEC3",
      "componentType": 5126,
      "count": 508,
      "bufferView": 4,
      "byteOffset": 12
    },
    {
      "type": "VEC2",
      "componentType": 5126,
      "count": 508,
      "bufferView": 4,
      "byteOffset": 24
    },
    {
      "type": "VEC3",
      "componentType": 5126,
      "count": 1304,
      "max": [
        338.62322998046875,
        20.619741439819336,
        211.54759216308594
      ],
      "min": [
        -420.26898193359375,
        -14.24812126159668,
        -139.4831085205078
      ],
      "bufferView": 5,
      "byteOffset": 0
    },
    {
      "type": "VEC3",
      "componentType": 5126,
      "count": 1304,
      "bufferView": 5,
      "byteOffset": 12
    },
    {
      "type": "VEC2",
      "componentType": 5126,
      "count": 1304,
      "bufferView": 5,
      "byteOffset": 24
    },
    {
      "type": "VEC3",
      "componentType": 5126,
      "count": 309,
      "max": [
        4.323766708374023,
        5.935103416442871,
        -1.0416033267974854
      ],
      "min": [
        -0.2996981143951416,
        -0.6460220813751221,
        -3.5350568294525146
      ],
      "bufferView": 6,
      "byteOffset": 0
    },
    {
      "type": "VEC3",
      "componentType": 5126,
      "count": 309,
      "bufferView": 6,
      "byteOffset": 12
    },
    {
      "type": "SCALAR",
      "componentType": 5123,
      "count": 2316,
      "bufferView": 7,
      "byteOffset": 0
    },
    {
      "type": "SCALAR",
      "componentType": 5123,
      "count": 1770,
      "bufferView": 7,
      "byteOffset": 4632
    },
    {
      "type": "SCALAR",
      "componentType": 5123,
      "count": 1830,
      "bufferView": 7,
      "byteOffset": 8172
    },
    {
      "type": "SCALAR",
      "componentType": 5123,
      "count": 1104,
      "bufferView": 7,
      "byteOffset": 11832
    },
    {
      "type": "SCALAR",
      "componentType": 5123,
      "count": 1548,
      "bufferView": 7,
      "byteOffset": 14040
    },
    {
      "type": "SCALAR",
      "componentType": 5123,
      "count": 4290,
      "bufferView": 7,
      "byteOffset": 17136
    },
    {
      "type": "SCALAR",
      "componentType": 5123,
      "count": 1854,
      "bufferView": 7,
      "byteOffset": 25716
    }
  ],
  "bufferViews": [
    {
      "buffer": 0,
      "byteOffset": 0,
      "byteLength": 18768,
      "byteStride": 24,
      "target": 34962
    },
    {
      "buffer": 0,
      "byteOffset": 18768,
      "byteLength": 13920,
      "byteStride": 24,
      "target": 34962
    },
    {
      "buffer": 0,
      "byteOffset": 32688,
      "byteLength": 18400,
      "byteStride": 32,
      "target": 34962
    },
    {
      "buffer": 0,
      "byteOffset": 51088,
      "byteLength": 9984,
      "byteStride": 32,
      "target": 34962
    },
    {
      "buffer": 0,
      "byteOffset": 61072,
      "byteLength": 16256,
      "byteStride": 32,
      "target": 34962
    },
    {
      "buffer": 0,
      "byteOffset": 77328,
      "byteLength": 41728,
      "byteStride": 32,
      "target": 34962
    },
    {
      "buffer": 0,
      "byteOffset": 119056,
      "byteLength": 7416,
      "byteStride": 24,
      "target": 34962
    },
    {
      "buffer": 0,
      "byteOffset": 126472,
      "byteLength": 29424,
      "target": 34963
    }
  ],
  "samplers": [
    {
      "magFilter": 9729,
      "minFilter": 9987,
      "wrapS": 10497,
      "wrapT": 10497
    }
  ],
  "textures": [
    {
      "source": 0,
      "sampler": 0
    },
    {
      "source": 1,
      "sampler": 0
    },
    {
      "source": 2,
      "sampler": 0
    },
    {
      "source": 3,
      "sampler": 0
    }
  ],
  "images": [
    {
      "name": "hexagonalLayerSteel_Ash",
      "mimeType": "image/png",
      "uri": "hexagonalLayerSteel_Ash.png"
    },
    {
      "name": "hexagonalLayerSteel_Red",
      "mimeType": "image/png",
      "uri": "hexagonalLayerSteel_Red.png"
    },
    {
      "name": "hull_lightGray",
      "mimeType": "image/png",
      "uri": "hull_lightGray.png"
    },
    {
      "name": "hull_RED",
      "mimeType": "image/png",
      "uri": "hull_RED.png"
    }
  ],
  "buffers": [
    {
      "uri": "sting.bin",
      "byteLength": 155896
    }
  ],
  "materials": [
    {
      "name": "black",
      "pbrMetallicRoughness": {
        "baseColorFactor": [
          0,
          0,
          0,
          1
        ],
        "roughnessFactor": 0.5,
        "metallicFactor": 0
      }
    },
    {
      "name": "bloodred",
      "pbrMetallicRoughness": {
        "baseColorFactor": [
          0.475,
          0,
          0,
          1
        ],
        "roughnessFactor": 0.5,
        "metallicFactor": 0
      }
    },
    {
      "name": "hexagonal",
      "pbrMetallicRoughness": {
        "roughnessFactor": 0.5,
        "metallicFactor": 0,
        "baseColorTexture": {
          "index": 0
        }
      }
    },
    {
      "name": "hexagonal_red",
      "pbrMetallicRoughness": {
        "roughnessFactor": 0.5,
        "metallicFactor": 0,
        "baseColorTexture": {
          "index": 1
        }
      }
    },
    {
      "name": "irregular_grid",
      "pbrMetallicRoughness": {
        "roughnessFactor": 0.5,
        "metallicFactor": 0,
        "baseColorTexture": {
          "index": 2
        }
      }
    },
    {
      "name": "irregalura_grid_red",
      "pbrMetallicRoughness": {
        "roughnessFactor": 0.5,
        "metallicFactor": 0,
        "baseColorTexture": {
          "index": 3
        }
      }
    },
    {
      "name": "engine_glow.mat",
      "pbrMetallicRoughness": {
        "baseColorFactor": [
          0,
          0,
          0,
          0.8
        ]
      },
      "emissiveFactor": [
        1,
        0.05,
        0.05
      ],
      "extensions": {
        "KHR_materials_emissive_strength": {
          "emissiveStrength": 2
        }
      }
    }
  ],
  "meshes": [
    {
      "name": "body",
      "primitives": [
        {
          "attributes": {
            "POSITION": 0,
            "NORMAL": 1
          },
          "mode": 4,
          "material": 0,
          "indices": 18
        },
        {
          "attributes": {
            "POSITION": 2,
            "NORMAL": 3
          },
          "mode": 4,
          "material": 1,
          "indices": 19
        },
        {
          "attributes": {
            "POSITION": 4,
            "NORMAL": 5,
            "TEXCOORD_0": 6
          },
          "mode": 4,
          "material": 5,
          "indices": 20
        },
        {
          "attributes": {
            "POSITION": 7,
            "NORMAL": 8,
            "TEXCOORD_0": 9
          },
          "mode": 4,
          "material": 2,
          "indices": 21
        },
        {
          "attributes": {
            "POSITION": 10,
            "NORMAL": 11,
            "TEXCOORD_0": 12
          },
          "mode": 4,
          "material": 3,
          "indices": 22
        },
        {
          "attributes": {
            "POSITION": 13,
            "NORMAL": 14,
            "TEXCOORD_0": 15
          },
          "mode": 4,
          "material": 4,
          "indices": 23
        }
      ]
    },
    {
      "name": "engine",
      "primitives": [
        {
          "attributes": {
            "POSITION": 16,
            "NORMAL": 17
          },
          "mode": 4,
          "material": 6,
          "indices": 24
        }
      ]
    }
  ],
  "nodes": [
    {
      "name": "body",
      "rotation": [
        -0.600092351436615,
        -0.37401774525642395,
        -0.1598588526248932,
        0.6887997388839722
      ],
      "scale": [
        0.011078734882175922,
        0.1910616010427475,
        0.011078733950853348
      ],
      "mesh": 0
    },
    {
      "name": "engine",
      "rotation": [
        0.1764724999666214,
        0.09053640067577362,
        -0.8459617495536804,
        0.4949842393398285
      ],
      "scale": [
        0.6704704165458679,
        0.280525267124176,
        0.6703441739082336
      ],
      "mesh": 1
    }
  ],
  "scenes": [
    {
      "name": "body",
      "nodes": [
        0
      ]
    },
    {
      "name": "engine",
      "nodes": [
        1
      ]
    }
  ],
  "scene": 0,
  "extensionsUsed": [
    "KHR_materials_emissive_strength"
  ]
}
