{
	"asset":{
		"generator":"Khronos glTF Blender I/O v4.0.44",
		"version":"2.0"
	},
	"extensionsUsed":[
		"KHR_materials_emissive_strength"
	],
	"scene":0,
	"scenes":[
		{
			"name":"body",
			"nodes":[
				0
			]
		},
		{
			"name":"engine",
			"nodes":[
				1
			]
		}
	],
	"nodes":[
		{
			"mesh":0,
			"name":"body",
			"rotation":[
				-0.600092351436615,
				-0.37401774525642395,
				-0.1598588526248932,
				0.6887997388839722
			],
			"scale":[
				0.011078734882175922,
				0.1910616010427475,
				0.011078733950853348
			]
		},
		{
			"mesh":1,
			"name":"engine",
			"rotation":[
				0.1764724999666214,
				0.09053640067577362,
				-0.8459617495536804,
				0.4949842393398285
			],
			"scale":[
				0.6704704165458679,
				0.280525267124176,
				0.6703441739082336
			]
		}
	],
	"materials":[
		{
			"name":"black",
			"pbrMetallicRoughness":{
				"baseColorFactor":[
					0,
					0,
					0,
					1
				],
				"metallicFactor":0,
				"roughnessFactor":0.5
			}
		},
		{
			"name":"bloodred",
			"pbrMetallicRoughness":{
				"baseColorFactor":[
					0.475,
					0,
					0,
					1
				],
				"metallicFactor":0,
				"roughnessFactor":0.5
			}
		},
		{
			"name":"hexagonal",
			"pbrMetallicRoughness":{
				"baseColorTexture":{
					"index":0
				},
				"metallicFactor":0,
				"roughnessFactor":0.5
			}
		},
		{
			"name":"hexagonal_red",
			"pbrMetallicRoughness":{
				"baseColorTexture":{
					"index":1
				},
				"metallicFactor":0,
				"roughnessFactor":0.5
			}
		},
		{
			"name":"irregular_grid",
			"pbrMetallicRoughness":{
				"baseColorTexture":{
					"index":2
				},
				"metallicFactor":0,
				"roughnessFactor":0.5
			}
		},
		{
			"name":"irregalura_grid_red",
			"pbrMetallicRoughness":{
				"baseColorTexture":{
					"index":3
				},
				"metallicFactor":0,
				"roughnessFactor":0.5
			}
		},
		{
			"emissiveFactor":[
            1,
            0.05,
            0.05
			],
			"extensions":{
				"KHR_materials_emissive_strength":{
					"emissiveStrength":2
				}
			},
			"name":"engine_glow.mat",
			"pbrMetallicRoughness":{
				"baseColorFactor":[
					0,
					0,
					0,
					0.8
				]
			}
		}
	],
	"meshes":[
		{
			"name":"body",
			"primitives":[
				{
					"attributes":{
						"POSITION":0,
						"NORMAL":1,
						"TEXCOORD_0":2
					},
					"indices":3,
					"material":0
				},
				{
					"attributes":{
						"POSITION":4,
						"NORMAL":5,
						"TEXCOORD_0":6
					},
					"indices":7,
					"material":1
				},
				{
					"attributes":{
						"POSITION":8,
						"NORMAL":9,
						"TEXCOORD_0":10
					},
					"indices":11,
					"material":2
				},
				{
					"attributes":{
						"POSITION":12,
						"NORMAL":13,
						"TEXCOORD_0":14
					},
					"indices":15,
					"material":2
				},
				{
					"attributes":{
						"POSITION":16,
						"NORMAL":17,
						"TEXCOORD_0":18
					},
					"indices":19,
					"material":2
				},
				{
					"attributes":{
						"POSITION":20,
						"NORMAL":21,
						"TEXCOORD_0":22
					},
					"indices":23,
					"material":3
				},
				{
					"attributes":{
						"POSITION":24,
						"NORMAL":25,
						"TEXCOORD_0":26
					},
					"indices":27,
					"material":4
				},
				{
					"attributes":{
						"POSITION":28,
						"NORMAL":29,
						"TEXCOORD_0":30
					},
					"indices":31,
					"material":5
				},
				{
					"attributes":{
						"POSITION":32,
						"NORMAL":33,
						"TEXCOORD_0":34
					},
					"indices":35,
					"material":3
				},
				{
					"attributes":{
						"POSITION":36,
						"NORMAL":37,
						"TEXCOORD_0":38
					},
					"indices":39,
					"material":4
				}
			]
		},
		{
			"name":"engine",
			"primitives":[
				{
					"attributes":{
						"POSITION":40,
						"NORMAL":41,
						"TEXCOORD_0":42
					},
					"indices":43,
					"material":6
				}
			]
		}
	],
	"textures":[
		{
			"sampler":0,
			"source":0
		},
		{
			"sampler":0,
			"source":1
		},
		{
			"sampler":0,
			"source":2
		},
		{
			"sampler":0,
			"source":3
		}
	],
	"images":[
		{
			"mimeType":"image/png",
			"name":"hexagonalLayerSteel_Ash",
			"uri":"hexagonalLayerSteel_Ash.png"
		},
		{
			"mimeType":"image/png",
			"name":"hexagonalLayerSteel_Red",
			"uri":"hexagonalLayerSteel_Red.png"
		},
		{
			"mimeType":"image/png",
			"name":"hull_lightGray",
			"uri":"hull_lightGray.png"
		},
		{
			"mimeType":"image/png",
			"name":"hull_RED",
			"uri":"hull_RED.png"
		}
	],
	"accessors":[
		{
			"bufferView":0,
			"componentType":5126,
			"count":2280,
			"max":[
				91.14240264892578,
				10.73282241821289,
				90.43753814697266
			],
			"min":[
				-67.08763122558594,
				-3.9041056632995605,
				-87.2818374633789
			],
			"type":"VEC3"
		},
		{
			"bufferView":1,
			"componentType":5126,
			"count":2280,
			"type":"VEC3"
		},
		{
			"bufferView":2,
			"componentType":5126,
			"count":2280,
			"type":"VEC2"
		},
		{
			"bufferView":3,
			"componentType":5123,
			"count":3840,
			"type":"SCALAR"
		},
		{
			"bufferView":4,
			"componentType":5126,
			"count":1340,
			"max":[
				90.8012466430664,
				10.391825675964355,
				89.02632141113281
			],
			"min":[
				-66.02098083496094,
				-2.7252144813537598,
				-86.23330688476562
			],
			"type":"VEC3"
		},
		{
			"bufferView":5,
			"componentType":5126,
			"count":1340,
			"type":"VEC3"
		},
		{
			"bufferView":6,
			"componentType":5126,
			"count":1340,
			"type":"VEC2"
		},
		{
			"bufferView":7,
			"componentType":5123,
			"count":2304,
			"type":"SCALAR"
		},
		{
			"bufferView":8,
			"componentType":5126,
			"count":100,
			"max":[
				-27.022958755493164,
				11.676137924194336,
				-1.7811827659606934
			],
			"min":[
				-185.24539184570312,
				3.9139857292175293,
				-50.13395309448242
			],
			"type":"VEC3"
		},
		{
			"bufferView":9,
			"componentType":5126,
			"count":100,
			"type":"VEC3"
		},
		{
			"bufferView":10,
			"componentType":5126,
			"count":100,
			"type":"VEC2"
		},
		{
			"bufferView":11,
			"componentType":5123,
			"count":192,
			"type":"SCALAR"
		},
		{
			"bufferView":12,
			"componentType":5126,
			"count":100,
			"max":[
				-24.69855499267578,
				12.81361198425293,
				9.87386703491211
			],
			"min":[
				-178.91323852539062,
				3.2574429512023926,
				-47.098758697509766
			],
			"type":"VEC3"
		},
		{
			"bufferView":13,
			"componentType":5126,
			"count":100,
			"type":"VEC3"
		},
		{
			"bufferView":14,
			"componentType":5126,
			"count":100,
			"type":"VEC2"
		},
		{
			"bufferView":15,
			"componentType":5123,
			"count":192,
			"type":"SCALAR"
		},
		{
			"bufferView":16,
			"componentType":5126,
			"count":512,
			"max":[
				7.4795823097229,
				12.014354705810547,
				5.802449703216553
			],
			"min":[
				-262.40765380859375,
				1.1502963304519653,
				-119.6386489868164
			],
			"type":"VEC3"
		},
		{
			"bufferView":17,
			"componentType":5126,
			"count":512,
			"type":"VEC3"
		},
		{
			"bufferView":18,
			"componentType":5126,
			"count":512,
			"type":"VEC2"
		},
		{
			"bufferView":19,
			"componentType":5123,
			"count":768,
			"type":"SCALAR"
		},
		{
			"bufferView":20,
			"componentType":5126,
			"count":518,
			"max":[
				4.8754143714904785,
				11.889095306396484,
				18.92108154296875
			],
			"min":[
				-265.8185119628906,
				0.890179455280304,
				-134.8786163330078
			],
			"type":"VEC3"
		},
		{
			"bufferView":21,
			"componentType":5126,
			"count":518,
			"type":"VEC3"
		},
		{
			"bufferView":22,
			"componentType":5126,
			"count":518,
			"type":"VEC2"
		},
		{
			"bufferView":23,
			"componentType":5123,
			"count":768,
			"type":"SCALAR"
		},
		{
			"bufferView":24,
			"componentType":5126,
			"count":512,
			"max":[
				26.304243087768555,
				13.09395694732666,
				19.574491500854492
			],
			"min":[
				-280.47845458984375,
				0.12732857465744019,
				-132.87181091308594
			],
			"type":"VEC3"
		},
		{
			"bufferView":25,
			"componentType":5126,
			"count":512,
			"type":"VEC3"
		},
		{
			"bufferView":26,
			"componentType":5126,
			"count":512,
			"type":"VEC2"
		},
		{
			"bufferView":27,
			"componentType":5123,
			"count":768,
			"type":"SCALAR"
		},
		{
			"bufferView":28,
			"componentType":5126,
			"count":1206,
			"max":[
				248.30569458007812,
				13.510515213012695,
				77.21930694580078
			],
			"min":[
				-215.3459930419922,
				-14.95947265625,
				-87.16339874267578
			],
			"type":"VEC3"
		},
		{
			"bufferView":29,
			"componentType":5126,
			"count":1206,
			"type":"VEC3"
		},
		{
			"bufferView":30,
			"componentType":5126,
			"count":1206,
			"type":"VEC2"
		},
		{
			"bufferView":31,
			"componentType":5123,
			"count":1932,
			"type":"SCALAR"
		},
		{
			"bufferView":32,
			"componentType":5126,
			"count":708,
			"max":[
				347.20428466796875,
				2.983170747756958,
				34.56492233276367
			],
			"min":[
				95.1052474975586,
				-14.45625114440918,
				-93.64476013183594
			],
			"type":"VEC3"
		},
		{
			"bufferView":33,
			"componentType":5126,
			"count":708,
			"type":"VEC3"
		},
		{
			"bufferView":34,
			"componentType":5126,
			"count":708,
			"type":"VEC2"
		},
		{
			"bufferView":35,
			"componentType":5123,
			"count":1152,
			"type":"SCALAR"
		},
		{
			"bufferView":36,
			"componentType":5126,
			"count":3219,
			"max":[
				338.62322998046875,
				20.619741439819336,
				211.54759216308594
			],
			"min":[
				-420.26898193359375,
				-14.24812126159668,
				-139.4831085205078
			],
			"type":"VEC3"
		},
		{
			"bufferView":37,
			"componentType":5126,
			"count":3219,
			"type":"VEC3"
		},
		{
			"bufferView":38,
			"componentType":5126,
			"count":3219,
			"type":"VEC2"
		},
		{
			"bufferView":39,
			"componentType":5123,
			"count":4848,
			"type":"SCALAR"
		},
		{
			"bufferView":40,
			"componentType":5126,
			"count":512,
			"max":[
				4.323766708374023,
				5.935103416442871,
				-1.0416033267974854
			],
			"min":[
				-0.2996981143951416,
				-0.6460220813751221,
				-3.5350568294525146
			],
			"type":"VEC3"
		},
		{
			"bufferView":41,
			"componentType":5126,
			"count":512,
			"type":"VEC3"
		},
		{
			"bufferView":42,
			"componentType":5126,
			"count":512,
			"type":"VEC2"
		},
		{
			"bufferView":43,
			"componentType":5123,
			"count":3072,
			"type":"SCALAR"
		}
	],
	"bufferViews":[
		{
			"buffer":0,
			"byteLength":27360,
			"byteOffset":0,
			"target":34962
		},
		{
			"buffer":0,
			"byteLength":27360,
			"byteOffset":27360,
			"target":34962
		},
		{
			"buffer":0,
			"byteLength":18240,
			"byteOffset":54720,
			"target":34962
		},
		{
			"buffer":0,
			"byteLength":7680,
			"byteOffset":72960,
			"target":34963
		},
		{
			"buffer":0,
			"byteLength":16080,
			"byteOffset":80640,
			"target":34962
		},
		{
			"buffer":0,
			"byteLength":16080,
			"byteOffset":96720,
			"target":34962
		},
		{
			"buffer":0,
			"byteLength":10720,
			"byteOffset":112800,
			"target":34962
		},
		{
			"buffer":0,
			"byteLength":4608,
			"byteOffset":123520,
			"target":34963
		},
		{
			"buffer":0,
			"byteLength":1200,
			"byteOffset":128128,
			"target":34962
		},
		{
			"buffer":0,
			"byteLength":1200,
			"byteOffset":129328,
			"target":34962
		},
		{
			"buffer":0,
			"byteLength":800,
			"byteOffset":130528,
			"target":34962
		},
		{
			"buffer":0,
			"byteLength":384,
			"byteOffset":131328,
			"target":34963
		},
		{
			"buffer":0,
			"byteLength":1200,
			"byteOffset":131712,
			"target":34962
		},
		{
			"buffer":0,
			"byteLength":1200,
			"byteOffset":132912,
			"target":34962
		},
		{
			"buffer":0,
			"byteLength":800,
			"byteOffset":134112,
			"target":34962
		},
		{
			"buffer":0,
			"byteLength":384,
			"byteOffset":134912,
			"target":34963
		},
		{
			"buffer":0,
			"byteLength":6144,
			"byteOffset":135296,
			"target":34962
		},
		{
			"buffer":0,
			"byteLength":6144,
			"byteOffset":141440,
			"target":34962
		},
		{
			"buffer":0,
			"byteLength":4096,
			"byteOffset":147584,
			"target":34962
		},
		{
			"buffer":0,
			"byteLength":1536,
			"byteOffset":151680,
			"target":34963
		},
		{
			"buffer":0,
			"byteLength":6216,
			"byteOffset":153216,
			"target":34962
		},
		{
			"buffer":0,
			"byteLength":6216,
			"byteOffset":159432,
			"target":34962
		},
		{
			"buffer":0,
			"byteLength":4144,
			"byteOffset":165648,
			"target":34962
		},
		{
			"buffer":0,
			"byteLength":1536,
			"byteOffset":169792,
			"target":34963
		},
		{
			"buffer":0,
			"byteLength":6144,
			"byteOffset":171328,
			"target":34962
		},
		{
			"buffer":0,
			"byteLength":6144,
			"byteOffset":177472,
			"target":34962
		},
		{
			"buffer":0,
			"byteLength":4096,
			"byteOffset":183616,
			"target":34962
		},
		{
			"buffer":0,
			"byteLength":1536,
			"byteOffset":187712,
			"target":34963
		},
		{
			"buffer":0,
			"byteLength":14472,
			"byteOffset":189248,
			"target":34962
		},
		{
			"buffer":0,
			"byteLength":14472,
			"byteOffset":203720,
			"target":34962
		},
		{
			"buffer":0,
			"byteLength":9648,
			"byteOffset":218192,
			"target":34962
		},
		{
			"buffer":0,
			"byteLength":3864,
			"byteOffset":227840,
			"target":34963
		},
		{
			"buffer":0,
			"byteLength":8496,
			"byteOffset":231704,
			"target":34962
		},
		{
			"buffer":0,
			"byteLength":8496,
			"byteOffset":240200,
			"target":34962
		},
		{
			"buffer":0,
			"byteLength":5664,
			"byteOffset":248696,
			"target":34962
		},
		{
			"buffer":0,
			"byteLength":2304,
			"byteOffset":254360,
			"target":34963
		},
		{
			"buffer":0,
			"byteLength":38628,
			"byteOffset":256664,
			"target":34962
		},
		{
			"buffer":0,
			"byteLength":38628,
			"byteOffset":295292,
			"target":34962
		},
		{
			"buffer":0,
			"byteLength":25752,
			"byteOffset":333920,
			"target":34962
		},
		{
			"buffer":0,
			"byteLength":9696,
			"byteOffset":359672,
			"target":34963
		},
		{
			"buffer":0,
			"byteLength":6144,
			"byteOffset":369368,
			"target":34962
		},
		{
			"buffer":0,
			"byteLength":6144,
			"byteOffset":375512,
			"target":34962
		},
		{
			"buffer":0,
			"byteLength":4096,
			"byteOffset":381656,
			"target":34962
		},
		{
			"buffer":0,
			"byteLength":6144,
			"byteOffset":385752,
			"target":34963
		}
	],
	"samplers":[
		{
			"magFilter":9729,
			"minFilter":9987
		}
	],
	"buffers":[
		{
			"byteLength":391896,
			"uri":"sting.bin"
		}
	]
}
