{
  "asset": {
    "generator": "glTF-Transform v4.0.0-alpha.5",
    "version": "2.0"
  },
  "accessors": [
    {
      "type": "SCALAR",
      "componentType": 5123,
      "count": 3576,
      "bufferView": 0,
      "byteOffset": 0
    },
    {
      "type": "SCALAR",
      "componentType": 5123,
      "count": 324,
      "bufferView": 0,
      "byteOffset": 7152
    },
    {
      "type": "VEC3",
      "componentType": 5126,
      "count": 1242,
      "max": [
        6.362867832183838,
        7.6187334060668945,
        18.170116424560547
      ],
      "min": [
        -4.789814472198486,
        -7.6187334060668945,
        -9.122222900390625
      ],
      "bufferView": 1,
      "byteOffset": 0
    },
    {
      "type": "VEC3",
      "componentType": 5126,
      "count": 1242,
      "bufferView": 1,
      "byteOffset": 12
    },
    {
      "type": "VEC2",
      "componentType": 5126,
      "count": 1242,
      "bufferView": 1,
      "byteOffset": 24
    },
    {
      "type": "VEC3",
      "componentType": 5126,
      "count": 252,
      "max": [
        5.130023002624512,
        5.203507900238037,
        10.029953002929688
      ],
      "min": [
        -3.7399282455444336,
        -5.025060176849365,
        0.8554201126098633
      ],
      "bufferView": 2,
      "byteOffset": 0
    },
    {
      "type": "VEC3",
      "componentType": 5126,
      "count": 252,
      "bufferView": 2,
      "byteOffset": 12
    }
  ],
  "bufferViews": [
    {
      "buffer": 0,
      "byteOffset": 0,
      "byteLength": 7800,
      "target": 34963
    },
    {
      "buffer": 0,
      "byteOffset": 7800,
      "byteLength": 39744,
      "byteStride": 32,
      "target": 34962
    },
    {
      "buffer": 0,
      "byteOffset": 47544,
      "byteLength": 6048,
      "byteStride": 24,
      "target": 34962
    }
  ],
  "samplers": [
    {
      "magFilter": 9729,
      "minFilter": 9987,
      "wrapS": 10497,
      "wrapT": 10497
    }
  ],
  "textures": [
    {
      "source": 1,
      "sampler": 0
    },
    {
      "source": 0,
      "sampler": 0
    },
    {
      "source": 2,
      "sampler": 0
    }
  ],
  "images": [
    {
      "name": "AO_bake",
      "mimeType": "image/png",
      "uri": "AO_bake.png"
    },
    {
      "name": "Shark",
      "mimeType": "image/png",
      "uri": "Shark.png"
    },
    {
      "name": "GLO_bake",
      "mimeType": "image/png",
      "uri": "GLO_bake.png"
    }
  ],
  "buffers": [
    {
      "uri": "shark.bin",
      "byteLength": 53592
    }
  ],
  "materials": [
    {
      "name": "base",
      "pbrMetallicRoughness": {
        "roughnessFactor": 0.5,
        "metallicFactor": 0.20000000298023224,
        "baseColorTexture": {
          "index": 0
        }
      },
      "occlusionTexture": {
        "index": 1
      }
    },
    {
      "name": "base_glow",
      "pbrMetallicRoughness": {
        "roughnessFactor": 0.5,
        "metallicFactor": 0.20000000298023224,
        "baseColorTexture": {
          "index": 0
        }
      },
      "emissiveFactor": [
        1,
        1,
        1
      ],
      "emissiveTexture": {
        "index": 2
      },
      "occlusionTexture": {
        "index": 1
      }
    },
    {
      "name": "glow_standard",
      "extras": {
        "NAEV_noShadows": true
      },
      "alphaMode": "BLEND",
      "pbrMetallicRoughness": {
        "baseColorFactor": [
          0,
          0,
          0,
          1
        ]
      },
      "emissiveFactor": [
        0.0032543239649385214,
        0.19496029615402222,
        1
      ]
    }
  ],
  "meshes": [
    {
      "name": "base",
      "primitives": [
        {
          "attributes": {
            "POSITION": 2,
            "NORMAL": 3,
            "TEXCOORD_0": 4
          },
          "mode": 4,
          "material": 0,
          "indices": 0
        }
      ]
    },
    {
      "name": "base.003",
      "primitives": [
        {
          "attributes": {
            "POSITION": 2,
            "NORMAL": 3,
            "TEXCOORD_0": 4
          },
          "mode": 4,
          "material": 1,
          "indices": 0
        }
      ]
    },
    {
      "name": "Mesh.001",
      "primitives": [
        {
          "attributes": {
            "POSITION": 5,
            "NORMAL": 6
          },
          "mode": 4,
          "material": 2,
          "indices": 1
        }
      ]
    }
  ],
  "nodes": [
    {
      "name": "base",
      "rotation": [
        0,
        0,
        -0.7071068286895752,
        0.7071068286895752
      ],
      "scale": [
        0.29183101654052734,
        0.29183101654052734,
        0.29183101654052734
      ],
      "mesh": 0
    },
    {
      "name": "base_glow",
      "rotation": [
        0,
        0,
        -0.7071068286895752,
        0.7071068286895752
      ],
      "scale": [
        0.29183101654052734,
        0.29183101654052734,
        0.29183101654052734
      ],
      "mesh": 1
    },
    {
      "name": "glow",
      "translation": [
        -0.025503378361463547,
        -0.028912067413330078,
        -4.291455268859863
      ],
      "rotation": [
        0,
        0,
        -0.7071068286895752,
        0.7071068286895752
      ],
      "scale": [
        0.29183101654052734,
        0.29183101654052734,
        0.29183101654052734
      ],
      "mesh": 2
    }
  ],
  "scenes": [
    {
      "name": "base",
      "extras": {
        "BBB_props": {}
      },
      "nodes": [
        0
      ]
    },
    {
      "name": "engine",
      "extras": {
        "BBB_props": {}
      },
      "nodes": [
        1,
        2
      ]
    }
  ],
  "scene": 1
}
