{
  "asset": {
    "generator": "glTF-Transform v4.0.1",
    "version": "2.0"
  },
  "accessors": [
    {
      "type": "SCALAR",
      "componentType": 5123,
      "count": 5148,
      "bufferView": 0,
      "byteOffset": 0
    },
    {
      "type": "SCALAR",
      "componentType": 5123,
      "count": 720,
      "bufferView": 0,
      "byteOffset": 10296
    },
    {
      "type": "VEC3",
      "componentType": 5126,
      "count": 3182,
      "max": [
        15.520953178405762,
        17.62078094482422,
        14.68662166595459
      ],
      "min": [
        -15.520953178405762,
        -20.01504135131836,
        -14.68862533569336
      ],
      "bufferView": 1,
      "byteOffset": 0
    },
    {
      "type": "VEC3",
      "componentType": 5126,
      "count": 3182,
      "bufferView": 1,
      "byteOffset": 12
    },
    {
      "type": "VEC2",
      "componentType": 5126,
      "count": 3182,
      "bufferView": 1,
      "byteOffset": 24
    },
    {
      "type": "VEC3",
      "componentType": 5126,
      "count": 528,
      "max": [
        7.71336555480957,
        -11.802801132202148,
        6.8929924964904785
      ],
      "min": [
        -7.71336555480957,
        -21.072904586791992,
        -3.174297571182251
      ],
      "bufferView": 2,
      "byteOffset": 0
    },
    {
      "type": "VEC3",
      "componentType": 5126,
      "count": 528,
      "bufferView": 2,
      "byteOffset": 12
    }
  ],
  "bufferViews": [
    {
      "buffer": 0,
      "byteOffset": 0,
      "byteLength": 11736,
      "target": 34963
    },
    {
      "buffer": 0,
      "byteOffset": 11736,
      "byteLength": 101824,
      "byteStride": 32,
      "target": 34962
    },
    {
      "buffer": 0,
      "byteOffset": 113560,
      "byteLength": 12672,
      "byteStride": 24,
      "target": 34962
    }
  ],
  "samplers": [
    {
      "magFilter": 9729,
      "minFilter": 9987,
      "wrapS": 10497,
      "wrapT": 10497
    }
  ],
  "textures": [
    {
      "source": 2,
      "sampler": 0
    },
    {
      "source": 0,
      "sampler": 0
    },
    {
      "source": 1,
      "sampler": 0
    },
    {
      "source": 3,
      "sampler": 0
    }
  ],
  "images": [
    {
      "name": "pacifierGLO",
      "mimeType": "image/png",
      "uri": "pacifierGLO.png"
    },
    {
      "name": "AO_bake",
      "mimeType": "image/png",
      "uri": "AO_bake.png"
    },
    {
      "name": "pacifier",
      "mimeType": "image/png",
      "uri": "pacifier.png"
    },
    {
      "name": "GLO_bake",
      "mimeType": "image/png",
      "uri": "GLO_bake.png"
    }
  ],
  "buffers": [
    {
      "uri": "pacifier.bin",
      "byteLength": 126232
    }
  ],
  "materials": [
    {
      "name": "base",
      "pbrMetallicRoughness": {
        "roughnessFactor": 0.5,
        "metallicFactor": 0.20000000298023224,
        "baseColorTexture": {
          "index": 0
        }
      },
      "emissiveFactor": [
        1,
        1,
        1
      ],
      "emissiveTexture": {
        "index": 1
      },
      "occlusionTexture": {
        "index": 2
      }
    },
    {
      "name": "base_glow",
      "pbrMetallicRoughness": {
        "roughnessFactor": 0.5,
        "metallicFactor": 0.20000000298023224,
        "baseColorTexture": {
          "index": 0
        }
      },
      "emissiveFactor": [
        1,
        1,
        1
      ],
      "emissiveTexture": {
        "index": 3
      },
      "occlusionTexture": {
        "index": 2
      }
    },
    {
      "name": "glow_standard",
      "extras": {
        "NAEV_noShadows": true
      },
      "alphaMode": "BLEND",
      "pbrMetallicRoughness": {
        "baseColorFactor": [
          0,
          0,
          0,
          1
        ]
      },
      "emissiveFactor": [
        0.0032543239649385214,
        0.19496029615402222,
        1
      ]
    }
  ],
  "meshes": [
    {
      "name": "base",
      "primitives": [
        {
          "attributes": {
            "POSITION": 2,
            "NORMAL": 3,
            "TEXCOORD_0": 4
          },
          "mode": 4,
          "material": 0,
          "indices": 0
        }
      ]
    },
    {
      "name": "base",
      "primitives": [
        {
          "attributes": {
            "POSITION": 2,
            "NORMAL": 3,
            "TEXCOORD_0": 4
          },
          "mode": 4,
          "material": 1,
          "indices": 0
        }
      ]
    },
    {
      "name": "pacifier.001",
      "primitives": [
        {
          "attributes": {
            "POSITION": 5,
            "NORMAL": 6
          },
          "mode": 4,
          "material": 2,
          "indices": 1
        }
      ]
    }
  ],
  "nodes": [
    {
      "name": "base",
      "translation": [
        0,
        2.676279067993164,
        3.932492256164551
      ],
      "rotation": [
        0.7071068286895752,
        0,
        0,
        0.7071068286895752
      ],
      "mesh": 0
    },
    {
      "name": "base_glow",
      "translation": [
        0,
        2.676279067993164,
        3.932492256164551
      ],
      "rotation": [
        0.7071068286895752,
        0,
        0,
        0.7071068286895752
      ],
      "mesh": 1
    },
    {
      "name": "pacifier.001",
      "translation": [
        0,
        2.26511549949646,
        0
      ],
      "rotation": [
        0.7071068286895752,
        0,
        0,
        0.7071068286895752
      ],
      "scale": [
        0.9003337025642395,
        0.9003337025642395,
        0.9003337025642395
      ],
      "mesh": 2
    }
  ],
  "scenes": [
    {
      "name": "base",
      "nodes": [
        0
      ]
    },
    {
      "name": "engine",
      "nodes": [
        1,
        2
      ]
    }
  ],
  "scene": 1
}
